<svg width="88" height="88" viewBox="0 0 88 88" fill="none" xmlns="http://www.w3.org/2000/svg">
<path d="M44 88C68.2347 88 88 68.2339 88 44C88 19.7653 68.2347 0 44 0C19.7653 0 0 19.7661 0 44C0 68.2339 19.7661 88 44 88Z" fill="url(#paint0_linear)"/>
<g clip-path="url(#clip0)">
<path d="M67.2001 32.0009V62.4009C67.1987 62.8422 66.8414 63.1996 66.4001 63.2009H64.0001C64.4414 63.1996 64.7987 62.8422 64.8001 62.4009V32.0009C64.7987 31.5596 64.4414 31.2022 64.0001 31.2009H66.4001C66.8413 31.2021 67.1987 31.5596 67.2001 32.0009Z" fill="#99D2E0"/>
<path d="M64.8 32.0009V62.4009C64.7987 62.8422 64.4414 63.1996 64.0001 63.2009H60.8C60.3587 63.1996 60.0014 62.8422 60 62.4009V61.6009H28V62.4008C27.9987 62.8421 27.6413 63.1995 27.2 63.2008H21.6C21.1588 63.1995 20.8014 62.8421 20.8001 62.4008V32.0009C20.8014 31.5596 21.1588 31.2022 21.6 31.2009H27.2C27.6413 31.2022 27.9987 31.5596 28 32.0009V32.8009H60V32.0009C60.0013 31.5596 60.3586 31.2022 60.7999 31.2009H63.9999C64.4413 31.2021 64.7987 31.5596 64.8 32.0009Z" fill="#DDECF0"/>
<path d="M59.9999 58.3999H28V61.5999H59.9999V58.3999Z" fill="#E3E7F2"/>
<path d="M59.9999 32.7999H28V35.9999H59.9999V32.7999Z" fill="#DDECF0"/>
<path d="M21.6 56.7999H27.2C27.6419 56.7999 28 57.1581 28 57.5999V62.3999C28 62.8417 27.6419 63.1999 27.2 63.1999H21.6C21.1582 63.1999 20.8001 62.8416 20.8001 62.3999V57.5999C20.8 57.1581 21.1582 56.7999 21.6 56.7999Z" fill="#DDECF0"/>
<path d="M60.8 31.2H66.4C66.8418 31.2 67.2 31.5581 67.2 31.9999V36.7999C67.2 37.2418 66.8417 37.5999 66.4 37.5999H60.8C60.3582 37.5999 60.0001 37.2418 60.0001 36.7999V31.9999C60.0001 31.5582 60.3582 31.2 60.8 31.2Z" fill="#99D2E0"/>
<path d="M60.8 56.7999H66.4C66.8418 56.7999 67.2 57.1581 67.2 57.5999V62.3999C67.2 62.8417 66.8417 63.1999 66.4 63.1999H60.8C60.3582 63.1999 60.0001 62.8416 60.0001 62.3999V57.5999C60.0001 57.1581 60.3582 56.7999 60.8 56.7999Z" fill="#99D2E0"/>
<path d="M64.8001 32.0009V36.8009C64.8001 37.2409 64.5601 37.6009 64.2667 37.6009H60.5334C60.2401 37.6009 60.0001 37.2409 60.0001 36.8009V32.0009C60.0001 31.5609 60.2401 31.2009 60.5334 31.2009H64.2667C64.5601 31.2008 64.8001 31.5608 64.8001 32.0009Z" fill="#DDECF0"/>
<path d="M64.8001 57.5999V62.3999C64.8001 62.8399 64.5601 63.1999 64.2667 63.1999H60.5334C60.2401 63.1999 60.0001 62.8399 60.0001 62.3999V57.5999C60.0001 57.1599 60.2401 56.7999 60.5334 56.7999H64.2667C64.5601 56.7999 64.8001 57.1599 64.8001 57.5999Z" fill="#DDECF0"/>
<path d="M64 37.6H60.8V56.8H64V37.6Z" fill="#E3E7F2"/>
<path d="M21.6 31.2H27.2C27.6419 31.2 28 31.5581 28 31.9999V36.7999C28 37.2418 27.6419 37.5999 27.2 37.5999H21.6C21.1582 37.5999 20.8001 37.2418 20.8001 36.7999V31.9999C20.8 31.5582 21.1582 31.2 21.6 31.2Z" fill="#DDECF0"/>
<path d="M27.2 37.6H24.0001V56.8H27.2V37.6Z" fill="#E3E7F2"/>
<path d="M24 63.2009H21.6C21.1588 63.1996 20.8014 62.8422 20.8001 62.4009V32.0009C20.8014 31.5596 21.1588 31.2022 21.6 31.2009H24C23.5588 31.2022 23.2014 31.5596 23.2001 32.0009V62.4009C23.2013 62.8421 23.5588 63.1996 24 63.2009Z" fill="white"/>
<path d="M21.6 36.8V47.2V57.6H20V47.2V36.8H21.6Z" fill="white"/>
<path d="M20.8 44C21.0118 43.9968 21.2145 43.914 21.368 43.768C21.6774 43.4525 21.6774 42.9475 21.368 42.632L21.2481 42.5359C21.2035 42.5056 21.155 42.4813 21.1039 42.4637C21.0585 42.4406 21.0099 42.4246 20.9597 42.4159C20.9069 42.4069 20.8535 42.4016 20.8 42.3999C20.5882 42.4028 20.3853 42.4857 20.2319 42.6319C19.9299 42.9504 19.9299 43.4495 20.2319 43.7679C20.3084 43.8402 20.3979 43.8972 20.4957 43.9359C20.5919 43.9771 20.6954 43.9988 20.8 44Z" fill="#28B8CE"/>
<path d="M66.4 30.4H63.3747L44.8 21.8867V16.8C44.8 16.3582 44.4418 16 44 16C43.5582 16 43.2 16.3582 43.2 16.8V21.8866L24.6253 30.4H21.6C20.7167 30.4008 20.0008 31.1167 20 32V40C20 40.4418 20.3582 40.8 20.8 40.8C21.2417 40.8 21.5999 40.4417 21.5999 40V38.4H23.2V55.9999H21.6V46.3999C21.6 45.9581 21.2418 45.6 20.8001 45.6C20.3583 45.6 20 45.9582 20 46.4V62.4001C20.0008 63.2834 20.7167 63.9992 21.6 64.0001H27.2C28.0833 63.9992 28.7991 63.2834 28.8 62.4001H59.2001C59.2009 63.2834 59.9168 63.9992 60.8001 64.0001H66.4001C67.2834 63.9992 67.9992 63.2834 68.0001 62.4001V32C67.9992 31.1167 67.2833 30.4008 66.4 30.4ZM66.4 56H64.7999V38.4H66.4V56ZM61.6 56V38.4H63.2V55.9999H61.6V56ZM59.2 57.6H28.8C28.7982 57.0309 28.4934 56.506 28.0001 56.2225V38.1775C28.4934 37.894 28.7982 37.369 28.8 36.8H59.2001C59.2018 37.369 59.5067 37.894 60 38.1775V56.2225C59.5066 56.506 59.2017 57.031 59.2 57.6ZM44 23.2801L60.0091 30.6176C59.5107 30.8997 59.2019 31.4273 59.2001 32H28.8C28.7982 31.4274 28.4893 30.8997 27.991 30.6176L44 23.2801ZM28.8 33.6H59.2001V35.2H28.8V33.6ZM66.4002 32.7991L66.4 32.8V36.8H60.8V32H66.4L66.4002 32.7991ZM21.6 32.8V32H27.2L27.2002 32.7991L27.2 32.8L27.2002 32.8009L27.201 35.9951L27.2 36L27.2009 36.0047L27.2011 36.7999H21.6V32.8ZM24.8 38.4H26.4V55.9999H24.8V38.4ZM21.6 62.4V57.6H27.2L27.2002 58.399L27.2 58.3999L27.2002 58.4009L27.201 61.595L27.2 61.6L27.2009 61.6048L27.2011 62.4H21.6ZM28.8 60.8V59.2H59.2001V60.8H28.8ZM60.8 62.4V57.6H66.4V61.6L66.4009 61.6048L66.4011 62.4H60.8Z" fill="#28B8CE"/>
<path d="M37.6 38.4C37.1581 38.4 36.8 38.7582 36.8 39.2V55.2C36.8 55.6419 37.1582 56 37.6 56C38.0418 56 38.3999 55.6419 38.3999 55.2V39.2001C38.4 38.7582 38.0418 38.4 37.6 38.4Z" fill="#28B8CE"/>
<path d="M34.4 38.4C33.9581 38.4 33.6 38.7582 33.6 39.2V55.2C33.6 55.6419 33.9581 56 34.4 56C34.8418 56 35.1999 55.6419 35.1999 55.2V39.2001C35.1999 38.7582 34.8418 38.4 34.4 38.4Z" fill="#28B8CE"/>
<path d="M31.2 38.4C30.7582 38.4 30.4001 38.7582 30.4001 39.2V55.2C30.4001 55.6419 30.7583 56 31.2 56C31.6419 56 32 55.6419 32 55.2V39.2001C32 38.7582 31.6418 38.4 31.2 38.4Z" fill="#28B8CE"/>
<path d="M40.8 38.4C40.3582 38.4 40.0001 38.7582 40.0001 39.2V55.2C40.0001 55.6419 40.3583 56 40.8 56C41.2419 56 41.6 55.6419 41.6 55.2V39.2001C41.6 38.7582 41.2418 38.4 40.8 38.4Z" fill="#28B8CE"/>
<path d="M44 38.4C43.5582 38.4 43.2 38.7582 43.2 39.2V55.2C43.2 55.6419 43.5583 56 44 56C44.4419 56 44.8 55.6419 44.8 55.2V39.2001C44.8 38.7582 44.4419 38.4 44 38.4Z" fill="#28B8CE"/>
<path d="M47.2 38.4C46.7581 38.4 46.4 38.7582 46.4 39.2V55.2C46.4 55.6419 46.7582 56 47.2 56C47.6418 56 47.9999 55.6419 47.9999 55.2V39.2001C48 38.7582 47.6418 38.4 47.2 38.4Z" fill="#28B8CE"/>
<path d="M50.4 38.4C49.9582 38.4 49.6001 38.7582 49.6001 39.2V55.2C49.6001 55.6419 49.9583 56 50.4 56C50.8418 56 51.2 55.6419 51.2 55.2V39.2001C51.2 38.7582 50.8419 38.4 50.4 38.4Z" fill="#28B8CE"/>
<path d="M53.6 38.4C53.1582 38.4 52.8 38.7582 52.8 39.2V55.2C52.8 55.6419 53.1582 56 53.6 56C54.0419 56 54.4 55.6419 54.4 55.2V39.2001C54.4 38.7582 54.0419 38.4 53.6 38.4Z" fill="#28B8CE"/>
<path d="M56.8 38.4C56.3581 38.4 56 38.7582 56 39.2V55.2C56 55.6419 56.3581 56 56.8 56C57.2418 56 57.5999 55.6419 57.5999 55.2V39.2001C57.6 38.7582 57.2418 38.4 56.8 38.4Z" fill="#28B8CE"/>
</g>
<defs>
<linearGradient id="paint0_linear" x1="44" y1="0" x2="44" y2="88" gradientUnits="userSpaceOnUse">
<stop stop-color="#D2EEF5"/>
<stop offset="1" stop-color="#B6E9F0"/>
</linearGradient>
<clipPath id="clip0">
<rect width="48" height="48" fill="white" transform="translate(20 16)"/>
</clipPath>
</defs>
</svg>
