<svg xmlns="http://www.w3.org/2000/svg" width="123" height="127" fill="none">
  <path fill="#1A1613" d="M25.4882 116.49c.186.107.186.281 0 .389-.1861.108-.4876.108-.6731 0-.1861-.108-.1861-.282 0-.389.1855-.108.487-.108.6731 0zM23.7279 115.472c.1861.107.1861.281 0 .389-.1861.108-.4876.108-.6731 0-.1861-.108-.1861-.282 0-.389.1855-.108.487-.108.6731 0zM21.9676 114.454c.1861.107.1861.282 0 .389-.1861.108-.4876.108-.6737 0-.1855-.107-.1855-.282 0-.389.1861-.108.4876-.108.6737 0zM20.2073 113.436c.1861.108.1861.282 0 .389-.1861.108-.4876.108-.6736 0-.1856-.107-.1856-.281 0-.389.186-.107.4875-.107.6736 0zM18.447 112.419c.1856.107.1856.281 0 .388-.1861.108-.4875.108-.6736 0-.1856-.107-.1856-.281 0-.388.1861-.108.4875-.108.6736 0zM16.671 111.39c.1861.107.1861.281 0 .389-.1856.108-.487.108-.6731 0-.1861-.108-.1861-.282 0-.389.1861-.108.4875-.108.6731 0zM14.9107 110.372c.1861.107.1861.281 0 .389-.1856.108-.487.108-.6731 0-.1861-.108-.1861-.282 0-.389.1861-.108.4875-.108.6731 0zM13.1504 109.354c.1861.108.1861.282 0 .389-.1861.108-.4875.108-.6731 0-.1861-.107-.1861-.281 0-.389.1856-.108.487-.108.6731 0zM11.3901 108.336c.1861.108.1861.282 0 .389-.1861.108-.4875.108-.6731 0-.1861-.107-.1861-.281 0-.389.1856-.108.487-.108.6731 0zM9.62984 107.318c.18555.108.18555.282 0 .389-.18609.108-.48754.108-.67309 0-.18609-.107-.18609-.281 0-.389.18555-.107.487-.107.67309 0zM7.86956 106.3c.18555.108.18555.282 0 .389-.18609.108-.48755.108-.67365 0-.18555-.107-.18555-.281 0-.389.1861-.107.48756-.107.67365 0zM6.10929 105.282c.18555.108.18555.282 0 .39-.1861.107-.48754.107-.67364 0-.18609-.108-.18609-.282 0-.39.1861-.107.48754-.107.67364 0zM4.34847 104.264c.18609.108.18609.283 0 .39-.18555.107-.48701.107-.6731 0-.1861-.107-.1861-.282 0-.39.18609-.107.48755-.107.6731 0zM2.57295 103.236c.18609.108.18609.282 0 .389-.18555.108-.487.108-.67309 0-.1861-.107-.1861-.281 0-.389.18609-.107.48754-.107.67309 0zM.812674 102.218c.186094.108.186094.282 0 .39-.186095.107-.487553.107-.673103 0-.1860946-.108-.1860946-.282 0-.39.18555-.107.487008-.107.673103 0zM43.1764 126.516c.1855.107.1855.282 0 .389-.1861.107-.4876.107-.6737 0s-.1861-.282 0-.389c.1861-.107.4876-.107.6737 0zM41.4156 125.498c.1861.107.1861.282 0 .389-.1856.108-.4876.108-.6731 0-.1861-.107-.1861-.282 0-.389.1855-.107.4875-.107.6731 0zM39.6553 124.48c.1861.108.1861.282 0 .39-.1861.107-.487.107-.6731 0-.1861-.108-.1861-.282 0-.39.1861-.107.487-.107.6731 0zM37.895 123.462c.1861.108.1861.282 0 .39-.1861.107-.4876.107-.6731 0-.1861-.108-.1861-.282 0-.39.1855-.107.487-.107.6731 0zM36.1347 122.444c.1861.108.1861.283 0 .39-.1861.107-.4875.107-.6736 0-.1856-.107-.1856-.282 0-.39.1861-.107.4875-.107.6736 0zM34.3744 121.427c.1856.107.1856.281 0 .389-.1861.107-.4875.107-.6736 0-.1856-.108-.1856-.282 0-.389.1861-.108.4875-.108.6736 0zM32.5989 120.398c.1856.107.1856.282 0 .39-.1861.107-.4875.107-.6736 0-.1861-.108-.1861-.283 0-.39.1861-.107.4875-.107.6736 0zM30.8381 119.38c.1861.108.1861.282 0 .39-.1856.107-.487.107-.6731 0-.1861-.108-.1861-.282 0-.39.1861-.107.4875-.107.6731 0zM29.0778 118.363c.1861.107.1861.281 0 .389-.1855.107-.4875.107-.6731 0-.1861-.108-.1861-.282 0-.389.1856-.108.4876-.108.6731 0zM27.3175 117.345c.1861.107.1861.281 0 .389-.1861.107-.4875.107-.6731 0-.1861-.108-.1861-.282 0-.389.1856-.108.487-.108.6731 0zM27.2539 115.485c.1861.108.1861.281 0 .389-.1856.108-.487.108-.6731 0-.1861-.108-.1861-.281 0-.389.1861-.108.4875-.108.6731 0zM29.0147 114.467c.1855.108.1855.282 0 .389-.1861.108-.4876.108-.6737 0-.1855-.107-.1855-.281 0-.389.1861-.108.4876-.108.6737 0zM30.775 113.449c.1855.108.1855.282 0 .39-.1861.107-.4876.107-.6737 0-.1855-.108-.1855-.282 0-.39.1861-.108.4876-.108.6737 0zM32.5353 112.431c.1861.108.1861.282 0 .39-.1861.107-.4876.107-.6731 0-.1861-.108-.1861-.282 0-.39.1855-.107.487-.107.6731 0zM34.2955 111.414c.1861.107.1861.281 0 .389-.1861.107-.4875.107-.6731 0-.1861-.108-.1861-.282 0-.389.1856-.108.487-.108.6731 0zM36.0558 110.396c.1861.107.1861.281 0 .389-.1855.108-.487.108-.6731 0-.1861-.108-.1861-.282 0-.389.1861-.108.4876-.108.6731 0zM37.8161 109.378c.1861.108.1861.281 0 .389-.1856.108-.487.108-.6731 0-.1861-.108-.1861-.281 0-.389.1861-.108.4875-.108.6731 0zM24.8183 114.468c.1856-.108.487-.108.6731-.001.1861.108.1866.282.0011.39-.1856.107-.487.108-.6731.001-.1861-.108-.1866-.282-.0011-.39zM27.2539 113.449c.1861.108.1861.282 0 .39-.1856.107-.487.107-.6731 0-.1856-.108-.1856-.282 0-.39.1861-.108.4875-.108.6731 0zM29.0147 112.431c.1855.108.1855.282 0 .39-.1861.107-.4876.107-.6737 0-.1855-.108-.1855-.282 0-.39.1861-.107.4876-.107.6737 0zM30.775 111.414c.1855.107.1855.281 0 .389-.1861.107-.4876.107-.6737 0-.1855-.108-.1855-.282 0-.389.1861-.108.4876-.108.6737 0zM32.5353 110.396c.1861.107.1861.281 0 .389-.1861.108-.4876.108-.6731 0-.1861-.108-.1861-.282 0-.389.1855-.108.487-.108.6731 0zM34.2955 109.378c.1861.108.1861.281 0 .389-.1861.108-.4875.108-.6731 0-.1861-.108-.1861-.281 0-.389.1856-.108.487-.108.6731 0zM36.0558 108.36c.1861.108.1861.281 0 .389-.1855.108-.487.108-.6731 0-.1861-.108-.1861-.281 0-.389.1861-.108.4876-.108.6731 0zM23.0575 113.45c.1861-.107.4875-.107.6736 0s.1867.281.0011.389c-.1855.108-.487.108-.6731.001-.1861-.108-.1866-.282-.0016-.39zM25.4936 112.431c.1861.108.1861.282 0 .39-.1861.107-.487.107-.6731 0-.1861-.108-.1861-.282 0-.39.1861-.107.487-.107.6731 0zM27.2539 111.414c.1861.107.1861.281 0 .389-.1856.108-.487.108-.6731 0-.1856-.108-.1856-.282 0-.389.1861-.108.4875-.108.6731 0zM29.0147 110.396c.1855.107.1855.281 0 .389-.1861.108-.4876.108-.6737 0-.1855-.108-.1855-.282 0-.389.1861-.108.4876-.108.6737 0zM30.775 109.378c.1855.108.1855.281 0 .389-.1861.108-.4876.108-.6737 0-.1855-.108-.1855-.281 0-.389.1861-.108.4876-.108.6737 0zM32.5353 108.36c.1861.108.1861.281 0 .389-.1861.108-.4876.108-.6731 0-.1861-.108-.1861-.281 0-.389.1855-.108.487-.108.6731 0zM21.2972 112.433c.1856-.108.487-.108.6736-.001.1861.107.1867.282.0011.389-.1855.108-.487.108-.6731.001-.1866-.107-.1871-.282-.0016-.389zM23.7333 111.414c.1861.107.1861.281 0 .389-.1861.108-.4875.108-.6731 0-.1861-.108-.1861-.282 0-.389.1856-.108.4876-.108.6731 0zM25.4936 110.396c.1861.107.1861.281 0 .389-.1861.108-.487.108-.6731 0-.1861-.108-.1861-.282 0-.389.1861-.108.487-.108.6731 0zM27.2539 109.378c.1861.108.1861.281 0 .389-.1856.108-.487.108-.6731 0-.1856-.108-.1856-.281 0-.389.1861-.108.4875-.108.6731 0zM29.0147 108.36c.1855.108.1855.282 0 .389-.1861.108-.4876.108-.6737 0-.1855-.107-.1855-.281 0-.389.1861-.108.4876-.108.6737 0zM30.775 107.342c.1855.108.1855.282 0 .389-.1861.108-.4876.108-.6731 0-.1861-.107-.1861-.281 0-.389.1855-.108.487-.108.6731 0zM19.5369 111.415c.1856-.108.487-.108.6737-.001.1861.107.1866.282.0011.39-.1856.107-.487.108-.6731 0-.1867-.107-.1872-.281-.0017-.389zM21.973 110.396c.1861.107.1861.281 0 .389-.1861.108-.4875.108-.6731 0-.1861-.108-.1861-.282 0-.389.1856-.108.487-.108.6731 0zM23.7333 109.378c.1861.108.1861.281 0 .389-.1855.108-.4875.108-.6731 0-.1861-.108-.1861-.281 0-.389.1856-.108.4876-.108.6731 0zM25.4936 108.36c.1861.108.1861.282 0 .389-.1861.108-.487.108-.6731 0-.1861-.107-.1861-.281 0-.389.1861-.108.487-.108.6731 0zM27.2539 107.342c.1861.108.1861.282 0 .389-.1856.108-.487.108-.6731 0-.1856-.107-.1856-.281 0-.389.1861-.108.4875-.108.6731 0zM29.0147 106.324c.1855.108.1855.282 0 .389-.1861.108-.4876.108-.6737 0-.1855-.107-.1855-.281 0-.389.1861-.107.4876-.107.6737 0zM17.7614 110.386c.1856-.108.487-.108.6731 0 .1866.106.1872.281.0016.389-.1855.108-.487.108-.6736 0-.1861-.107-.1866-.281-.0011-.389zM20.1975 109.367c.1861.108.1861.282 0 .389-.1861.108-.4875.108-.6736 0-.1856-.107-.1856-.281 0-.389.1861-.107.4875-.107.6736 0zM21.9578 108.349c.1855.108.1855.282 0 .389-.1861.108-.4875.108-.6731 0-.1861-.107-.1861-.281 0-.389.1856-.107.487-.107.6731 0zM23.7181 107.331c.1861.108.1861.282 0 .39-.1861.107-.487.107-.6731 0-.1861-.108-.1861-.282 0-.39.1861-.107.487-.107.6731 0zM25.4783 106.313c.1861.108.1861.282 0 .39-.1855.108-.4869.108-.673 0-.1861-.108-.1861-.282 0-.39.1861-.107.4875-.107.673 0zM27.2386 105.295c.1861.108.1861.282 0 .39-.1855.107-.487.107-.6731 0-.1861-.108-.1861-.282 0-.39.1861-.107.4876-.107.6731 0zM16.0011 109.368c.1856-.108.487-.108.6731 0 .1867.107.1872.281.0017.389-.1856.108-.487.108-.6737 0-.1861-.107-.1866-.281-.0011-.389zM18.4372 108.349c.1856.108.1856.282 0 .389-.1861.108-.4875.108-.6736 0-.1856-.107-.1856-.281 0-.389.1861-.107.4875-.107.6736 0zM20.1975 107.331c.1861.108.1861.282 0 .39-.1861.107-.4875.107-.6736 0-.1856-.108-.1856-.282 0-.39.1861-.107.4875-.107.6736 0zM21.9578 106.313c.1861.108.1861.282 0 .39-.1861.108-.4875.108-.6731 0-.1861-.108-.1861-.282 0-.39.1856-.107.487-.107.6731 0zM23.7181 105.295c.1861.108.1861.282 0 .39-.1861.107-.487.107-.6731 0-.1861-.108-.1861-.282 0-.39.1861-.107.487-.107.6731 0zM25.4783 104.278c.1861.107.1861.282 0 .389-.1855.108-.4869.108-.673 0-.1861-.107-.1861-.282 0-.389.1861-.108.4875-.108.673 0zM14.2408 108.35c.1856-.107.4871-.108.6731 0 .1867.107.1867.282.0011.389-.1855.108-.487.108-.6731.001-.1861-.107-.1866-.282-.0011-.39zM16.6764 107.331c.1861.108.1861.282 0 .39-.1855.107-.487.107-.6731 0-.1861-.108-.1861-.282 0-.39.1861-.107.4876-.107.6731 0zM18.4372 106.313c.1856.108.1856.282 0 .39-.1861.108-.4875.108-.6736 0-.1856-.108-.1856-.282 0-.39.1861-.107.4875-.107.6736 0zM20.1975 105.295c.1861.108.1861.282 0 .39-.1861.107-.4875.107-.6736 0-.1856-.108-.1856-.282 0-.39.1861-.107.4875-.107.6736 0zM21.9578 104.278c.1861.107.1861.282 0 .389-.1861.108-.4875.108-.6731 0-.1861-.107-.1861-.282 0-.389.1856-.108.487-.108.6731 0zM23.7181 103.26c.1861.107.1861.282 0 .389-.1861.108-.487.108-.6731 0-.1861-.107-.1861-.282 0-.389.1861-.108.487-.108.6731 0zM12.4806 107.333c.1855-.108.487-.108.6731-.001.1861.107.1866.282.0011.389-.1856.108-.487.109-.6731.001-.1861-.107-.1867-.282-.0011-.389zM14.9161 106.313c.1861.108.1861.282 0 .39-.1855.108-.487.108-.6731 0-.1861-.108-.1861-.282 0-.39.1861-.107.4876-.107.6731 0zM16.6764 105.295c.1861.108.1861.282 0 .39-.1855.107-.487.107-.6731 0-.1861-.108-.1861-.282 0-.39.1861-.107.4876-.107.6731 0zM18.4372 104.278c.1856.107.1856.282 0 .389-.1861.108-.4875.108-.6736 0-.1856-.107-.1856-.282 0-.389.1861-.108.4875-.108.6736 0zM20.1975 103.26c.1861.107.1861.282 0 .389-.1861.108-.4875.108-.6736 0-.1856-.107-.1856-.282 0-.389.1861-.107.4875-.107.6736 0zM21.9578 102.242c.1861.108.1861.282 0 .389-.1861.108-.4875.108-.6731 0-.1861-.107-.1861-.281 0-.389.1856-.107.487-.107.6731 0zM10.7197 106.315c.1861-.108.4876-.108.6737-.001s.1866.282.0011.39c-.1856.107-.487.108-.6731 0-.1861-.107-.1872-.282-.0017-.389zM13.1558 105.295c.1861.108.1861.282 0 .39-.186.107-.4875.107-.673 0-.1861-.108-.1861-.282 0-.39.1855-.107.487-.107.673 0zM14.9161 104.278c.1861.107.1861.282 0 .389-.1855.108-.487.108-.6731 0-.1861-.107-.1861-.282 0-.389.1861-.108.4876-.108.6731 0zM16.6764 103.26c.1861.107.1861.282 0 .389-.1856.108-.487.108-.6731 0-.1861-.107-.1855-.282 0-.389.1861-.107.4875-.107.6731 0zM18.4372 102.242c.1856.108.1856.282 0 .389-.1861.108-.4875.108-.6736 0-.1856-.107-.1856-.281.0005-.389.1856-.107.487-.107.6731 0zM8.95947 105.297c.18555-.108.48754-.108.67364-.001.18609.107.18663.282.00108.39-.18555.107-.48699.108-.67308 0-.18664-.107-.18719-.282-.00164-.389zM11.3956 104.278c.1861.107.1861.282 0 .389-.1861.108-.4876.108-.6731 0-.1861-.107-.1861-.282 0-.389.1855-.108.487-.108.6731 0zM13.1558 103.26c.1861.107.1861.282 0 .389-.186.108-.4875.108-.673 0-.1861-.107-.1861-.282 0-.389.1855-.107.487-.107.673 0zM14.9161 102.242c.1861.108.1861.282 0 .389-.1855.108-.487.108-.6731 0-.1861-.107-.1861-.281 0-.389.1861-.107.4876-.107.6731 0zM16.6764 101.224c.1861.108.1861.282 0 .389-.1856.108-.487.108-.6731 0-.1855-.107-.1855-.281 0-.389.1861-.107.4875-.107.6731 0zM7.19919 104.279c.18555-.108.48701-.108.6731 0 .18664.107.18718.281.00163.389-.18555.108-.487.108-.67364 0-.1861-.107-.18664-.281-.00109-.389zM9.63528 103.26c.18609.107.18609.282 0 .389-.18609.108-.48754.108-.67363 0-.18555-.107-.18555-.282 0-.389.18609-.107.48754-.107.67363 0zM11.3956 102.242c.1861.108.1861.282 0 .389-.1861.108-.4876.108-.6731 0-.1861-.107-.1861-.281 0-.389.1855-.107.487-.107.6731 0zM13.1558 101.224c.1861.108.1861.282 0 .389-.186.108-.4875.108-.673 0-.1861-.107-.1861-.281 0-.389.1855-.107.487-.107.673 0zM14.9161 100.206c.1861.108.1861.282 0 .39-.1855.107-.487.107-.6731 0-.1861-.108-.1861-.282 0-.39.1861-.107.4876-.107.6731 0zM5.43892 103.261c.18555-.108.487-.108.67309 0 .18664.107.18719.281.00164.389-.18556.108-.48701.108-.67365.001-.1861-.107-.18663-.282-.00108-.39zM7.87499 102.242c.18555.108.18555.282 0 .389-.18609.108-.48754.108-.67363 0-.18555-.107-.18555-.281 0-.389.18609-.107.48754-.107.67363 0zM9.63529 101.224c.18609.108.18609.282 0 .389-.1861.108-.48754.108-.67309 0-.18609-.107-.18609-.281 0-.389.18555-.107.48699-.107.67309 0zM11.3956 100.206c.1861.108.1861.282 0 .39-.1861.107-.487.107-.6731 0-.1861-.108-.1861-.282 0-.39.1861-.107.487-.107.6731 0zM13.1558 99.1889c.1861.1073.1861.2812 0 .3891-.1855.1073-.4875.1073-.673 0-.1861-.1079-.1861-.2818 0-.3891.1855-.1079.4875-.1079.673 0zM3.66339 102.233c.18555-.108.48701-.109.6731-.001.1861.107.18663.282.00108.389-.18555.108-.48645.108-.67309.001-.18609-.107-.18664-.282-.00109-.389zM6.09894 101.214c.18609.107.18609.282 0 .389-.18555.107-.48701.107-.6731 0-.18555-.107-.18555-.282 0-.389.18609-.108.48755-.108.6731 0zM7.85977 100.196c.18555.107.18555.282 0 .389-.18609.107-.48755.107-.67365 0-.18555-.107-.18555-.282 0-.389.1861-.108.48756-.108.67365 0zM9.62004 99.178c.1861.1073.1861.2817 0 .3891-.18609.1073-.48754.1073-.67363 0-.18555-.1074-.18555-.2818 0-.3891.18609-.1074.48754-.1074.67363 0zM11.3803 98.16c.1861.1074.1861.2818 0 .3891-.1861.1079-.4875.1079-.6731 0-.1861-.1073-.1861-.2817 0-.3891.1856-.1073.487-.1073.6731 0zM1.90311 101.215c.18555-.108.487-.108.6731-.001.18664.107.18664.282.00109.39-.18555.107-.48701.107-.6731 0-.1861-.107-.18664-.281-.00109-.389zM4.33866 100.196c.1861.107.1861.282 0 .389-.18555.107-.48699.107-.67308 0-.1861-.107-.1861-.282 0-.389.18609-.108.48753-.108.67308 0zM6.09894 99.178c.18609.1073.18609.2817 0 .3891-.18555.1073-.48701.1073-.6731 0-.18555-.1074-.18555-.2818 0-.3891.18609-.1074.48755-.1074.6731 0zM7.85977 98.16c.18555.1074.18555.2818 0 .3891-.18609.1079-.48755.1079-.67365 0-.18555-.1073-.18555-.2817 0-.3891.1861-.1073.48756-.1073.67365 0zM9.62005 97.1421c.1861.1074.1861.2817 0 .3891-.18609.1079-.48754.1079-.67309 0-.18609-.1074-.18609-.2817 0-.3891.18555-.1074.487-.1074.67309 0zM.142835 100.197c.18555-.108.486995-.108.673089-.001.186096.108.186636.282.00109.39-.185551.107-.486995.107-.67309 0-.1860944-.107-.1866396-.281-.001089-.389zM2.57839 99.178c.1861.1073.1861.2817 0 .3891-.18555.1073-.48755.1073-.6731 0-.18609-.1074-.18609-.2818 0-.3891.18555-.1074.48755-.1074.6731 0zM4.33866 98.16c.1861.1074.1861.2818 0 .3891-.18555.1079-.48699.1079-.67308 0-.1861-.1073-.1861-.2817 0-.3891.18609-.1073.48753-.1073.67308 0zM9.62005 95.1067c.1861.1074.1861.2818 0 .3891-.18609.1074-.48754.1074-.67309 0-.18609-.1073-.18609-.2817 0-.3891.18555-.1079.487-.1079.67309 0zM.818107 98.16c.186093.1074.186093.2818 0 .3891-.186095.1079-.487539.1079-.673089 0-.1860949-.1073-.1860949-.2817 0-.3891.18555-.1073.486994-.1073.673089 0zM2.57839 97.1421c.1861.1074.1861.2817 0 .3891-.18555.1079-.48755.1079-.6731 0-.18609-.1074-.18609-.2817 0-.3891s.48755-.1074.6731 0zM7.85977 94.0888c.18555.1073.18555.2817 0 .3891-.18609.1073-.48755.1073-.67365 0-.18555-.1074-.18555-.2818 0-.3891.1861-.1079.48756-.1079.67365 0zM50.2229 126.529c.1861.107.1861.282 0 .389-.1861.108-.4875.108-.6731 0-.1861-.107-.1861-.282 0-.389.1856-.107.487-.107.6731 0zM51.9832 125.511c.1861.107.1861.282 0 .389-.1861.108-.487.108-.6731 0-.1861-.107-.1861-.282 0-.389.1861-.107.487-.107.6731 0zM53.7435 124.493c.1861.107.1861.282 0 .39-.1855.107-.487.107-.6731 0-.1861-.108-.1861-.283 0-.39.1861-.107.4876-.107.6731 0zM55.5043 123.475c.1856.108.1856.282 0 .39-.1861.107-.4875.107-.6736 0-.1861-.108-.1861-.282 0-.39.1861-.107.4875-.107.6736 0zM57.2646 122.458c.1861.107.1861.282 0 .389-.1861.107-.4875.107-.6736 0-.1856-.107-.1856-.282 0-.389.1861-.108.4875-.108.6736 0zM59.0249 121.44c.1861.107.1861.282 0 .389-.1861.107-.4876.107-.6731 0-.1861-.107-.1861-.282 0-.389.1855-.108.487-.108.6731 0zM60.7852 120.422c.186.107.186.282 0 .389-.1861.108-.4876.108-.6731 0-.1861-.107-.1861-.282 0-.389.1855-.107.487-.107.6731 0zM62.5454 119.404c.1861.107.1861.282 0 .39-.1855.107-.4875.107-.673 0-.1861-.108-.1861-.283 0-.39.1855-.107.4875-.107.673 0zM64.3057 118.386c.1861.107.1861.282 0 .39-.1855.107-.487.107-.6731 0-.1861-.108-.1861-.283 0-.39.1861-.107.4876-.107.6731 0zM66.0665 117.368c.1856.108.1856.282 0 .39-.1861.107-.4875.107-.6736 0-.1856-.108-.1856-.282 0-.39.1861-.107.4875-.107.6736 0zM67.8268 116.351c.1856.107.1856.281 0 .389-.1861.107-.4875.107-.6736 0-.1856-.108-.1856-.282 0-.389.1861-.108.4875-.108.6736 0zM69.5871 115.333c.1861.107.1861.281 0 .389-.1861.107-.4875.107-.6731 0-.1861-.108-.1861-.282 0-.389.1856-.108.487-.108.6731 0zM71.3474 114.315c.1861.107.1861.282 0 .389-.1861.108-.4876.108-.6731 0-.1861-.107-.1861-.282 0-.389.1855-.108.487-.108.6731 0zM73.1077 113.297c.1861.107.1861.282 0 .389-.1856.108-.487.108-.6731 0-.1861-.107-.1861-.282 0-.389.1861-.108.4875-.108.6731 0zM74.8679 112.279c.1861.108.1861.282 0 .39-.1855.107-.487.107-.673 0-.1856-.108-.1856-.282 0-.39.186-.107.4875-.107.673 0zM76.6288 111.262c.1855.107.1855.281 0 .388-.1861.108-.4876.108-.6737 0-.1855-.107-.1855-.281 0-.388.1861-.108.4876-.108.6737 0zM46.0266 126.53c.1855-.107.487-.108.6736 0 .1861.107.1866.281.0011.389-.1856.108-.487.108-.6736.001-.1861-.108-.1867-.282-.0011-.39zM48.4627 125.511c.1861.107.1861.282 0 .389-.1861.108-.4876.108-.6731 0-.1861-.107-.1861-.282 0-.389.1855-.107.487-.107.6731 0zM50.2229 124.493c.1861.107.1861.282 0 .39-.1861.107-.4875.107-.6731 0-.1861-.108-.1861-.283 0-.39.1856-.107.487-.107.6731 0zM51.9832 123.475c.1861.108.1861.282 0 .39-.1855.107-.487.107-.6731 0-.1861-.108-.1861-.282 0-.39.1861-.107.4876-.107.6731 0zM53.7435 122.458c.1861.107.1861.282 0 .389-.1855.107-.487.107-.6731 0-.1861-.107-.1861-.282 0-.389.1861-.108.4876-.108.6731 0zM55.5043 121.44c.1856.107.1856.282 0 .389-.1861.107-.4875.107-.6736 0s-.1861-.282 0-.389c.1861-.108.4875-.108.6736 0zM57.2646 120.422c.1861.107.1861.282 0 .389-.1861.108-.4875.108-.6736 0-.1856-.107-.1856-.282 0-.389.1861-.107.4875-.107.6736 0zM59.0249 119.404c.1861.107.1861.282 0 .39-.1861.107-.4876.107-.6731 0-.1861-.108-.1861-.283 0-.39.1855-.107.487-.107.6731 0zM60.7852 118.386c.186.107.186.282 0 .39-.1861.107-.4876.107-.6731 0-.1861-.108-.1861-.283 0-.39.1855-.107.487-.107.6731 0zM62.5454 117.368c.1861.108.1861.282 0 .39-.1855.107-.4869.107-.673 0-.1861-.108-.1861-.282 0-.39.1861-.107.4875-.107.673 0zM64.3057 116.351c.1861.107.1861.281 0 .389-.1855.107-.487.107-.6731 0-.1861-.108-.1861-.282 0-.389.1861-.108.4876-.108.6731 0zM66.0665 115.333c.1856.107.1856.281 0 .389-.1861.107-.4875.107-.6736 0-.1856-.108-.1856-.282 0-.389.1861-.108.4875-.108.6736 0zM67.8268 114.315c.1856.107.1856.282 0 .389-.1861.108-.4875.108-.6736 0-.1856-.107-.1856-.282 0-.389.1861-.108.4875-.108.6736 0zM69.5871 113.297c.1861.107.1861.282 0 .389-.1861.108-.4875.108-.6731 0-.1861-.107-.1861-.282 0-.389.1856-.108.487-.108.6731 0zM71.3474 112.279c.1861.108.1861.282 0 .39-.1861.107-.4876.107-.6731 0-.1861-.108-.1861-.282 0-.39.1855-.107.487-.107.6731 0zM73.1077 111.262c.1861.107.1861.281 0 .388-.1856.108-.487.108-.6731 0-.1861-.107-.1861-.281 0-.388.1861-.108.4875-.108.6731 0zM74.8679 110.244c.1861.107.1861.281 0 .389-.1855.107-.487.107-.673 0-.1856-.108-.1856-.282 0-.389.186-.108.4875-.108.673 0zM44.2663 125.512c.1855-.107.487-.108.6731 0 .1866.107.1872.281.0016.389-.1855.108-.487.108-.6736.001-.1861-.108-.1867-.282-.0011-.39zM46.7024 124.493c.1855.107.1855.282 0 .39-.1861.107-.4876.107-.6737 0-.1855-.108-.1855-.282 0-.39.1861-.107.4876-.107.6737 0zM48.4627 123.475c.1861.108.1861.282 0 .39-.1861.107-.4876.107-.6731 0-.1861-.108-.1861-.282 0-.39.1855-.107.487-.107.6731 0zM50.2229 122.458c.1861.107.1861.282 0 .389-.1861.107-.4875.107-.6731 0-.1861-.107-.1861-.282 0-.389.1856-.108.487-.108.6731 0zM51.9832 121.44c.1861.107.1861.282 0 .389-.1855.107-.487.107-.6731 0-.1861-.107-.1861-.282 0-.389.1861-.108.4876-.108.6731 0zM53.7435 120.422c.1861.107.1861.282 0 .389-.1855.108-.487.108-.6731 0-.1861-.107-.1861-.282 0-.389.1861-.107.4876-.107.6731 0zM55.5043 119.404c.1856.107.1856.282 0 .39-.1861.107-.4875.107-.6736 0-.1861-.108-.1861-.283 0-.39.1861-.107.4875-.107.6736 0zM57.2646 118.386c.1861.107.1861.282 0 .39-.1861.107-.4875.107-.6736 0-.1856-.108-.1856-.283 0-.39.1861-.107.4875-.107.6736 0zM59.0249 117.368c.1861.108.1861.282 0 .39-.1861.107-.4876.107-.6731 0-.1861-.108-.1861-.282 0-.39.1855-.107.487-.107.6731 0zM60.7852 116.351c.186.107.186.281 0 .389-.1861.107-.4876.107-.6731 0-.1861-.108-.1861-.282 0-.389.1855-.108.487-.108.6731 0zM62.5454 115.333c.1861.107.1861.281 0 .389-.1855.107-.4869.107-.673 0-.1861-.108-.1861-.282 0-.389.1861-.108.4875-.108.673 0zM64.3057 114.315c.1861.107.1861.282 0 .389-.1855.108-.487.108-.6731 0-.1861-.107-.1861-.282 0-.389.1861-.108.4876-.108.6731 0zM66.0665 113.297c.1856.107.1856.282 0 .389-.1861.108-.4875.108-.6736 0-.1856-.107-.1856-.282 0-.389.1861-.108.4875-.108.6736 0zM67.8268 112.279c.1856.108.1856.282 0 .39-.1861.107-.4875.107-.6731 0-.1861-.108-.1861-.282 0-.39.1856-.107.487-.107.6731 0zM69.5871 111.262c.1861.107.1861.281 0 .388-.1861.108-.487.108-.6731 0-.1861-.107-.1861-.281 0-.388.1861-.108.487-.108.6731 0zM71.3474 110.244c.1861.107.1861.281 0 .389-.1856.107-.4876.107-.6731 0-.1861-.108-.1861-.282 0-.389.1855-.108.4875-.108.6731 0zM73.1077 109.225c.1861.108.1861.282 0 .39-.1856.108-.487.108-.6731 0-.1861-.108-.1861-.282 0-.39.1861-.107.4875-.107.6731 0zM42.506 124.495c.1856-.108.487-.109.6731-.001.1866.107.1872.281.0011.389-.185.108-.4865.108-.6731.001-.1861-.107-.1866-.282-.0011-.389zM44.9421 123.475c.1855.108.1855.282 0 .39-.1861.107-.4876.107-.6737 0-.1855-.108-.1855-.282 0-.39.1861-.107.4876-.107.6737 0zM46.7024 122.458c.1855.107.1855.282 0 .389-.1861.107-.4876.107-.6737 0-.1855-.107-.1855-.282 0-.389.1861-.108.4876-.108.6737 0zM48.4627 121.44c.1861.107.1861.282 0 .389-.1861.107-.4876.107-.6731 0-.1861-.107-.1861-.282 0-.389.1855-.107.487-.107.6731 0zM50.2229 120.422c.1861.107.1861.282 0 .389-.1861.108-.4875.108-.6731 0-.1861-.107-.1861-.282 0-.389.1856-.107.487-.107.6731 0zM51.9832 119.404c.1861.107.1861.282 0 .39-.1855.107-.487.107-.6731 0-.1861-.108-.1861-.283 0-.39.1861-.107.4876-.107.6731 0zM53.7435 118.386c.1861.107.1861.282 0 .39-.1855.107-.487.107-.6731 0-.1861-.108-.1861-.283 0-.39.1861-.107.4876-.107.6731 0zM55.5043 117.368c.1856.108.1856.282 0 .39-.1861.107-.4875.107-.6736 0-.1856-.108-.1856-.282 0-.39.1861-.107.4875-.107.6736 0zM57.2646 116.351c.1861.107.1861.281 0 .389-.1861.107-.4875.107-.6736 0-.1856-.108-.1856-.282 0-.389.1861-.108.4875-.108.6736 0zM59.0249 115.333c.1861.107.1861.281 0 .389-.1861.107-.4876.107-.6731 0-.1861-.108-.1861-.282 0-.389.1855-.108.487-.108.6731 0zM60.7852 114.315c.186.107.186.282 0 .389-.1861.108-.4876.108-.6731 0-.1861-.107-.1861-.282 0-.389.1855-.108.487-.108.6731 0zM62.5454 113.297c.1861.107.1861.282 0 .39-.1855.107-.4869.107-.673 0-.1861-.108-.1861-.283 0-.39.1861-.108.4875-.108.673 0zM64.3057 112.279c.1861.108.1861.282 0 .39-.1855.107-.487.107-.6731 0-.1861-.108-.1861-.282 0-.39.1861-.107.4876-.107.6731 0zM66.0665 111.262c.1856.107.1856.281 0 .388-.1861.108-.4875.108-.6736 0-.1856-.107-.1856-.281 0-.388.1861-.108.4875-.108.6736 0zM67.8268 110.244c.1856.107.1856.281 0 .389-.1861.107-.4875.107-.6731 0-.1861-.108-.1861-.282 0-.389.1856-.108.487-.108.6731 0zM69.5871 109.225c.1861.108.1861.282 0 .39-.1861.108-.487.108-.6731 0-.1861-.108-.1861-.282 0-.39.1861-.107.487-.107.6731 0zM71.3474 108.208c.1861.107.1861.281 0 .389-.1856.108-.4876.108-.6731 0-.1861-.108-.1861-.282 0-.389.1855-.108.4875-.108.6731 0zM40.7457 123.477c.1856-.108.487-.108.6731-.001.1861.107.1867.282.0011.389-.1855.108-.487.108-.6731.001-.1861-.107-.1866-.281-.0011-.389zM43.1813 122.458c.1861.107.1861.282 0 .389-.1856.107-.487.107-.6731 0-.1856-.107-.1856-.282 0-.389.1861-.108.4875-.108.6731 0zM44.9421 121.44c.1855.107.1855.282 0 .389-.1861.107-.4876.107-.6737 0-.1855-.107-.1855-.282 0-.389.1861-.107.4876-.107.6737 0zM46.7024 120.422c.1855.107.1855.282 0 .389-.1861.108-.4876.108-.6731 0-.1861-.107-.1861-.282 0-.389.1855-.107.487-.107.6731 0zM48.4627 119.404c.1861.107.1861.282 0 .39-.1861.107-.4876.107-.6731 0-.1861-.108-.1861-.283 0-.39.1855-.107.487-.107.6731 0zM50.2229 118.386c.1861.107.1861.282 0 .39-.1855.107-.4875.107-.6731 0-.1861-.108-.1861-.283 0-.39.1856-.107.4876-.107.6731 0zM51.9832 117.368c.1861.108.1861.282 0 .39-.1855.107-.487.107-.6731 0-.1861-.108-.1861-.282 0-.39.1861-.107.4876-.107.6731 0zM53.7435 116.351c.1861.107.1861.281 0 .389-.1855.107-.487.107-.6731 0-.1861-.108-.1861-.282 0-.389.1861-.108.4876-.108.6731 0zM55.5043 115.333c.1856.107.1856.281 0 .389-.1861.108-.4875.108-.6736 0-.1856-.108-.1856-.282 0-.389.1861-.108.4875-.108.6736 0zM57.2646 114.315c.1861.107.1861.282 0 .389-.1861.108-.4875.108-.6736 0-.1856-.107-.1856-.282 0-.389.1861-.108.4875-.108.6736 0zM59.0249 113.297c.1861.107.1861.282 0 .39-.1861.107-.4876.107-.6731 0-.1861-.108-.1861-.283 0-.39.1855-.108.487-.108.6731 0zM60.7852 112.279c.186.108.186.282 0 .39-.1861.107-.4876.107-.6731 0-.1861-.108-.1861-.282 0-.39.1855-.107.487-.107.6731 0zM62.5454 111.262c.1861.107.1861.281 0 .388-.1855.108-.4869.108-.673 0-.1861-.107-.1861-.281 0-.388.1861-.108.4875-.108.673 0zM64.3063 110.244c.1855.107.1855.281-.0006.389-.1855.107-.487.107-.6731 0-.1861-.108-.1861-.282 0-.389.1861-.108.4876-.108.6737 0zM66.0665 109.225c.1856.108.1856.282 0 .39-.1861.108-.4875.108-.6736 0-.1856-.108-.1856-.282 0-.39.1861-.107.4875-.107.6736 0zM67.8268 108.208c.1856.107.1856.281 0 .389-.1861.108-.4875.108-.6731 0-.1861-.108-.1861-.282 0-.389.1856-.108.487-.108.6731 0zM69.5871 107.19c.1861.108.1861.281 0 .389-.1861.108-.487.108-.6731 0-.1861-.108-.1861-.281 0-.389.1861-.108.487-.108.6731 0zM38.9854 122.459c.1856-.108.487-.108.6731-.001.1861.108.1867.282.0011.39-.1855.107-.487.107-.6731 0-.1861-.107-.1866-.281-.0011-.389zM41.421 121.44c.1861.107.1861.282 0 .389-.1856.107-.487.107-.6731 0-.1861-.107-.1861-.282 0-.389.1861-.107.4875-.107.6731 0zM43.1813 120.422c.1861.107.1861.282 0 .389-.1856.108-.487.108-.6731 0-.1856-.107-.1856-.282 0-.389.1861-.107.4875-.107.6731 0zM44.9421 119.404c.1855.107.1855.282 0 .39-.1861.107-.4876.107-.6737 0-.1855-.108-.1855-.283 0-.39.1861-.107.4876-.107.6737 0zM46.7024 118.386c.1855.108.1855.282 0 .39-.1861.107-.4876.107-.6731 0-.1861-.108-.1861-.282 0-.39.1855-.107.487-.107.6731 0zM48.4627 117.368c.1861.108.1861.282 0 .39-.1861.107-.4876.107-.6731 0-.1861-.108-.1861-.282 0-.39.1855-.107.487-.107.6731 0zM50.2229 116.351c.1861.107.1861.281 0 .389-.1855.107-.4875.107-.6731 0-.1861-.108-.1861-.282 0-.389.1861-.108.4876-.108.6731 0zM51.9832 115.333c.1861.107.1861.281 0 .389-.1855.108-.487.108-.6731 0-.1861-.108-.1861-.282 0-.389.1861-.108.4876-.108.6731 0zM53.744 114.315c.1856.107.1856.282-.0005.389-.1855.108-.487.108-.6731 0-.1861-.107-.1861-.282 0-.389.1861-.108.4875-.108.6736 0zM55.5043 113.297c.1856.107.1856.282 0 .39-.1861.107-.4875.107-.6736 0-.1856-.108-.1856-.283 0-.39.1861-.108.4875-.108.6736 0zM57.2646 112.279c.1861.108.1861.282 0 .39-.1861.107-.4875.107-.6736 0-.1856-.108-.1856-.282 0-.39.1861-.107.4875-.107.6736 0zM59.0249 111.262c.1861.107.1861.281 0 .388-.1861.108-.4876.108-.6731 0-.1861-.107-.1861-.281 0-.388.1855-.108.487-.108.6731 0zM60.7852 110.244c.186.107.186.281 0 .389-.1861.107-.487.107-.6731 0-.1861-.108-.1861-.282 0-.389.1861-.108.487-.108.6731 0zM62.5454 109.225c.1861.108.1861.282 0 .39-.1855.108-.4869.108-.673 0-.1861-.108-.1861-.282 0-.39.1861-.107.4875-.107.673 0zM64.3063 108.208c.1855.107.1855.281 0 .389-.1861.108-.4876.108-.6737 0s-.1861-.282 0-.389c.1861-.108.4876-.108.6737 0zM66.0665 107.19c.1856.108.1856.281 0 .389-.1861.108-.4875.108-.6736 0-.1856-.108-.1856-.281 0-.389.1861-.108.4875-.108.6736 0zM67.8268 106.172c.1856.108.1856.282 0 .389-.1861.108-.4875.108-.6731 0-.1861-.107-.1861-.281 0-.389.1856-.108.487-.108.6731 0zM37.2246 121.441c.1861-.107.4876-.108.6736-.001.1861.108.1867.282.0011.39-.1855.107-.487.108-.6731.001-.1861-.108-.1871-.282-.0016-.39zM39.6607 120.422c.1861.107.1861.282 0 .389-.1855.108-.4875.108-.6731 0-.1861-.107-.1861-.282 0-.389.1861-.107.4876-.107.6731 0zM41.421 119.404c.1861.107.1861.282 0 .39-.1856.107-.487.107-.6731 0-.1861-.108-.1861-.283 0-.39.1861-.107.4875-.107.6731 0zM43.1818 118.386c.1856.108.1856.282-.0005.39-.1856.107-.487.107-.6731 0-.1856-.108-.1856-.282 0-.39.1861-.107.4875-.107.6736 0zM44.9421 117.368c.1855.108.1855.282 0 .39-.1861.107-.4876.107-.6737 0-.1855-.108-.1855-.282 0-.39.1861-.107.4876-.107.6737 0zM46.7024 116.351c.1855.107.1855.281 0 .389-.1861.107-.4876.107-.6731 0-.1861-.108-.1861-.282 0-.389.1855-.108.487-.108.6731 0zM48.4627 115.333c.1861.107.1861.281 0 .389-.1861.108-.4876.108-.6731 0-.1861-.108-.1861-.282 0-.389.1855-.108.487-.108.6731 0zM50.2229 114.315c.1861.107.1861.282 0 .389-.1855.108-.487.108-.6731 0-.1861-.107-.1861-.282 0-.389.1861-.108.4876-.108.6731 0zM51.9832 113.297c.1861.107.1861.282 0 .39-.1855.107-.487.107-.6731 0-.1861-.108-.1861-.283 0-.39.1861-.108.4876-.108.6731 0zM53.744 112.279c.1856.108.1856.282 0 .39-.1861.107-.4875.107-.6736 0-.1861-.108-.1861-.282 0-.39.1861-.107.4875-.107.6736 0zM55.5043 111.262c.1856.107.1856.281 0 .388-.1861.108-.4875.108-.6736 0-.1856-.107-.1856-.281 0-.388.1861-.108.4875-.108.6736 0zM57.2646 110.244c.1861.107.1861.281 0 .389-.1861.107-.4875.107-.6736 0-.1856-.108-.1856-.282 0-.389.1861-.108.4875-.108.6736 0zM59.0249 109.225c.1861.108.1861.282 0 .39-.1861.108-.4876.108-.6731 0-.1861-.108-.1861-.282 0-.39.1855-.107.487-.107.6731 0zM60.7852 108.208c.186.107.186.281 0 .389-.1861.108-.487.108-.6731 0-.1861-.108-.1861-.282 0-.389.1861-.108.487-.108.6731 0zM62.5454 107.19c.1861.108.1861.281 0 .389-.1855.108-.4869.108-.673 0-.1861-.108-.1861-.281 0-.389.1861-.108.4875-.108.673 0zM64.3063 106.172c.1855.108.1855.282 0 .389-.1861.108-.4876.108-.6737 0-.1855-.107-.1855-.281 0-.389.1861-.108.4876-.108.6737 0zM66.0665 105.154c.1856.108.1856.282 0 .389-.1861.108-.4875.108-.6736 0-.1856-.107-.1856-.281 0-.389.1861-.108.4875-.108.6736 0zM35.4643 120.423c.1856-.107.487-.108.6737 0 .1861.107.1866.281.0011.389-.1856.108-.487.108-.6731.001-.1867-.108-.1872-.282-.0017-.39zM37.9004 119.404c.1861.107.1861.282 0 .39-.1861.107-.4875.107-.6731 0-.1861-.108-.1861-.283 0-.39.1856-.107.487-.107.6731 0zM39.6607 118.386c.1861.108.1861.282 0 .39-.1855.107-.487.107-.6731 0-.1861-.108-.1861-.282 0-.39.1861-.107.4876-.107.6731 0zM43.1818 116.351c.1856.107.1856.281 0 .389-.1861.107-.4875.107-.6736 0-.1856-.108-.1856-.282 0-.389.1861-.108.4875-.108.6736 0zM44.9421 115.333c.1855.107.1855.281 0 .389-.1861.108-.4876.108-.6737 0-.1855-.108-.1855-.282 0-.389.1861-.108.4876-.108.6737 0zM46.7024 114.315c.1855.107.1855.282 0 .389-.1861.108-.4876.108-.6731 0-.1861-.107-.1861-.282 0-.389.1855-.108.487-.108.6731 0zM48.4627 113.297c.1861.107.1861.282 0 .39-.1861.107-.4876.107-.6731 0-.1861-.108-.1861-.283 0-.39.1855-.108.487-.108.6731 0zM50.2229 112.279c.1861.108.1861.282 0 .39-.1855.107-.487.107-.6731 0-.1861-.108-.1861-.282 0-.39.1861-.107.4876-.107.6731 0zM51.9832 111.262c.1861.107.1861.281 0 .388-.1855.108-.487.108-.6731 0-.1861-.107-.1861-.281 0-.388.1861-.108.4876-.108.6731 0zM53.744 110.244c.1856.107.1856.281 0 .389-.1861.107-.4875.107-.6736 0-.1856-.108-.1856-.282 0-.389.1861-.108.4875-.108.6736 0zM55.5043 109.225c.1856.108.1856.282 0 .39-.1861.108-.4875.108-.6736 0-.1856-.108-.1856-.282 0-.39.1861-.107.4875-.107.6736 0zM57.2646 108.208c.1861.107.1861.281 0 .389-.1861.108-.4875.108-.6736 0-.1856-.108-.1856-.282 0-.389.1861-.108.4875-.108.6736 0zM59.0249 107.19c.1861.108.1861.281 0 .389-.1861.108-.4876.108-.6731 0-.1861-.108-.1861-.281 0-.389.1855-.108.487-.108.6731 0zM60.7852 106.172c.186.108.186.282 0 .389-.1861.108-.487.108-.6731 0-.1861-.107-.1861-.281 0-.389.1861-.108.487-.108.6731 0zM62.5454 105.154c.1861.108.1861.282 0 .389-.1855.108-.4869.108-.673 0-.1861-.107-.1861-.281 0-.389.1861-.108.4875-.108.673 0zM64.3063 104.136c.1855.108.1855.282 0 .389-.1861.108-.4876.108-.6737 0-.1855-.107-.1855-.281 0-.389.1861-.107.4876-.107.6737 0zM33.6888 119.395c.1856-.108.487-.108.6737-.001.186.107.1866.281.001.389-.1855.108-.487.108-.673.001-.1867-.108-.1872-.281-.0017-.389zM36.1249 118.376c.1856.107.1856.281 0 .389-.1861.107-.4875.107-.6731 0-.1861-.108-.1861-.282 0-.389.1856-.108.487-.108.6731 0zM37.8852 117.358c.1861.107.1861.281 0 .389-.1861.108-.4875.108-.6731 0-.1861-.108-.1861-.282 0-.389.1856-.108.487-.108.6731 0zM43.166 114.304c.1861.108.1861.282 0 .39-.1855.107-.487.107-.6731 0-.186-.108-.186-.282 0-.39.1861-.107.4876-.107.6731 0zM44.9269 113.286c.1855.108.1855.282 0 .389-.1861.108-.4876.108-.6737 0-.1855-.107-.1855-.281 0-.389.1861-.107.4876-.107.6737 0zM46.6871 112.269c.1861.107.1861.281 0 .389-.1861.107-.4875.107-.6736 0-.1856-.108-.1856-.282 0-.389.1861-.108.4875-.108.6736 0zM31.9285 118.377c.1856-.108.487-.108.6731-.001.1867.108.1872.282.0017.389-.1856.108-.487.108-.6737.001-.1861-.107-.1866-.281-.0011-.389zM34.3646 117.358c.1856.107.1856.281 0 .389-.1861.108-.4875.108-.6736 0-.1856-.108-.1856-.282 0-.389.1861-.108.4875-.108.6736 0zM36.1249 116.34c.1856.107.1856.282 0 .389-.1861.108-.4875.108-.6731 0-.1861-.107-.1861-.282 0-.389.1856-.108.487-.108.6731 0zM41.4058 113.286c.1861.108.1861.282 0 .389-.1856.108-.487.108-.6731 0-.1861-.107-.1861-.281 0-.389.1861-.107.4875-.107.6731 0zM43.1666 112.269c.1855.107.1855.281 0 .389-.1861.107-.4876.107-.6737 0-.186-.108-.186-.282 0-.389.1861-.108.4876-.108.6737 0zM44.9269 111.25c.1855.108.1855.282 0 .39-.1861.108-.4876.108-.6737 0-.1855-.108-.1855-.282 0-.39.1861-.107.4876-.107.6737 0zM46.6871 110.233c.1861.107.1861.281 0 .389-.1861.108-.4875.108-.6736 0-.1856-.108-.1856-.282 0-.389.1861-.108.4875-.108.6736 0zM30.1683 117.359c.1855-.108.487-.108.6731-.001.1866.108.1871.282.001.389-.1855.108-.487.109-.673.001-.1861-.107-.1867-.281-.0011-.389zM32.6044 116.34c.1855.107.1855.282 0 .389-.1861.108-.4876.108-.6737 0-.1861-.107-.1861-.282 0-.389.1861-.108.4876-.108.6737 0zM34.3646 115.322c.1856.107.1856.282 0 .39-.1861.107-.4875.107-.6736 0-.1856-.108-.1856-.283 0-.39.1861-.108.4875-.108.6736 0zM39.6455 112.269c.1861.107.1861.281 0 .389-.1856.107-.487.107-.6731 0-.1861-.108-.1861-.282 0-.389.1861-.108.4875-.108.6731 0zM28.408 116.341c.1855-.107.487-.108.6731-.001.1861.108.1866.282.0011.389-.1856.108-.487.109-.6731.002-.1861-.108-.1867-.282-.0011-.39zM30.8435 115.322c.1861.107.1861.282 0 .39-.1855.107-.487.107-.6731 0-.1861-.108-.1861-.283 0-.39.1861-.108.4876-.108.6731 0zM32.6044 114.304c.1855.108.1855.282 0 .39-.1861.107-.4876.107-.6737 0-.1855-.108-.1855-.282 0-.39.1861-.107.4876-.107.6737 0zM34.3646 113.286c.1856.108.1856.282 0 .389-.1861.108-.4875.108-.6731 0-.186-.107-.186-.281 0-.389.1856-.107.487-.107.6731 0zM37.8852 111.25c.1861.108.1861.282 0 .39-.1861.108-.4875.108-.6731 0-.1861-.108-.1861-.282 0-.39.1856-.107.487-.107.6731 0zM77.7274 110.253c.1861-.107.487-.107.6736 0 .1861.107.1867.281.0011.389-.1855.107-.487.108-.6731.001-.1866-.108-.1872-.282-.0016-.39zM80.1635 109.234c.1861.108.1861.282 0 .389-.1861.108-.487.108-.6731 0-.1861-.107-.1861-.281 0-.389.1861-.107.487-.107.6731 0zM81.9238 108.216c.1861.108.1861.282 0 .389-.1856.108-.487.108-.6731 0-.1861-.107-.1861-.281 0-.389.1861-.107.4875-.107.6731 0zM83.6846 107.198c.1855.108.1855.282 0 .389-.1861.108-.4876.108-.6736 0-.1861-.107-.1861-.281 0-.389.186-.107.4875-.107.6736 0zM85.4449 106.18c.1855.108.1855.282 0 .39-.1861.107-.4876.107-.6737 0-.1861-.108-.1861-.282 0-.39.1861-.107.4876-.107.6737 0zM87.2051 105.163c.1861.107.1861.281 0 .389-.1861.108-.4875.108-.6736 0-.1856-.108-.1856-.282 0-.389.1861-.108.4875-.108.6736 0zM88.9654 104.145c.1861.107.1861.281 0 .389-.1861.108-.4875.108-.6731 0-.1861-.108-.1861-.282 0-.389.1856-.108.487-.108.6731 0zM90.7257 103.127c.1861.108.1861.282 0 .389-.1861.108-.4875.108-.6731 0-.1861-.107-.1861-.281 0-.389.1856-.108.487-.108.6731 0zM92.486 102.109c.1861.108.1861.282 0 .389-.1856.108-.487.108-.6731 0-.1861-.107-.1861-.281 0-.389.1861-.107.4875-.107.6731 0zM94.2468 101.091c.1856.108.1856.282 0 .389-.1861.108-.4875.108-.6736 0-.1861-.107-.1861-.281 0-.389.1861-.107.4875-.107.6736 0zM96.0071 100.073c.1855.108.1855.282 0 .389-.1861.108-.4876.108-.6737 0-.1855-.107-.1855-.281 0-.389.1861-.107.4876-.107.6737 0zM97.7674 99.0554c.1861.1079.1861.2817 0 .3896-.1861.1074-.4876.1074-.6737 0-.1855-.1079-.1855-.2817 0-.3896.1861-.1074.4876-.1074.6737 0zM99.5276 98.0374c.1861.1079.1861.2823 0 .3897-.1861.1073-.4875.1073-.673 0-.1861-.1074-.1861-.2818 0-.3897.1855-.1073.4869-.1073.673 0zM101.288 97.02c.186.1074.186.2818 0 .3891-.186.1074-.487.1074-.673 0-.186-.1073-.186-.2817 0-.3891.186-.1079.487-.1079.673 0zM103.048 96.0021c.186.1073.186.2817 0 .3891-.185.1073-.487.1073-.673 0-.186-.1074-.186-.2818 0-.3891.186-.1074.488-.1074.673 0zM104.808 94.9841c.187.1074.187.2818 0 .3891-.185.1079-.487.1079-.673 0-.185-.1073-.185-.2817 0-.3891.186-.1073.488-.1073.673 0zM106.569 93.9662c.186.1079.186.2817 0 .3896-.186.1074-.487.1074-.673 0-.186-.1079-.186-.2817 0-.3896.186-.1074.487-.1074.673 0zM75.9671 109.236c.1855-.108.487-.108.6736-.001.1861.107.1867.281.0011.389-.1855.108-.487.108-.6731 0-.1866-.107-.1872-.281-.0016-.388zM78.4032 108.216c.1861.108.1861.282 0 .389-.1861.108-.4875.108-.6731 0-.1861-.107-.1861-.281 0-.389.1856-.107.487-.107.6731 0zM80.1635 107.198c.1861.108.1861.282 0 .389-.1861.108-.487.108-.6731 0-.1861-.107-.1861-.281 0-.389.1861-.107.487-.107.6731 0zM81.9238 106.18c.1861.108.1861.282 0 .39-.1856.107-.487.107-.6731 0-.1861-.108-.1861-.282 0-.39.1861-.107.4875-.107.6731 0zM83.6846 105.163c.1855.107.1855.281 0 .389-.1861.108-.4876.108-.6736 0-.1861-.108-.1861-.282 0-.389.186-.108.4875-.108.6736 0zM85.4449 104.145c.1855.107.1855.281 0 .389-.1861.108-.4876.108-.6737 0s-.1861-.282 0-.389c.1861-.108.4876-.108.6737 0zM87.2051 103.127c.1861.108.1861.282 0 .389-.1861.108-.4875.108-.6736 0-.1856-.107-.1856-.281 0-.389.1861-.108.4875-.108.6736 0zM88.9654 102.109c.1861.108.1861.282 0 .389-.1861.108-.4875.108-.6731 0-.1861-.107-.1861-.281 0-.389.1856-.107.487-.107.6731 0zM90.7257 101.091c.1861.108.1861.282 0 .389-.1861.108-.4875.108-.6731.001-.1861-.108-.1861-.282 0-.39.1856-.107.487-.107.6731 0zM92.486 100.073c.1861.108.1861.282 0 .389-.1856.108-.487.108-.6731 0-.1861-.107-.1861-.281 0-.389.1861-.107.4875-.107.6731 0zM94.2468 99.0554c.1856.1079.1856.2817 0 .3896-.1861.1074-.4875.1074-.6736 0-.1861-.1079-.1861-.2817 0-.3896.1861-.1074.4875-.1074.6736 0zM96.0071 98.0374c.1855.1079.1855.2823 0 .3897-.1861.1073-.4876.1073-.6737 0-.1855-.1074-.1855-.2818 0-.3897.1861-.1073.4876-.1073.6737 0zM97.7674 97.02c.1861.1074.1861.2818 0 .3891-.1861.1074-.4876.1074-.6731 0-.1861-.1073-.1861-.2817 0-.3891.1855-.1079.487-.1079.6731 0zM99.5276 96.0021c.1861.1073.1861.2817 0 .3891-.1861.1073-.4875.1073-.673 0-.1861-.1074-.1861-.2818 0-.3891.1855-.1074.4869-.1074.673 0zM101.288 94.9841c.186.1074.186.2818 0 .3891-.186.1079-.487.1079-.673 0-.186-.1073-.186-.2817 0-.3891.186-.1073.487-.1073.673 0zM103.048 93.9662c.186.1079.186.2817 0 .3896-.185.1074-.487.1074-.673 0-.186-.1079-.186-.2817 0-.3896.186-.1074.488-.1074.673 0zM104.808 92.9482c.187.1079.187.2818 0 .3897-.185.1073-.487.1073-.673 0-.185-.1079-.185-.2818 0-.3897.186-.1073.488-.1073.673 0zM74.2068 108.217c.1856-.107.487-.107.6737 0 .186.107.1866.282.001.389-.1855.108-.4869.108-.673.001-.1867-.107-.1872-.282-.0017-.39zM76.6429 107.198c.1861.108.1861.282 0 .389-.1861.108-.4875.108-.6731 0-.1861-.107-.1861-.281 0-.389.1856-.107.487-.107.6731 0zM78.4032 106.18c.1861.108.1861.282 0 .39-.1861.107-.4875.107-.6731 0-.1861-.108-.1861-.282 0-.39.1856-.107.487-.107.6731 0zM80.1635 105.163c.1861.107.1861.281 0 .389-.1861.108-.487.108-.6731 0-.1861-.108-.1861-.282 0-.389.1861-.108.4875-.108.6731 0zM81.9238 104.145c.1861.107.1861.281 0 .389-.1856.108-.487.108-.6731 0-.1861-.108-.1861-.282 0-.389.1861-.108.4875-.108.6731 0zM83.6846 103.127c.1855.108.1855.282 0 .389-.1861.108-.4876.108-.6736 0-.1861-.107-.1861-.281 0-.389.186-.108.4875-.108.6736 0zM85.4449 102.109c.1855.108.1855.282 0 .389-.1861.108-.4876.108-.6737 0-.1855-.107-.1855-.281 0-.389.1861-.107.4876-.107.6737 0zM87.2051 101.091c.1861.108.1861.282 0 .39-.1861.107-.4875.107-.673 0-.1861-.108-.1861-.282 0-.39.1855-.107.4869-.107.673 0zM88.9654 100.073c.1861.108.1861.282 0 .389-.1861.108-.4875.108-.6731 0-.1861-.107-.1861-.281 0-.389.1856-.107.487-.107.6731 0zM90.7257 99.0554c.1861.1079.1861.2817 0 .3896-.1861.1074-.4875.1074-.6731 0-.1861-.1079-.1861-.2817 0-.3896.1856-.1074.487-.1074.6731 0zM92.486 98.0374c.1861.1079.1861.2823 0 .3897-.1856.1073-.487.1073-.6731 0-.1861-.1074-.1861-.2818 0-.3897.1861-.1073.4875-.1073.6731 0zM94.2468 97.02c.1856.1074.1856.2818 0 .3891-.1861.1074-.4875.1074-.6736 0-.1861-.1073-.1861-.2817 0-.3891.1861-.1079.4875-.1079.6736 0zM96.0071 96.0021c.1855.1073.1855.2817 0 .3891-.1861.1073-.4876.1073-.6737 0-.1855-.1074-.1855-.2818 0-.3891.1861-.1074.4876-.1074.6737 0zM97.7674 94.9841c.1861.1074.1861.2818 0 .3891-.1861.1079-.4876.1079-.6731 0-.1861-.1073-.1861-.2817 0-.3891.1855-.1073.487-.1073.6731 0zM99.5276 93.9662c.1861.1079.1861.2817 0 .3896-.1861.1074-.4875.1074-.673 0-.1861-.1079-.1861-.2817 0-.3896.1855-.1074.4869-.1074.673 0zM101.288 92.9482c.186.1079.186.2818 0 .3897-.186.1073-.487.1073-.673 0-.186-.1079-.186-.2818 0-.3897.186-.1073.487-.1073.673 0zM103.048 91.9308c.186.1074.186.2818 0 .3891-.185.1074-.487.1074-.673 0-.186-.1073-.186-.2817 0-.3891.186-.1079.488-.1079.673 0zM72.4465 107.199c.1856-.107.487-.107.6731 0 .1867.107.1872.282.0017.389-.1856.108-.487.108-.6737.001-.1861-.107-.1866-.282-.0011-.39zM74.8826 106.18c.1856.108.1856.282 0 .39-.1861.107-.4875.107-.6736 0-.1856-.108-.1856-.282 0-.39.1861-.107.4875-.107.6736 0zM76.6429 105.163c.1861.107.1861.281 0 .389-.1861.108-.4875.108-.6731 0-.1861-.108-.1861-.282 0-.389.1856-.108.487-.108.6731 0zM78.4032 104.145c.1861.107.1861.281 0 .389-.1861.108-.4875.108-.6731 0-.1861-.108-.1861-.282 0-.389.1856-.108.487-.108.6731 0zM80.1635 103.127c.1861.108.1861.282 0 .389-.1856.108-.487.108-.6731 0-.1861-.107-.1861-.281 0-.389.1861-.108.4875-.108.6731 0zM81.9238 102.109c.1861.108.1861.282 0 .389-.1856.108-.487.108-.6731 0-.1861-.107-.1861-.281 0-.389.1861-.107.4875-.107.6731 0zM83.6846 101.091c.1855.108.1855.282 0 .39-.1861.107-.4876.107-.6736 0-.1861-.108-.1861-.282 0-.39.186-.107.4875-.107.6736 0zM85.4449 100.073c.1855.108.1855.282 0 .389-.1861.108-.4876.108-.6737 0-.1855-.107-.1855-.281 0-.389.1861-.107.4876-.107.6737 0zM87.2051 99.0554c.1861.1079.1861.2817 0 .3896-.1861.1074-.4875.1074-.673 0-.1861-.1079-.1861-.2817 0-.3896.1855-.1074.4869-.1074.673 0zM88.9654 98.0374c.1861.1079.1861.2823 0 .3897-.1861.1073-.4875.1073-.6731 0-.1861-.1074-.1861-.2818 0-.3897.1856-.1073.487-.1073.6731 0zM90.7257 97.02c.1861.1074.1861.2818 0 .3891-.1861.1074-.487.1074-.6731 0-.1861-.1073-.1861-.2817 0-.3891.1861-.1079.487-.1079.6731 0zM92.486 96.0021c.1861.1073.1861.2817 0 .3891-.1856.1073-.487.1073-.6731 0-.1861-.1074-.1861-.2818 0-.3891.1861-.1074.4875-.1074.6731 0zM94.2468 94.9841c.1856.1074.1856.2818 0 .3891-.1861.1079-.4875.1079-.6736 0-.1861-.1073-.1861-.2817 0-.3891.1861-.1073.4875-.1073.6736 0zM96.0071 93.9662c.1855.1079.1855.2817 0 .3896-.1861.1074-.4876.1074-.6737 0-.1855-.1079-.1855-.2817 0-.3896.1861-.1074.4876-.1074.6737 0zM97.7674 92.9482c.1861.1079.1861.2823 0 .3897-.1861.1073-.4876.1073-.6731 0-.1861-.1074-.1861-.2818 0-.3897.1855-.1073.487-.1073.6731 0zM99.5276 91.9308c.1861.1074.1861.2818 0 .3891-.1861.1074-.4875.1074-.673 0-.1861-.1073-.1861-.2817 0-.3891.1855-.1079.4869-.1079.673 0zM101.288 90.9129c.186.1073.186.2817 0 .3891-.186.1073-.487.1073-.673 0-.186-.1074-.186-.2818 0-.3891.186-.1079.487-.1079.673 0zM70.6863 106.182c.1855-.108.487-.108.673-.001.1867.107.1872.282.0011.39-.1855.107-.4864.108-.673 0-.1861-.107-.1867-.282-.0011-.389zM73.1218 105.163c.1861.107.1861.281 0 .389-.1855.108-.487.108-.6731 0-.1855-.108-.1855-.282 0-.389.1861-.108.4876-.108.6731 0zM74.8826 104.145c.1856.107.1856.282 0 .389-.1861.108-.4875.108-.6736 0-.1856-.107-.1856-.282 0-.389.1861-.108.4875-.108.6736 0zM76.6429 103.127c.1861.108.1861.282 0 .389-.1861.108-.4875.108-.6731 0-.1861-.107-.1861-.281 0-.389.1856-.108.487-.108.6731 0zM78.4032 102.109c.1861.108.1861.282 0 .389-.1861.108-.4875.108-.6731 0-.1861-.107-.1861-.281 0-.389.1856-.107.487-.107.6731 0zM80.1635 101.091c.1861.108.1861.282 0 .39-.1856.107-.487.107-.6731 0-.1861-.108-.1861-.282 0-.39.1861-.107.4875-.107.6731 0zM81.9238 100.073c.1861.108.1861.282 0 .389-.1856.108-.487.108-.6731 0-.1861-.107-.1861-.281 0-.389.1861-.107.4875-.107.6731 0zM83.6846 99.0554c.1855.1079.1855.2817 0 .3896-.1861.1074-.4876.1074-.6736 0-.1861-.1079-.1861-.2817 0-.3896.186-.1074.4875-.1074.6736 0zM85.4449 98.0374c.1861.1079.1861.2823 0 .3897-.1861.1073-.4876.1073-.6737 0-.1855-.1074-.1855-.2818 0-.3897.1861-.1073.4876-.1073.6737 0zM87.2051 97.02c.1861.1074.1861.2818 0 .3891-.1861.1074-.4875.1074-.673 0-.1861-.1073-.1861-.2817 0-.3891.1855-.1079.4869-.1079.673 0zM88.9654 96.0021c.1861.1073.1861.2817 0 .3891-.1861.1073-.4875.1073-.6731 0-.1861-.1074-.1861-.2818 0-.3891.1856-.1074.487-.1074.6731 0zM90.7257 94.9841c.1861.1074.1861.2818 0 .3897-.1861.1073-.487.1073-.6731 0-.1861-.1079-.1861-.2823 0-.3897.1861-.1073.487-.1073.6731 0zM92.486 93.9662c.1861.1079.1861.2817 0 .3896-.1856.1074-.487.1074-.6731 0-.1861-.1079-.1861-.2817 0-.3896.1861-.1074.4875-.1074.6731 0zM94.2468 92.9482c.1856.1079.1856.2823 0 .3897-.1861.1073-.4875.1073-.6736 0-.1856-.1074-.1856-.2818 0-.3897.1861-.1073.4875-.1073.6736 0zM96.0071 91.9308c.1855.1074.1855.2818 0 .3891-.1861.1074-.4876.1074-.6731 0-.1861-.1073-.1861-.2817 0-.3891.1855-.1079.487-.1079.6731 0zM97.7674 90.9129c.1861.1073.1861.2817 0 .3891-.1861.1073-.4876.1073-.6731 0-.1861-.1074-.1861-.2818 0-.3891.1855-.1079.487-.1079.6731 0zM99.5276 89.8949c.1861.1074.1861.2818 0 .3891-.1855.1079-.4875.1079-.673 0-.1861-.1073-.1861-.2817 0-.3891.1855-.1073.4875-.1073.673 0zM68.926 105.164c.1855-.108.487-.108.6731-.001.1861.107.1866.282.0011.39-.1856.107-.487.108-.6731 0-.1861-.107-.1867-.281-.0011-.389zM71.3615 104.145c.1861.107.1861.282 0 .389-.1855.108-.487.108-.6731 0-.1855-.107-.1855-.282 0-.389.1861-.108.4876-.108.6731 0zM73.1224 103.127c.1855.108.1855.282 0 .389-.1861.108-.4876.108-.6737 0-.1855-.107-.1855-.281 0-.389.1861-.108.4876-.108.6737 0zM74.8826 102.109c.1856.108.1856.282 0 .389-.1861.108-.4875.108-.6736 0-.1856-.107-.1856-.281 0-.389.1861-.107.4875-.107.6736 0zM76.6429 101.091c.1861.108.1861.282 0 .39-.1861.107-.4875.107-.6731 0-.1861-.108-.1861-.282 0-.39.1856-.107.487-.107.6731 0zM78.4032 100.073c.1861.108.1861.282 0 .389-.1861.108-.4875.108-.6731 0-.1861-.107-.1861-.281 0-.389.1856-.107.487-.107.6731 0zM80.1635 99.0554c.1861.1079.1861.2817 0 .3896-.1856.1074-.487.1074-.6731 0-.1861-.1079-.1861-.2817 0-.3896.1861-.1074.4875-.1074.6731 0zM81.9238 98.0374c.1861.1079.1861.2823 0 .3897-.1856.1073-.487.1073-.6731 0-.1861-.1074-.1861-.2818 0-.3891.1861-.1079.4875-.1079.6731-.0006zM83.6846 97.02c.1855.1074.1855.2818 0 .3891-.1861.1079-.4876.1079-.6737 0-.1855-.1073-.1855-.2817 0-.3891.1861-.1079.4876-.1079.6737 0zM85.4449 96.0021c.1861.1073.1861.2817 0 .3891-.1861.1073-.4876.1073-.6737 0-.1855-.1074-.1855-.2818 0-.3891.1861-.1074.4876-.1074.6737 0zM87.2051 94.9841c.1861.1074.1861.2818 0 .3897-.1861.1073-.4875.1073-.673 0-.1861-.1079-.1861-.2823 0-.3897.1855-.1073.4869-.1073.673 0zM88.9654 93.9662c.1861.1079.1861.2817 0 .3896-.1861.1074-.4875.1074-.6731 0-.1861-.1079-.1861-.2817 0-.3896.1856-.1074.487-.1074.6731 0zM90.7257 92.9482c.1861.1079.1861.2823 0 .3897-.1861.1073-.487.1073-.6731 0-.1861-.1074-.1861-.2818 0-.3897.1861-.1073.487-.1073.6731 0zM92.486 91.9308c.1861.1074.1861.2818 0 .3891-.1856.1074-.487.1074-.6731 0-.1861-.1073-.1861-.2817 0-.3891.1861-.1079.4875-.1079.6731 0zM94.2468 90.9129c.1856.1073.1856.2817 0 .3891-.1861.1073-.4875.1073-.6736 0-.1856-.1074-.1856-.2818 0-.3891.1861-.1079.4875-.1079.6736 0zM96.0071 89.8949c.1855.1074.1855.2818 0 .3891-.1861.1079-.4876.1079-.6731 0-.1861-.1073-.1861-.2817 0-.3891.1855-.1073.487-.1073.6731 0zM97.7674 88.877c.1861.1073.1861.2817 0 .3896-.1861.1074-.4876.1074-.6731 0-.1861-.1079-.1861-.2823 0-.3896.1855-.1074.487-.1074.6731 0zM67.1657 104.146c.1856-.108.487-.108.6731 0 .1861.107.1866.281.0011.389-.1856.108-.487.108-.6731 0-.1861-.107-.1866-.281-.0011-.389zM69.6012 103.127c.1861.108.1861.282 0 .389-.1855.108-.4869.108-.673 0-.1861-.107-.1861-.281 0-.389.1861-.108.4875-.108.673 0zM71.3615 102.109c.1861.108.1861.282 0 .389-.1855.108-.487.108-.6731 0-.1855-.107-.1855-.281 0-.389.1861-.107.4876-.107.6731 0zM73.1224 101.091c.1855.108.1855.282 0 .39-.1861.107-.4876.107-.6737 0-.1855-.108-.1855-.282 0-.39.1861-.107.4876-.107.6737 0zM74.8826 100.073c.1856.108.1856.282 0 .389-.1861.108-.4875.108-.6736 0-.1856-.107-.1856-.281 0-.389.1861-.107.4875-.107.6736 0zM76.6429 99.0554c.1861.1079.1861.2817 0 .3896-.1861.1074-.4875.1074-.6731 0-.1861-.1079-.1861-.2817 0-.3896.1856-.1074.487-.1074.6731 0zM78.4032 98.038c.1861.1073.1861.2817 0 .3891-.1855.1073-.4875.1073-.6731 0-.1861-.1074-.1861-.2818 0-.3891.1856-.1079.4876-.1079.6731 0zM80.1635 97.02c.1861.1074.1861.2818 0 .3891-.1856.1079-.487.1079-.6731 0-.1861-.1073-.1861-.2817 0-.3891.1861-.1079.4875-.1079.6731 0zM81.9238 96.0021c.1861.1073.1861.2817 0 .3891-.1856.1073-.487.1073-.6731 0-.1861-.1074-.1861-.2818 0-.3891.1861-.1074.4875-.1074.6731 0zM83.6846 94.9841c.1855.1074.1855.2818 0 .3897-.1861.1073-.4876.1073-.6737 0-.1855-.1079-.1855-.2823 0-.3897.1861-.1073.4876-.1073.6737 0zM85.4449 93.9662c.1861.1079.1861.2817 0 .3896-.1861.1074-.4876.1074-.6737 0-.1855-.1079-.1855-.2817 0-.3896.1861-.1074.4876-.1074.6737 0zM87.2051 92.9482c.1861.1079.1861.2823 0 .3897-.1861.1073-.4875.1073-.673 0-.1861-.1074-.1861-.2818 0-.3897.1855-.1073.4869-.1073.673 0zM88.9654 91.9308c.1861.1074.1861.2818 0 .3891-.1861.1074-.487.1074-.6731 0-.1861-.1073-.1861-.2817 0-.3891.1861-.1079.487-.1079.6731 0zM90.7257 90.9129c.1861.1073.1861.2817 0 .3891-.1855.1073-.487.1073-.6731 0-.1861-.1074-.1861-.2818 0-.3891.1861-.1079.4876-.1079.6731 0zM92.4865 89.8949c.1856.1074.1856.2818 0 .3891-.1861.1079-.4875.1079-.6736 0-.1861-.1073-.1861-.2817 0-.3891.1861-.1073.4875-.1073.6736 0zM94.2468 88.877c.1856.1073.1856.2817 0 .3896-.1861.1074-.4875.1074-.6736 0-.1856-.1079-.1856-.2823 0-.3896.1861-.1074.4875-.1074.6736 0zM96.0071 87.859c.1855.1079.1855.2818 0 .3897-.1861.1073-.4876.1073-.6731 0-.1861-.1079-.1861-.2818 0-.3897.1855-.1073.487-.1073.6731 0zM65.4049 103.128c.1855-.107.487-.108.6736 0 .1861.107.1867.281.0011.389-.1855.108-.487.108-.6731 0-.1866-.106-.1872-.281-.0016-.389zM67.841 102.109c.1861.108.1861.282 0 .389-.1856.108-.4876.108-.6731 0-.1861-.107-.1861-.281 0-.389.1855-.107.4875-.107.6731 0zM69.6012 101.091c.1861.108.1861.282 0 .39-.1855.107-.4869.107-.673 0-.1861-.108-.1861-.282 0-.39.1861-.107.4875-.107.673 0zM71.3615 100.073c.1861.108.1861.282 0 .389-.1855.108-.487.108-.6731 0-.1855-.107-.1855-.281 0-.389.1861-.107.4876-.107.6731 0zM73.1224 99.0554c.1855.1079.1855.2817 0 .3896-.1861.1074-.4876.1074-.6737 0-.1855-.1079-.1855-.2817 0-.3896.1861-.1074.4876-.1074.6737 0zM74.8826 98.038c.1856.1073.1856.2817 0 .3891-.1861.1073-.4875.1073-.6736 0-.1856-.1074-.1856-.2818 0-.3891.1861-.1079.4875-.1079.6736 0zM76.6429 97.02c.1861.1074.1861.2818 0 .3891-.1861.1079-.4875.1079-.6731 0-.1861-.1073-.1861-.2817 0-.3891.1856-.1073.487-.1073.6731 0zM78.4032 96.0021c.1861.1073.1861.2817 0 .3891-.1855.1073-.4875.1073-.6731 0-.1861-.1074-.1861-.2818 0-.3891.1856-.1074.4876-.1074.6731 0zM80.1635 94.9841c.1861.1074.1861.2818 0 .3897-.1856.1073-.487.1073-.6731 0-.1861-.1079-.1861-.2823 0-.3897.1861-.1073.4875-.1073.6731 0zM81.9243 93.9662c.1856.1079.1856.2817 0 .3896-.1861.1074-.4875.1074-.6736 0-.1861-.1079-.1861-.2817 0-.3896.1861-.1074.4875-.1074.6736 0zM83.6846 92.9482c.1855.1079.1855.2823 0 .3897-.1861.1073-.4876.1073-.6737 0-.1855-.1074-.1855-.2818 0-.3897.1861-.1073.4876-.1073.6737 0zM85.4449 91.9308c.1861.1074.1861.2818 0 .3891-.1861.1074-.4876.1074-.6737 0-.1855-.1073-.1855-.2817 0-.3891.1861-.1079.4876-.1079.6737 0zM87.2051 90.9129c.1861.1073.1861.2817 0 .3891-.1861.1073-.4875.1073-.673 0-.1861-.1074-.1861-.2818 0-.3891.1855-.1079.4869-.1079.673 0zM88.9654 89.8949c.1861.1074.1861.2818 0 .3891-.1861.1079-.487.1079-.6731 0-.1861-.1073-.1861-.2817 0-.3891.1861-.1073.487-.1073.6731 0zM90.7257 88.877c.1861.1073.1861.2817 0 .3896-.1855.1074-.487.1074-.6731 0-.1861-.1079-.1861-.2823 0-.3896.1861-.1074.4876-.1074.6731 0zM92.4865 87.859c.1856.1079.1856.2818 0 .3897-.1861.1073-.4875.1073-.6736 0-.1856-.1079-.1856-.2818 0-.3897.1861-.1073.4875-.1073.6736 0zM94.2468 86.8411c.1856.1079.1856.2823 0 .3896-.1861.1074-.4875.1074-.6736 0-.1856-.1073-.1856-.2817 0-.3896.1861-.1074.4875-.1074.6736 0zM108.321 92.9591c.186.1074.186.2818 0 .3897-.186.1073-.487.1073-.673 0-.186-.1079-.186-.2823 0-.3897.186-.1073.487-.1073.673 0zM110.082 91.9412c.186.1073.186.2817 0 .3896-.186.1074-.488.1074-.673 0-.186-.1079-.186-.2823 0-.3896.185-.1074.487-.1074.673 0zM111.842 90.9232c.186.1079.186.2823 0 .3897-.186.1073-.488.1073-.673 0-.186-.1074-.186-.2818 0-.3897.185-.1073.487-.1073.673 0zM113.602 89.9058c.186.1074.186.2818 0 .3891-.185.1074-.487.1074-.673 0-.186-.1073-.186-.2817 0-.3891.186-.1079.488-.1079.673 0zM115.363 88.8879c.186.1073.186.2817 0 .3891-.186.1073-.487.1073-.674 0-.186-.1074-.186-.2818 0-.3891.187-.1079.488-.1079.674 0zM117.123 87.8699c.186.1074.186.2818 0 .3891-.186.1079-.487.1079-.673 0-.186-.1073-.186-.2817 0-.3891.186-.1073.487-.1073.673 0zM118.884 86.852c.185.1073.185.2817 0 .3896-.186.1074-.488.1074-.674 0-.186-.1079-.186-.2823 0-.3896.186-.1074.488-.1074.674 0zM120.644 85.834c.186.1079.186.2818 0 .3897-.186.1073-.488.1073-.673 0-.186-.1079-.186-.2818 0-.3897.185-.1073.487-.1073.673 0zM122.404 84.8166c.186.1074.186.2818 0 .3891-.186.1074-.487.1074-.673 0-.186-.1073-.186-.2817 0-.3891.186-.1079.487-.1079.673 0zM106.561 91.9412c.186.1073.186.2817 0 .3896-.186.1074-.487.1074-.673 0-.187-.1079-.187-.2823 0-.3896.186-.1074.487-.1074.673 0zM108.321 90.9232c.186.1079.186.2823 0 .3897-.186.1073-.487.1073-.673 0-.186-.1074-.186-.2818 0-.3897.186-.1073.487-.1073.673 0zM110.082 89.9058c.186.1074.186.2818 0 .3891-.186.1074-.488.1074-.673 0-.186-.1073-.186-.2817 0-.3891.185-.1079.487-.1079.673 0zM111.842 88.8879c.186.1073.186.2817 0 .3891-.186.1073-.488.1073-.673 0-.186-.1074-.186-.2818 0-.3891.185-.1079.487-.1079.673 0zM113.602 87.8699c.186.1074.186.2818 0 .3891-.185.1079-.487.1079-.673 0-.186-.1073-.186-.2817 0-.3891.186-.1073.488-.1073.673 0zM115.363 86.852c.186.1073.186.2817 0 .3896-.186.1074-.487.1074-.674 0-.186-.1079-.186-.2823 0-.3896.187-.1074.488-.1074.674 0zM117.123 85.834c.186.1079.186.2818 0 .3897-.186.1073-.487.1073-.673 0-.186-.1079-.186-.2818 0-.3897.186-.1073.487-.1073.673 0zM118.884 84.8166c.185.1074.185.2818 0 .3891-.186.1074-.488.1074-.674 0-.186-.1073-.186-.2817 0-.3891.186-.1079.488-.1079.674 0zM120.644 83.7987c.186.1073.186.2817 0 .3891-.186.1073-.488.1073-.673 0-.186-.1074-.186-.2818 0-.3891.185-.1079.487-.1079.673 0zM122.404 82.7807c.186.1074.186.2818 0 .3891-.186.1079-.487.1079-.673 0-.186-.1073-.186-.2817 0-.3891.186-.1073.487-.1073.673 0zM104.801 90.9232c.185.1079.185.2823 0 .3897-.186.1073-.488.1073-.674 0-.186-.1074-.186-.2818 0-.3897.186-.1073.488-.1073.674 0zM106.561 89.9058c.186.1074.186.2818 0 .3891-.186.1074-.487.1074-.673 0-.187-.1073-.187-.2817 0-.3891.186-.1079.487-.1079.673 0zM108.321 88.8879c.187.1073.187.2817 0 .3891-.186.1073-.487.1073-.673 0-.186-.1074-.186-.2818 0-.3891.186-.1079.487-.1079.673 0zM110.082 87.8699c.186.1074.186.2818 0 .3891-.186.1079-.488.1079-.673 0-.186-.1073-.186-.2817 0-.3891.185-.1073.487-.1073.673 0zM111.842 86.852c.186.1073.186.2817 0 .3896-.186.1074-.488.1074-.673 0-.186-.1079-.186-.2823 0-.3896.185-.1074.487-.1074.673 0zM113.602 85.834c.186.1079.186.2818 0 .3897-.185.1073-.487.1073-.673 0-.186-.1079-.186-.2818 0-.3897.186-.1073.488-.1073.673 0zM115.363 84.8166c.186.1074.186.2818 0 .3891-.186.1074-.487.1074-.674 0-.186-.1073-.186-.2817 0-.3891.187-.1079.488-.1079.674 0zM117.123 83.7987c.186.1073.186.2817 0 .3891-.186.1073-.487.1073-.673 0-.186-.1074-.186-.2818 0-.3891.186-.1079.487-.1079.673 0zM118.884 82.7807c.185.1074.185.2818 0 .3891-.186.1079-.488.1079-.673 0-.187-.1073-.187-.2817 0-.3891.185-.1073.487-.1073.673 0zM120.644 81.7628c.186.1073.186.2817 0 .3891-.186.1079-.488.1079-.673 0-.186-.1074-.186-.2818 0-.3891.185-.1074.487-.1074.673 0zM122.404 80.7448c.186.1074.186.2818 0 .3897-.186.1073-.487.1073-.673 0-.186-.1079-.186-.2823 0-.3897.186-.1073.487-.1073.673 0zM103.04 89.9058c.186.1074.186.2818 0 .3891-.186.1074-.487.1074-.673 0-.186-.1073-.186-.2817 0-.3891.186-.1079.487-.1079.673 0zM104.801 88.8879c.185.1073.185.2817 0 .3891-.186.1073-.488.1073-.674 0-.186-.1074-.186-.2818 0-.3891.186-.1079.488-.1079.674 0zM106.561 87.8699c.186.1074.186.2818 0 .3891-.186.1079-.487.1079-.673 0-.186-.1073-.186-.2817 0-.3891.186-.1073.487-.1073.673 0zM108.321 86.852c.187.1073.187.2817 0 .3896-.186.1074-.487.1074-.673 0-.186-.1079-.186-.2823 0-.3896.186-.1074.487-.1074.673 0zM110.082 85.834c.186.1079.186.2818 0 .3897-.186.1073-.488.1073-.673 0-.186-.1079-.186-.2818 0-.3897.185-.1073.487-.1073.673 0zM111.842 84.8166c.186.1074.186.2818 0 .3891-.186.1074-.488.1074-.673 0-.186-.1073-.186-.2817 0-.3891.185-.1079.487-.1079.673 0zM113.602 83.7987c.186.1073.186.2817 0 .3891-.185.1073-.487.1073-.673 0-.186-.1074-.186-.2818 0-.3891.186-.1079.488-.1079.673 0zM115.363 82.7807c.186.1074.186.2818 0 .3891-.186.1079-.487.1079-.674 0-.186-.1073-.186-.2817 0-.3891.187-.1073.488-.1073.674 0zM117.123 81.7628c.186.1073.186.2817 0 .3891-.186.1079-.487.1079-.673 0-.186-.1074-.186-.2818 0-.3891.186-.1074.487-.1074.673 0zM118.884 80.7448c.185.1074.185.2818 0 .3897-.186.1073-.488.1073-.673 0-.187-.1079-.187-.2823 0-.3897.185-.1073.487-.1073.673 0zM120.644 79.7269c.186.1079.186.2817 0 .3896-.186.1074-.488.1074-.673 0-.186-.1079-.186-.2817 0-.3896.185-.1074.487-.1074.673 0zM122.404 78.7095c.186.1073.186.2817 0 .3891-.186.1073-.487.1073-.673 0-.186-.1074-.186-.2818 0-.3891.186-.1079.487-.1079.673 0zM101.28 88.8879c.186.1073.186.2817 0 .3891-.186.1079-.488.1079-.673 0-.186-.1074-.186-.2818 0-.3891.185-.1079.487-.1079.673 0zM103.04 87.8699c.186.1074.186.2818 0 .3891-.186.1079-.487.1079-.673 0-.186-.1073-.186-.2817 0-.3891.186-.1073.487-.1073.673 0zM104.801 86.852c.185.1073.185.2817 0 .3896-.186.1074-.488.1074-.674 0-.186-.1079-.186-.2823 0-.3896.186-.1074.488-.1074.674 0zM106.561 85.834c.186.1079.186.2823 0 .3897-.186.1073-.487.1073-.673 0-.186-.1074-.186-.2818 0-.3897.186-.1073.487-.1073.673 0zM108.321 84.8166c.187.1074.187.2818 0 .3891-.186.1074-.487.1074-.673 0-.186-.1073-.186-.2817 0-.3891.186-.1079.487-.1079.673 0zM110.082 83.7987c.186.1073.186.2817 0 .3891-.186.1073-.488.1073-.673 0-.186-.1074-.186-.2818 0-.3891.185-.1079.487-.1079.673 0zM111.842 82.7807c.186.1074.186.2818 0 .3891-.186.1079-.487.1079-.673 0-.186-.1073-.186-.2817 0-.3891.186-.1073.487-.1073.673 0zM113.602 81.7628c.186.1073.186.2817 0 .3891-.185.1079-.487.1079-.673 0-.186-.1074-.186-.2818 0-.3891.186-.1074.488-.1074.673 0zM115.363 80.7448c.186.1079.186.2818 0 .3897-.186.1073-.487.1073-.674 0-.186-.1079-.186-.2818 0-.3897.187-.1073.488-.1073.674 0zM117.123 79.7269c.186.1079.186.2817 0 .3896-.186.1074-.487.1074-.673 0-.186-.1079-.186-.2817 0-.3896.186-.1074.487-.1074.673 0zM118.884 78.7095c.185.1073.185.2817 0 .3891-.186.1073-.488.1073-.673 0-.187-.1074-.187-.2818 0-.3891.185-.1079.487-.1079.673 0zM120.644 77.6915c.186.1074.186.2818 0 .3891-.186.1074-.488.1074-.673 0-.186-.1073-.186-.2817 0-.3891.185-.1079.487-.1079.673 0zM122.404 76.6736c.186.1073.186.2817 0 .3891-.186.1073-.487.1073-.673 0-.186-.1074-.186-.2818 0-.3891.186-.1074.487-.1074.673 0zM99.5195 87.8699c.1861.1074.1861.2818 0 .3891-.1861.1079-.4875.1079-.6731 0-.1861-.1073-.1861-.2817 0-.3891.1856-.1073.487-.1073.6731 0zM101.28 86.852c.186.1073.186.2817 0 .3896-.186.1074-.487.1074-.673 0-.186-.1079-.186-.2823 0-.3896.186-.1074.487-.1074.673 0zM103.04 85.834c.186.1079.186.2823 0 .3897-.186.1073-.487.1073-.673 0-.186-.1074-.186-.2818 0-.3897.186-.1073.487-.1073.673 0zM104.801 84.8166c.185.1074.185.2818 0 .3891-.186.1074-.488.1074-.674 0-.186-.1073-.186-.2817 0-.3891.186-.1079.488-.1079.674 0zM106.561 83.7987c.186.1073.186.2817 0 .3891-.186.1073-.487.1073-.673 0-.186-.1074-.186-.2818 0-.3891.186-.1079.487-.1079.673 0zM108.321 82.7807c.187.1074.187.2818 0 .3891-.186.1079-.487.1079-.673 0-.186-.1073-.186-.2817 0-.3891.186-.1073.487-.1073.673 0zM110.082 81.7628c.186.1073.186.2817 0 .3891-.186.1079-.488.1079-.673 0-.186-.1074-.186-.2818 0-.3891.185-.1074.487-.1074.673 0zM111.842 80.7448c.186.1079.186.2818 0 .3897-.186.1073-.487.1073-.673 0-.186-.1079-.186-.2818 0-.3897.186-.1073.487-.1073.673 0zM113.602 79.7269c.186.1079.186.2817 0 .3896-.185.1074-.487.1074-.673 0-.186-.1079-.186-.2817 0-.3896.186-.1074.488-.1074.673 0zM115.363 78.7095c.186.1073.186.2817 0 .3891-.186.1073-.487.1073-.674 0-.185-.1074-.185-.2818 0-.3891.187-.1079.488-.1079.674 0zM117.123 77.6915c.186.1074.186.2818 0 .3891-.186.1074-.487.1074-.673 0-.186-.1073-.186-.2817 0-.3891.186-.1079.487-.1079.673 0zM118.884 76.6736c.186.1073.186.2817 0 .3891-.186.1073-.488.1073-.673 0-.187-.1074-.187-.2818 0-.3891.185-.1074.487-.1074.673 0zM120.644 75.6556c.186.1074.186.2818 0 .3891-.186.1079-.488.1079-.673 0-.186-.1073-.186-.2817 0-.3891.185-.1073.487-.1073.673 0zM122.404 74.6377c.186.1074.186.2817 0 .3896-.186.1074-.487.1074-.673 0-.186-.1079-.186-.2822 0-.3896s.487-.1074.673 0zM97.7592 86.852c.1855.1073.1855.2817 0 .3896-.1861.1074-.4875.1074-.6731 0-.1861-.1079-.1861-.2823 0-.3896.1856-.1074.487-.1074.6731 0zM99.5195 85.834c.1861.1079.1861.2823 0 .3897-.1861.1073-.4875.1073-.6731 0-.1861-.1074-.1861-.2818 0-.3897.1856-.1073.487-.1073.6731 0zM101.28 84.8166c.186.1074.186.2818 0 .3891-.186.1074-.487.1074-.673 0-.186-.1073-.186-.2817 0-.3891.186-.1079.487-.1079.673 0zM103.04 83.7987c.186.1073.186.2817 0 .3891-.186.1073-.487.1073-.673 0-.186-.1074-.186-.2818 0-.3891.186-.1079.487-.1079.673 0zM104.801 82.7807c.185.1074.185.2818 0 .3891-.186.1079-.488.1079-.674 0-.185-.1073-.185-.2817 0-.3891.186-.1073.488-.1073.674 0zM106.561 81.7628c.186.1073.186.2817 0 .3891-.186.1079-.487.1079-.673 0-.186-.1074-.186-.2818 0-.3891.186-.1074.487-.1074.673 0zM108.321 80.7448c.187.1079.187.2818 0 .3897-.186.1073-.487.1073-.673 0-.186-.1079-.186-.2818 0-.3897.186-.1073.487-.1073.673 0zM110.082 79.7269c.186.1079.186.2817 0 .3896-.186.1074-.488.1074-.673 0-.186-.1079-.186-.2817 0-.3896.185-.1074.487-.1074.673 0zM111.842 78.7095c.186.1073.186.2817 0 .3891-.186.1073-.487.1073-.673 0-.186-.1074-.186-.2818 0-.3891.186-.1079.487-.1079.673 0zM113.602 77.6915c.186.1074.186.2818 0 .3891-.185.1074-.487.1074-.673 0-.186-.1073-.186-.2817 0-.3891.186-.1079.488-.1079.673 0zM115.363 76.6736c.186.1073.186.2817 0 .3891-.186.1073-.487.1073-.674 0-.185-.1074-.185-.2818 0-.3891.187-.1074.488-.1074.674 0zM117.123 75.6556c.186.1074.186.2818 0 .3891-.186.1079-.487.1079-.673 0-.186-.1073-.186-.2817 0-.3891.186-.1073.487-.1073.673 0zM118.884 74.6377c.186.1074.186.2817 0 .3896-.186.1074-.488.1074-.673 0-.187-.1079-.187-.2822 0-.3896.185-.1074.487-.1074.673 0zM120.644 73.6198c.186.1078.186.2817 0 .3896-.186.1073-.488.1073-.673 0-.186-.1079-.186-.2818 0-.3896.186-.1074.487-.1074.673 0zM122.404 72.6023c.186.1074.186.2818 0 .3891-.186.1074-.487.1074-.673 0-.186-.1073-.186-.2817 0-.3891.186-.1079.488-.1079.673 0zM95.9989 85.834c.1856.1079.1856.2823 0 .3897-.1861.1073-.4875.1073-.6736 0-.1856-.1074-.1856-.2818 0-.3897.1861-.1073.4875-.1073.6736 0zM97.7592 84.8166c.1861.1074.1861.2818 0 .3891-.1861.1074-.4875.1074-.6731 0-.1861-.1073-.1861-.2817 0-.3891.1856-.1079.487-.1079.6731 0zM99.5195 83.7987c.1861.1073.1861.2817 0 .3891-.1861.1073-.4875.1073-.6731 0-.1861-.1074-.1861-.2818 0-.3891.1856-.1079.487-.1079.6731 0zM101.28 82.7807c.186.1074.186.2818 0 .3891-.186.1079-.487.1079-.673 0-.186-.1073-.186-.2817 0-.3891.186-.1073.487-.1073.673 0zM103.04 81.7628c.186.1073.186.2817 0 .3891-.186.1079-.487.1079-.673 0-.186-.1074-.186-.2818 0-.3891.186-.1074.487-.1074.673 0zM104.801 80.7448c.185.1079.185.2818 0 .3897-.186.1073-.488.1073-.674 0-.185-.1079-.185-.2818 0-.3897.186-.1073.488-.1073.674 0zM106.561 79.7269c.186.1079.186.2817 0 .3896-.186.1074-.487.1074-.673 0-.186-.1079-.186-.2817 0-.3896.186-.1074.487-.1074.673 0zM108.321 78.7095c.187.1073.187.2817 0 .3891-.186.1073-.487.1073-.673 0-.186-.1074-.186-.2818 0-.3891.186-.1079.487-.1079.673 0zM110.082 77.6915c.186.1074.186.2818 0 .3891-.186.1074-.488.1074-.673 0-.186-.1073-.186-.2817 0-.3891.186-.1079.487-.1079.673 0zM111.842 76.6736c.186.1073.186.2817 0 .3891-.186.1073-.487.1073-.673 0-.186-.1074-.186-.2818 0-.3891.186-.1074.487-.1074.673 0zM113.602 75.6556c.186.1074.186.2818 0 .3891-.185.1079-.487.1079-.673 0-.186-.1073-.186-.2817 0-.3891.186-.1073.488-.1073.673 0zM115.363 74.6377c.186.1079.186.2817 0 .3896-.186.1074-.487.1074-.674 0-.185-.1079-.185-.2817 0-.3896.187-.1074.488-.1074.674 0zM117.123 73.6198c.186.1078.186.2817 0 .3896-.186.1073-.487.1073-.673 0-.186-.1079-.186-.2818 0-.3896.186-.1074.487-.1074.673 0zM118.884 72.6023c.186.1074.186.2818 0 .3891-.186.1074-.488.1074-.673 0-.187-.1073-.187-.2817 0-.3891.185-.1079.487-.1079.673 0zM120.644 71.5844c.186.1074.186.2817 0 .3891-.186.1073-.487.1073-.673 0-.186-.1074-.186-.2817 0-.3891s.487-.1074.673 0zM122.404 70.5665c.186.1073.186.2817 0 .389-.185.1079-.487.1079-.673 0-.186-.1073-.186-.2817 0-.389.186-.1074.488-.1074.673 0zM118.868 70.5556c.187.1079.187.2817 0 .3896-.186.1073-.487.1073-.673 0-.186-.1079-.186-.2817 0-.3896.186-.1074.487-.1074.673 0zM120.629 69.5382c.186.1073.186.2817 0 .389-.186.1074-.487.1074-.673 0-.186-.1073-.186-.2817 0-.389.186-.1079.487-.1079.673 0zM122.326 60.5532c.185.1073.185.2817 0 .3891-.186.1079-.488.1079-.674 0-.185-.1074-.185-.2818 0-.3891.186-.1074.488-.1074.674 0zM122.326 58.5173c.185.1079.185.2823 0 .3896-.186.1074-.488.1074-.674 0-.185-.1073-.185-.2817 0-.3896.186-.1074.488-.1074.674 0zM121.719 68.5344c.186-.1074.487-.1079.673-.0006.187.1074.187.2818.001.3891-.185.1079-.487.1079-.673.0011-.186-.1074-.186-.2817-.001-.3896zM119.959 67.517c.185-.1079.487-.1085.673-.0011.186.1073.187.2817.001.3896-.185.1074-.487.1079-.673.0006-.186-.1074-.187-.2818-.001-.3891zM122.394 66.4974c.187.1073.187.2817 0 .3891-.185.1079-.487.1079-.673 0-.186-.1074-.186-.2818 0-.3891.186-.1074.488-.1074.673 0zM120.634 65.4794c.186.1079.186.2818 0 .3897-.186.1073-.487.1073-.673 0-.186-.1079-.186-.2818 0-.3897.186-.1073.487-.1073.673 0zM122.394 64.462c.187.1074.187.2818 0 .3891-.185.1074-.487.1074-.673 0-.186-.1073-.186-.2817 0-.3891.186-.1079.488-.1079.673 0zM120.634 63.4441c.186.1073.186.2817 0 .3891-.186.1073-.487.1073-.673 0-.186-.1074-.186-.2818 0-.3891.186-.1079.487-.1079.673 0zM122.394 62.4261c.187.1074.187.2818 0 .3891-.185.1079-.487.1079-.673 0-.186-.1073-.186-.2817 0-.3891.186-.1073.488-.1073.673 0z"/>
  <path fill="#379BA7" d="M41.7758 116.768L.395935 92.8419V47.1825L41.7758 71.1086v45.6594zM81.3381.31462L.386536 47.1217 41.7795 71.0554l80.9525-46.807L81.3381.31462z"/>
  <path fill="#1A1613" d="M41.5042 116.296l-.3324-.192-7.7415-4.476v-1.566l-5.3205-3.077v1.567l-14.048-8.123v-1.5665l-5.32054-3.0762v1.5662L.667915 92.684V47.6545L41.5042 71.2662v45.0298zm0 3.212l-4.6578-2.693-.9577-3.136 5.6155 3.247v2.582zM5.43509 98.6527L.667915 95.8964v-2.5825l1.257505.727 4.46626 2.583-.95659 2.0288zM.386601 46.8452l-.262822.2213v49.1449l5.550181 3.2091 2.64124-1.6849 26.8819 15.5424 1.1912 3.902 5.1148 2.957.5453-.064V70.9512L.913321 47.1504l-.52672-.3052"/>
  <path fill="#DDECF0" d="M41.7757 67.3332L6.34543 47.2609 81.3067 3.88798 116.597 24.2927 41.7757 67.3332zM81.3143 1.62376L1.34265 47.8854 42.2094 71.4758l79.9546-46.2327L81.3143 1.62376z"/>
  <path fill="#056575" d="M116.923 75.3593l-1.478-.9368.814-.4708.061.1297.603 1.2779zm5.803-51.4353L41.6403 70.8085l-.136.0779v46.2896l-.0011 2.961.2198.124 5.4408-3.146 1.1901-3.9 66.5401-38.4742 2.556 1.7345 5.55-3.2086V24.0886l-.274-.1646"/>
  <path fill="#1A1613" d="M49.5002 70.6739v37.2181l-3.1925.025V72.512l3.1925-1.8381zm66.9828-1.2729V32.1124l2.363-1.3602v37.3169l-2.363 1.3319zm-3.737-35.1372l3.193-1.8381v37.1709l-3.193.0256V34.2638zm-2.907 39.0417V35.9373l2.363-1.3602v37.3677l-2.363 1.3607zm-3.737-35.2168l3.193-1.8381v37.3371l-3.193.0251V38.0887zm-2.906 39.0412V39.7622l2.362-1.3601v37.3676l-2.362 1.3602zm-3.737-35.2162l3.192-1.8381V77.398l-3.192.0245V41.9137zm-2.9074 39.0405v-37.367l2.3632-1.3608v37.3677l-2.3632 1.3601zM92.746 45.7778l3.2615-1.8773v37.3071l-3.1924.0257V45.7778h-.0691zm-2.8382 39.0008v-37.367l2.3631-1.3602v37.3671l-2.3631 1.3601zM86.1712 49.563l3.1924-1.8381v37.293l-3.1924.025V49.563zm-6.737 3.8783l3.2855-1.8915v37.2489l-3.1924.0245V53.4413h-.0931zm-2.8143 38.9861v-37.366l2.3632-1.3601v37.3659l-2.3632 1.3602zM72.8164 57.251l3.2594-1.8762v37.306l-3.1924.0251V57.251h-.067zM69.976 96.2523V58.8864l2.3632-1.3602v37.3654l-2.3632 1.3607zm-3.7774-35.1911l3.2333-1.8615V96.491l-3.1924.0251V61.0612h-.0409zm-2.8665 39.0158V62.7113l2.3632-1.3607v37.366l-2.3632 1.3604zm-3.7518-35.2061l3.2077-1.8463v37.2764l-3.1925.025V64.8709h-.0152zm-2.8921 39.0301V66.5362l2.3632-1.3607v37.3655l-2.3632 1.36zm-3.7366-35.2139l3.1925-1.8381v37.262l-3.1925.025V68.6871zm-2.9073 1.6735l2.3632-1.3602v37.3636l-2.3632 1.332V70.3606zm33.2473 18.2266l-.0277.0158V51.2365l2.3631-1.3602v37.3666l-2.3354 1.3443zM45.9002 72.118l-.1366.0791v38.6209l4.1436-2.385.1371-.079 2.8067-1.615.1006-.057v-.001l3.5217-2.028.2149-.113 2.9073-1.684 3.4967-2.013.2399-.113 2.9074-1.6985 3.471-1.9977.2655-.1134 2.9074-1.7132 3.446-1.9836.2905-.1134 2.9074-1.7274 3.5472-2.0419.1894-.109.3215-.1853 2.5858-1.4577v-.0305l3.4699-1.9978.2667-.1133 2.9073-1.7133 3.4449-1.9836.2916-.1133 2.9074-1.7281 3.419-1.9683.318-.1133 2.906-1.7427 3.395-1.9536.342-.1139 2.907-1.7569 3.687-2.1226.05-.0005v-.0278l2.771-1.595.136-.0791V29.81L45.9002 72.118"/>
  <path fill="#DDECF0" d="M16.473 41.8808l2.4029-1.3945 34.3415 19.6358-2.3925 1.3836L16.473 41.8808zM10.4852 45.4195l2.4029-1.394 34.342 19.6353-2.3931 1.3836-34.3518-19.6249zM22.7462 38.3003l2.4034-1.3945 34.3415 19.6353-2.3926 1.3836-34.3523-19.6244zM28.8864 34.6222l2.4029-1.3945 34.342 19.6358-2.3926 1.3836-34.3523-19.6249M34.912 31.0427l2.4029-1.3945 34.342 19.6358-2.3931 1.3831L34.912 31.0427zM41.186 27.463l2.4029-1.3945 34.342 19.6353-2.3931 1.3836L41.186 27.463zM47.326 23.7847l2.4029-1.3945L84.0705 42.026l-2.3926 1.3831L47.326 23.7847M53.6378 20.3127l2.4029-1.3945 34.3421 19.6359-2.3926 1.383-34.3524-19.6244zM59.7779 16.6341l2.4029-1.3939 34.3421 19.6352-2.3926 1.3836-34.3524-19.6249zM66.1939 13.055l2.4029-1.3945 34.3422 19.6358-2.393 1.3836L66.1939 13.055M72.4678 9.47462l2.4029-1.39449L109.212 27.7154l-2.392 1.3836L72.4678 9.47462M78.6072 5.79672l2.4035-1.3945L115.352 24.0381l-2.392 1.383L78.6072 5.79672z"/>
  <path fill="#1A1613" d="M.930307 47.1214L41.7802 70.7408l80.4078-46.4927L81.3389.628804.930307 47.1214zM41.7802 71.3696l-.136-.0784L.142944 47.2953l.243772-.4501L81.3389-.00005915l.136.07846815L123 24.0885v.3187L41.7802 71.3696"/>
  <path fill="#1A1613" d="M33.3988 33.8154l1.3397-2.322 34.3638 19.6314-2.6989 1.5607-33.0046-18.8701zm-4.364.9002l2.4029-1.3945 1.2162.6953-.0104.018 33.1934 18.9787-2.3724 1.3716-34.4297-19.6691zm-1.7956 2.7116l1.35-2.3389 34.3295 19.6119-2.7196 1.5727-32.9599-18.8457zm-4.3003.9766l2.4029-1.394 34.3116 19.5786-2.4274 1.4032-34.2871-19.5878zm-1.7957 2.7121l1.35-2.3394 34.187 19.5307-2.7196 1.5727-32.8174-18.764zm-4.4934.8501l2.4029-1.3939 34.342 19.6353-2.3931 1.3836-34.3518-19.625zm-1.688 2.6043l1.2456-2.2294 34.2484 19.5656-2.5721 1.4871-32.9219-18.8233zm-.5484.3133l32.7792 18.91-2.2456 1.2981-33.7702-19.8304 1.9508-1.1128 1.2858.7351zM75.349 47.513l-2.7196 1.5727-32.9518-18.8408 1.35-2.3389L75.349 47.513zM51.9408 22.9645l1.3326-2.3095 34.4694 19.692-2.6854 1.5525-33.1166-18.935zm-4.179 1.0065l2.4035-1.3945 1.0305.5896-.0174.03 33.299 19.0391-2.3583 1.3635L47.7618 23.971zm-1.7951 2.7122l1.3495-2.3395 34.2571 19.5705-2.7196 1.5727-32.887-18.8037zm32.3211 19.1307l-2.3931 1.3835-34.4215-19.6641 2.4029-1.3945 34.4117 19.6751zm28.1682-16.2872l-2.72 1.5732-33.0253-18.8833 1.3495-2.33939L106.456 29.5267zM78.795 5.94275l2.4029-1.39397L115.508 24.2931l-2.282 1.3193L78.795 5.94275zM76.9993 8.6549l1.35-2.33942L112.68 25.9279l-2.72 1.5727L76.9993 8.6549zm32.3947 19.1732l-2.393 1.3831L72.5059 9.50501l2.4034-1.3945L109.394 27.8281zM68.6675 11.6995L103.17 31.4269l-2.392 1.3836-34.5128-19.716 2.4023-1.395zm-4.2453 4.0794l1.3494-2.3394L100.232 33.126l-2.7628 1.5967-.0104-.0055.0213-.0365-33.0579-18.9018zm-1.9872-.4599l34.489 19.7192-2.3931 1.3841L60.0326 16.714l2.4024-1.395zm-4.302 4.0473l1.3446-2.3302.0103-.006 34.4972 19.7078-2.7583 1.5945-.0544-.0311.0185-.0332L58.133 19.3663zm-1.9267-.43l34.4748 19.7116-2.3926 1.3836-34.4846-19.7007 2.4024-1.3945zM37.6066 29.7376l34.4346 19.6881-2.3931 1.3836-34.4439-19.6772 2.4024-1.3945zM9.02805 48.1364l1.68845-2.5138L44.405 65.405l-2.5487 1.4735L9.02805 48.1364zM116.597 24.2925l-.408-.2359-.004-.0022L81.3067 3.88777l-.1366-.07902-12.5053 7.26185-.0462-.0267-3.4929 2.0267.0485.0277-2.7419 1.5918-.1029-.0583-3.4922 2.0266.1039.0595-2.7376 1.5895-.0838-.0479-3.4922 2.0266.0854.0485-15.109 8.7741-.0185-.0109-3.4923 2.0266.0196.0115L6.34546 47.2607 41.2436 67.157l.4783.273v-.0005l.136.0773 74.7391-43.2143"/>
  <path fill="#DDECF0" d="M8.84509 91.1821L38.1925 74.0748v34.0192L8.84509 91.1821zM4.24127 91.3341l1.83808-1.1171 32.11325 18.505v2.244L4.24127 91.3341"/>
  <path fill="#1A1613" d="M8.84509 90.5921L38.1925 73.4843v34.0187L8.84509 90.5921zm-4.60392.1521l.73512-.4469 1.10295-.6703 32.11326 18.505v2.243L4.24117 90.7442zm1.56221-36.4636v34.8761l-1.06434.6469-.76015.4621V53.2256l1.82449 1.055zm-2.36863-1.9989v38.6439l.27371.1422.00163-.001L38.7366 111.319V72.693L3.43475 52.2817"/>
  <path fill="#379BA7" d="M63.6528 26.1478v-2.9324l13.9184 8.1431-.272 2.7252-13.6464-7.9359z"/>
  <path fill="#379BA7" d="M90.9456 23.2155l-13.6464 7.8902-13.6464-7.8902 13.6464-7.8902 13.6464 7.8902z"/>
  <path fill="#379BA7" d="M86.3651 23.2155l-9.0659 5.2418-9.0658-5.2418 9.0658-5.2418 9.0659 5.2418z"/>
  <path fill="#DDECF0" d="M77.2992 28.4571l-7.736-4.7698 7.736-5.5295 8.9282 4.9725-8.9282 5.3268zm0-12.1783l-12.8215 7.4134 13.561 7.9398 12.9069-7.463-13.6464-7.8902z"/>
  <path fill="#056575" d="M77.2991 30.7916l-13.1022-7.5758 13.1022-7.5763 13.1023 7.5763-13.1023 7.5758zm-.272 2.8674l-13.1023-7.5866v-2.3847l13.1023 7.5752v2.3961zm14.1905-10.6007l-.2721-.1575-13.6464-7.8902-13.6464 7.8902-.272.1575v3.3291l13.6464 7.9016.2709.1569.2732-.1564 13.6464-7.7992v-3.432"/>
  <path fill="#1A1613" d="M70.7411 24.3507l6.558-3.7115 6.5579 3.7115-6.5579 3.7923-6.558-3.7923zm6.83-5.9055l8.2497 4.7704-1.417.8191-6.8327-3.8675v-1.722zm8.9298 5.0064l.4081-.236-9.3379-5.3992-.272-.1575-9.61 5.5567 9.61 5.5563 8.2882-4.7923.9136-.528z"/>
  <path fill="#379BA7" d="M26.7167 83.6139v-9.5392l7.965 4.7698v9.4106l-7.965-4.6412z"/>
  <path fill="#DDECF0" d="M26.7167 74.0749l6.7652-4.0163 4.9196 2.8381v3.7465l-3.7197 2.2015-7.9651-4.7698"/>
  <path fill="#056575" d="M26.9889 83.4575v-8.9027l1.5187.9095 5.9028 3.5345v8.7823l-7.4215-4.3236zm6.4954-13.0835l4.6458 2.68v3.4337l-3.4466 2.0392-5.9332-3.5525-1.5013-.8992 6.2353-3.7012zm-.0039-.6316l-6.763 4.0146-.2726.1619v9.8514l7.9656 4.6412.271.1581.2731-.157 3.7197-2.1438V72.7391l-5.1938-2.9967"/>
  <path fill="#379BA7" d="M30.639 93.4667v-6.2973l5.258 3.1487v6.2123l-5.258-3.0637z"/>
  <path fill="#DDECF0" d="M30.639 87.1699l4.4662-2.6511 3.2474 1.8735v2.4729l-2.4556 1.4534-5.258-3.1487"/>
  <path fill="#056575" d="M30.8184 93.3641V87.487l1.0029.6005 3.8965 2.3334v5.7971l-4.8994-2.8539zm4.2884-8.6373l3.0662 1.7695v2.2664l-2.2751 1.3465-3.9167-2.3454-.9908-.5934 4.1164-2.4436zm-.0033-.4163L30.6394 86.96l-.1801.1074v6.5033l5.2585 3.0636.1791.1041.1801-.1035 2.4556-1.4152v-8.9316l-3.4291-1.9776"/>
  <path fill="#DDECF0" d="M29.3525 78.5137l-9.0827-5.2516-9.0827 5.2516v10.5031l9.0827 5.2516V83.792l9.0827-5.2783z"/>
  <path fill="#379BA7" d="M11.1871 88.9832l9.0827 5.2515V83.7583L11.1871 78.48v10.5032z"/>
  <path fill="#056575" d="M23.9667 81.4171l-3.6974 2.1378-4.2688-2.4686 8.7193-5.0407 4.2687 2.468-5.0218 2.9035zm-3.8792 12.5358l-8.7187-5.0413V78.8292l8.7187 5.0412v10.0825zm.1823-20.4805l4.2688 2.468-8.7193 5.0413-4.2687-2.4681 8.7192-5.0412zm9.2645 4.9361l-9.2645-5.3573-9.2372 5.3415-.0278.0158-.0016.2092.0016.0011v10.5027l9.0827 5.2521.1823.1052.1818-.1052 8.9918-5.1993.0909-.0528v-10.713"/>
  <path fill="#056575" d="M16.8292 85.232c-.0511.0288-.1268-.0049-.1676-.0284l-1.6846-.9743c-.2405-.1384-.4429-.5341-.4429-.8638 0-.1629.0506-.2495.0936-.2746.0516-.0305.1273.0049.167.0289l.1164.067c.0419.3956.2765.8082.5708.9787l1.4377.8311c-.0077.1351-.049.2114-.0904.2354zm-.1676-1.4539l-1.6846-.9744c-.1861-.1073-.3755-.1182-.5311-.0283-.1752.1013-.2759.316-.2759.5901 0 .4589.2743.9771.6247 1.1798l1.6852.9744c.1023.0588.2057.0888.3031.0888.0811 0 .1578-.0207.2285-.061.1752-.1014.2753-.3161.2753-.5902 0-.4588-.2742-.9771-.6252-1.1792"/>
  <path fill="#379BA7" d="M28.0402 85.9486c-.0843-.0496-.1899-.0441-.2933.0163l-1.3418.7755c-.1986.1144-.3543.4098-.3543.6703v1.4408c0 .1531.055.273.1524.3291.0381.0224.0805.0333.1246.0333.0539 0 .1116-.0164.1682-.0496l1.3418-.7755c.1986-.1155.3548-.4103.3548-.6708v-1.4403c0-.1536-.0555-.2735-.1524-.3291"/>
</svg>
