<svg xmlns="http://www.w3.org/2000/svg" width="135" height="87" fill="none">
  <path fill="#1A1613" d="M34.901 74.7425c.3506.2012.3506.5277 0 .7289-.3506.2025-.9199.2025-1.2705 0-.3506-.2012-.3506-.5277 0-.7289.3506-.2013.9199-.2013 1.2705 0zM38.2222 72.8353c.3506.2012.3506.5289 0 .7301-.3518.2013-.92.2013-1.2706 0-.3505-.2012-.3505-.5289 0-.7301.3506-.2013.9188-.2013 1.2706 0zM41.5422 70.9293c.3506.2012.3506.5277 0 .7289-.3506.2013-.9188.2013-1.2694 0-.3506-.2012-.3506-.5277 0-.7289.3506-.2013.9188-.2013 1.2694 0zM44.8634 69.022c.3506.2013.3506.5277 0 .729-.3506.2012-.9188.2012-1.2706 0-.3506-.2013-.3506-.5277 0-.729.3518-.2012.92-.2012 1.2706 0zM31.5799 72.8353c.3506.2012.3506.5289 0 .7301-.3506.2013-.9189.2013-1.2706 0-.3506-.2012-.3506-.5289 0-.7301.3517-.2013.92-.2013 1.2706 0zM34.901 70.9293c.3506.2012.3506.5277 0 .7289-.3506.2013-.9199.2013-1.2705 0-.3506-.2012-.3506-.5277 0-.7289.3506-.2013.9199-.2013 1.2705 0zM38.2222 69.022c.3506.2013.3506.5277 0 .729-.3518.2012-.92.2012-1.2706 0-.3505-.2013-.3505-.5277 0-.729.3506-.2012.9188-.2012 1.2706 0zM41.5422 67.845c-.3506.2012-.9188.2012-1.2694 0-.3506-.2025-.3506-.5289 0-.7302.3506-.2012 1.62.5277 1.2694.7302zM28.2587 70.9293c.3506.2012.3506.5277 0 .7289-.3506.2013-.9188.2013-1.2694 0-.3518-.2012-.3518-.5277 0-.7289.3506-.2013.9188-.2013 1.2694 0zM31.5799 69.022c.3506.2013.3506.5277 0 .729-.3506.2012-.9189.2012-1.2706 0-.3506-.2013-.3506-.5277 0-.729.3517-.2012.92-.2012 1.2706 0zM34.901 67.1148c.3506.2013.3506.5277 0 .7302-.3506.2012-.9199.2012-1.2705 0-.3506-.2025-.3506-.5289 0-.7302.3506-.2012.9199-.2012 1.2705 0zM38.2222 65.9377c-.3518.2013-.92.2013-1.2706 0-.3505-.2012-.3505-.5277 0-.7289.3506-.2024 1.6212.5277 1.2706.7289zM24.9375 69.022c.3518.2013.3518.5277 0 .729-.3506.2012-.9188.2012-1.2694 0-.3506-.2013-.3506-.5277 0-.729.3506-.2012.9188-.2012 1.2694 0zM28.2587 67.1148c.3506.2013.3506.5277 0 .7302-.3506.2012-.9188.2012-1.2694 0-.3518-.2025-.3518-.5289 0-.7302.3506-.2012.9188-.2012 1.2694 0zM31.5799 65.2088c.3506.2012.3506.5277 0 .7289-.3506.2013-.9189.2013-1.2706 0-.3506-.2012-.3506-.5277 0-.7289.3517-.2024.92-.2024 1.2706 0zM34.901 64.0305c-.3506.2013-.9199.2013-1.2705 0-.3506-.2012-.3506-.5277 0-.7289.3506-.2013 1.6211.5277 1.2705.7289zM21.6175 67.1148c.3506.2013.3506.5277 0 .7302-.3506.2012-.92.2012-1.2706 0-.3506-.2025-.3506-.5289 0-.7302.3506-.2012.92-.2012 1.2706 0zM24.9375 65.2088c.3518.2012.3518.5277 0 .7289-.3506.2013-.9188.2013-1.2694 0-.3506-.2012-.3506-.5277 0-.7289.3506-.2024.9188-.2024 1.2694 0zM28.2587 63.3016c.3506.2012.3506.5277 0 .7289-.3506.2013-.9188.2013-1.2694 0-.3518-.2012-.3518-.5277 0-.7289.3506-.2013.9188-.2013 1.2694 0zM18.2669 65.1877c.3518.2013.3518.5289 0 .7301-.3506.2013-.9188.2013-1.2694 0-.3506-.2012-.3506-.5288 0-.7301.3506-.2012.9188-.2012 1.2694 0zM21.5881 63.2817c.3506.2012.3506.5277 0 .7289-.3506.2013-.9188.2013-1.2694 0-.3506-.2012-.3506-.5277 0-.7289.3506-.2013.9188-.2013 1.2694 0zM24.9093 61.3745c.3506.2012.3506.5277 0 .7289-.3506.2013-.9188.2013-1.2694 0-.3518-.2012-.3518-.5277 0-.7289.3506-.2013.9188-.2013 1.2694 0zM21.5881 59.4673c.3506.2012.3506.5277 0 .7289-.3506.2024-.9188.2024-1.2694 0-.3506-.2012-.3506-.5277 0-.7289.3506-.2013.9188-.2013 1.2694 0zM11.6258 61.3745c.3506.2012.3506.5277 0 .7289-.3506.2013-.9189.2013-1.2706 0-.3506-.2012-.3506-.5277 0-.7289.3517-.2013.92-.2013 1.2706 0zM14.9469 59.4673c.3506.2012.3506.5277 0 .7289-.3506.2024-.92.2024-1.2706 0-.3505-.2012-.3505-.5277 0-.7289.3506-.2013.92-.2013 1.2706 0zM18.2681 57.5612c.3506.2013.3506.5277 0 .729-.3518.2012-.92.2012-1.2706 0-.3506-.2013-.3506-.5277 0-.729.3506-.2024.9188-.2024 1.2706 0zM8.30461 59.4673c.35059.2012.35059.5277 0 .7289-.35059.2024-.91883.2024-1.26942 0-.35176-.2012-.35176-.5277 0-.7289.35059-.2013.91883-.2013 1.26942 0zM11.6258 57.5612c.3506.2013.3506.5277 0 .729-.3506.2012-.9189.2012-1.2706 0-.3506-.2013-.3506-.5277 0-.729.3517-.2024.92-.2024 1.2706 0zM14.9469 55.654c.3506.2013.3506.5277 0 .729-.3506.2012-.92.2012-1.2706 0-.3505-.2013-.3505-.5277 0-.729.3506-.2012.92-.2012 1.2706 0-.3506-.2012.3506.2013 0 0zM4.98459 57.5612c.35059.2013.35059.5277 0 .729-.35176.2012-.92.2012-1.27059 0-.35059-.2013-.35059-.5277 0-.729.35059-.2024.91883-.2024 1.27059 0zM8.30459 55.654c.35059.2013.35059.5277 0 .729-.35059.2012-.91883.2012-1.26942 0-.35058-.2013-.35058-.5277 0-.729.35059-.2012.91883-.2012 1.26942 0zM11.6258 54.4758c-.3506.2024-.9189.2024-1.2706 0-.3506-.2013-.3506-.5277 0-.729.3517-.2013 1.6212.5277 1.2706.729zM1.66339 55.654c.35059.2013.35059.5277 0 .729-.35059.2012-.919978.2012-1.270566 0-.3505883-.2013-.3505883-.5277 0-.729.350588-.2012.919976-.2012 1.270566 0zM4.98459 53.7468c.35059.2013.35059.5277 0 .729-.35176.2024-.92.2024-1.27059 0-.35059-.2013-.35059-.5277 0-.729.35059-.2013.91883-.2013 1.27059 0zM8.30459 51.8396c.35059.2012.35059.5277 0 .7301-.35059.2013-.91883.2013-1.26942 0-.35058-.2024-.35058-.5289 0-.7301.35059-.2013.91883-.2013 1.26942 0-.35059-.2013.35059.2012 0 0zM1.66339 51.8396c.35059.2012.35059.5277 0 .7301-.35059.2013-.919978.2013-1.270566 0-.3505883-.2024-.3505883-.5289 0-.7301.350588-.2013.919976-.2013 1.270566 0zM4.98459 50.6625c-.35176.2012-.92.2012-1.27059 0-.35059-.2013-.35059-.5277 0-.729.35059-.2024 1.62118.5277 1.27059.729zM61.6269 85.8991c.3506.2013.3506.5277 0 .7289-.3506.2013-.92.2013-1.2706 0-.3505-.2012-.3505-.5276 0-.7289.3506-.2012.92-.2012 1.2706 0zM64.9481 83.9919c.3506.2013.3506.5277 0 .729-.3506.2012-.92.2012-1.2706 0-.3506-.2013-.3506-.5277 0-.729.3506-.2013.92-.2013 1.2706 0zM68.2681 82.0847c.3518.2012.3518.5289 0 .7301-.3506.2013-.9188.2013-1.2694 0-.3506-.2012-.3506-.5289 0-.7301.3506-.2013.9188-.2013 1.2694 0zM71.5893 80.1786c.3506.2013.3506.5278 0 .729-.3506.2013-.9189.2013-1.2706 0-.3506-.2012-.3506-.5277 0-.729.3517-.2024.92-.2024 1.2706 0zM74.9105 78.2714c.3505.2013.3505.5277 0 .729-.3506.2012-.9201.2012-1.2706 0-.3506-.2013-.3506-.5277 0-.729.3505-.2012.92-.2012 1.2706 0zM54.9846 85.8991c.3506.2013.3506.5277 0 .7289-.3506.2013-.9188.2013-1.2694 0-.3506-.2012-.3506-.5276 0-.7289.3506-.2012.9188-.2012 1.2694 0zM58.3058 83.9919c.3505.2013.3505.5277 0 .729-.3506.2012-.9189.2012-1.2706 0-.3506-.2013-.3506-.5277 0-.729.3517-.2013.92-.2013 1.2706 0zM61.6269 82.0847c.3506.2012.3506.5289 0 .7301-.3506.2013-.92.2013-1.2706 0-.3505-.2012-.3505-.5289 0-.7301.3506-.2013.92-.2013 1.2706 0zM64.9481 80.1786c.3506.2013.3506.5278 0 .729-.3506.2013-.92.2013-1.2706 0-.3506-.2012-.3506-.5277 0-.729.3506-.2024.92-.2024 1.2706 0zM68.2681 78.2714c.3518.2013.3518.5277 0 .729-.3506.2012-.9188.2012-1.2694 0-.3506-.2013-.3506-.5277 0-.729.3506-.2012.9188-.2012 1.2694 0zM71.5893 76.3642c.3506.2013.3506.5277 0 .729-.3506.2024-.9188.2024-1.2694 0-.3518-.2013-.3518-.5277 0-.729.3506-.2012.9188-.2012 1.2694 0zM51.6646 83.9919c.3506.2012.3506.5277-.0012.7289-.3506.2025-.9188.2025-1.2694 0-.3506-.2012-.3506-.5277 0-.7289.3506-.2013.9188-.2013 1.2706 0zM54.9846 82.0847c.3506.2012.3506.5289 0 .7301-.3506.2013-.9188.2013-1.2694 0-.3506-.2012-.3506-.5289 0-.7301.3506-.2013.9188-.2013 1.2694 0zM58.3058 80.1786c.3505.2013.3505.5278 0 .729-.3506.2013-.9189.2013-1.2706 0-.3506-.2012-.3506-.5277 0-.729.3517-.2024.92-.2024 1.2706 0zM61.6269 78.2714c.3506.2013.3506.5277 0 .729-.3506.2012-.92.2012-1.2706 0-.3505-.2013-.3505-.5277 0-.729.3506-.2012.92-.2012 1.2706 0zM64.9481 76.3642c.3506.2013.3506.5277 0 .729-.3506.2024-.92.2024-1.2706 0-.3506-.2013-.3506-.5277 0-.729.3506-.2012.92-.2012 1.2706 0zM68.2681 74.457c.3518.2024.3518.5289 0 .7301-.3506.2013-.9188.2013-1.2694 0-.3506-.2012-.3506-.5277 0-.7301.3506-.2012.9188-.2012 1.2694 0zM48.314 82.0648c.3506.2012.3506.5277 0 .7301-.3506.2013-.9189.2013-1.2694 0-.3506-.2024-.3506-.5289 0-.7301.3505-.2013.9188-.2013 1.2694 0zM51.6351 80.1588c.3506.2012.3506.5277 0 .7289-.3505.2013-.9188.2013-1.2705 0-.3506-.2012-.3506-.5277 0-.7289.3517-.2025.92-.2025 1.2705 0zM54.9563 78.2515c.3506.2013.3506.5277 0 .729-.3506.2012-.92.2012-1.2705 0-.3506-.2013-.3506-.5277 0-.729.3505-.2012.9199-.2012 1.2705 0zM58.2775 76.3443c.3506.2013.3506.5277 0 .729-.3506.2012-.92.2012-1.2706 0-.3506-.2013-.3506-.5277 0-.729.3506-.2012.92-.2012 1.2706 0zM61.5975 74.4371c.3518.2013.3518.5289 0 .7301-.3506.2013-.9188.2013-1.2694 0-.3506-.2012-.3506-.5288 0-.7301.3506-.2012.9188-.2012 1.2694 0zM64.9187 72.5311c.3506.2012.3506.5277 0 .7289-.3506.2013-.9188.2013-1.2694 0-.3518-.2012-.3518-.5277 0-.7289.3506-.2025.9188-.2025 1.2694 0zM44.994 80.1588c.3506.2012.3506.5277 0 .7289-.3518.2013-.92.2013-1.2706 0-.3506-.2012-.3506-.5277 0-.7289.3506-.2025.9188-.2025 1.2706 0zM48.314 78.2515c.3506.2013.3506.5277 0 .729-.3506.2012-.9189.2012-1.2694 0-.3506-.2013-.3506-.5277 0-.729.3505-.2012.9188-.2012 1.2694 0zM51.6351 76.3443c.3506.2013.3506.5277 0 .729-.3505.2012-.9188.2012-1.2705 0-.3506-.2013-.3506-.5277 0-.729.3517-.2012.92-.2012 1.2705 0zM54.9563 74.4371c.3506.2013.3506.5289 0 .7301-.3506.2013-.92.2013-1.2705 0-.3506-.2012-.3506-.5288 0-.7301.3505-.2012.9199-.2012 1.2705 0zM58.2775 72.5311c.3506.2012.3506.5277 0 .7289-.3506.2013-.92.2013-1.2706 0-.3506-.2012-.3506-.5277 0-.7289.3506-.2025.92-.2025 1.2706 0zM61.5975 70.6239c.3518.2012.3518.5277 0 .7289-.3506.2013-.9188.2013-1.2694 0-.3506-.2012-.3506-.5277 0-.7289.3506-.2013.9188-.2013 1.2694 0zM41.6728 78.2515c.3506.2013.3506.5277 0 .729-.3506.2012-.92.2012-1.2706 0-.3506-.2013-.3506-.5277 0-.729.3506-.2012.92-.2012 1.2706 0zM44.994 76.3443c.3506.2013.3506.5277 0 .729-.3518.2012-.92.2012-1.2706 0-.3506-.2013-.3506-.5277 0-.729.3506-.2012.9188-.2012 1.2706 0zM48.314 74.4371c.3506.2013.3506.5289 0 .7301-.3506.2013-.9189.2013-1.2694 0-.3506-.2012-.3506-.5288 0-.7301.3505-.2012.9188-.2012 1.2694 0zM51.6352 72.5311c.3506.2012.3506.5277 0 .7289-.3506.2013-.9188.2013-1.2694 0-.3518-.2012-.3518-.5277 0-.7289.3506-.2025.9188-.2025 1.2694 0zM54.9563 70.6239c.3506.2012.3506.5277 0 .7289-.3506.2013-.92.2013-1.2705 0-.3506-.2012-.3506-.5277 0-.7289.3505-.2013.9199-.2013 1.2705 0zM58.2775 68.7166c.3506.2013.3506.5277 0 .729-.3506.2013-.92.2013-1.2706 0-.3505-.2013.92-.9302 1.2706-.729zM38.3516 76.3443c.3506.2013.3506.5277 0 .729-.3506.2012-.9188.2012-1.2706 0-.3505-.2013-.3505-.5277 0-.729.3518-.2012.92-.2012 1.2706 0zM41.6728 74.4371c.3506.2013.3506.5289 0 .7301-.3506.2013-.92.2013-1.2706 0-.3506-.2012-.3506-.5288 0-.7301.3506-.2012.92-.2012 1.2706 0zM44.994 72.5311c.3506.2012.3506.5277 0 .7289-.3518.2013-.92.2013-1.2706 0-.3506-.2012-.3506-.5277 0-.7289.3506-.2025.9188-.2025 1.2706 0zM48.314 70.6239c.3506.2012.3506.5277 0 .7289-.3506.2013-.9189.2013-1.2694 0-.3506-.2012-.3506-.5277 0-.7289.3505-.2013.9188-.2013 1.2694 0zM76.9669 76.3911c.3506-.2012.9189-.2024 1.2706-.0012.3518.2013.3518.5278.0024.7302-.3506.2012-.9189.2012-1.2706.0011-.3518-.2012-.3518-.5277-.0024-.7301zM81.5622 74.4816c.3506.2024.3506.5288 0 .7301-.3505.2013-.9188.2013-1.2694 0-.3517-.2013-.3517-.5277 0-.7301.3506-.2013.9189-.2013 1.2694 0zM84.8834 72.5755c.3506.2013.3506.5277 0 .729-.3506.2012-.92.2012-1.2706 0-.3506-.2013-.3506-.5277 0-.729.3506-.2012.92-.2012 1.2706 0zM88.2046 70.6683c.3506.2013.3506.5277 0 .729-.3506.2012-.92.2012-1.2706 0-.3506-.2013-.3506-.5277 0-.729.3506-.2012.92-.2012 1.2706 0zM91.5257 68.7611c.3506.2013.3506.5277 0 .7301-.3517.2013-.92.2013-1.2705 0-.3506-.2024-.3506-.5288 0-.7301.3505-.2012.9188-.2012 1.2705 0zM94.8457 66.8539c.3506.2024.3506.5289 0 .7301-.3505.2013-.9188.2013-1.2694 0-.3506-.2012-.3506-.5277 0-.7301.3506-.2013.9189-.2013 1.2694 0zM98.1669 64.9479c.3506.2012.3506.5277 0 .7289-.3506.2013-.9188.2013-1.2705 0-.3506-.2012-.3506-.5277 0-.7289.3517-.2013.9199-.2013 1.2705 0zM101.488 63.0406c.351.2013.351.5277 0 .729-.35.2024-.92.2024-1.27 0-.3511-.2013-.3511-.5277 0-.729.35-.2012.92-.2012 1.27 0zM104.809 61.1334c.351.2025.351.5289 0 .7302-.352.2012-.92.2012-1.27 0-.351-.2013-.351-.5277 0-.7302.35-.2012.918-.2012 1.27 0zM108.129 59.2274c.352.2013.352.5277 0 .7289-.35.2013-.919.2013-1.269 0-.351-.2012-.351-.5276 0-.7289.35-.2012.919-.2012 1.269 0zM111.45 57.3202c.351.2012.351.5277 0 .7289-.35.2013-.918.2013-1.269 0-.352-.2012-.352-.5277 0-.7289.351-.2013.919-.2013 1.269 0zM114.772 55.413c.35.2012.35.5277 0 .7301-.351.2013-.92.2013-1.271 0-.351-.2024-.351-.5289 0-.7301.351-.2013.92-.2013 1.271 0zM118.093 53.5058c.35.2024.35.5288 0 .7301-.351.2012-.92.2012-1.271 0-.35-.2013-.35-.5277 0-.7301.351-.2013.92-.2013 1.271 0zM121.413 51.5997c.352.2013.352.5277 0 .729-.351.2012-.919.2012-1.27 0-.35-.2013-.35-.5277 0-.729.351-.2012.919-.2012 1.27 0zM124.734 49.6925c.351.2013.351.5277 0 .729-.351.2024-.919.2024-1.269 0-.352-.2013-.352-.5277 0-.729.35-.2012.918-.2012 1.269 0zM128.055 47.7853c.351.2013.351.5277 0 .7301-.35.2013-.919.2013-1.27 0-.351-.2024-.351-.5288 0-.7301.351-.2013.92-.2013 1.27 0zM131.376 45.8793c.351.2012.351.5277 0 .7289-.35.2013-.92.2013-1.27 0-.351-.2012-.351-.5277 0-.7289.35-.2025.92-.2025 1.27 0zM73.6458 74.4851c.3506-.2024.9188-.2024 1.2706-.0023.3517.2012.3529.5277.0023.7301-.3494.2012-.9188.2024-1.2706.0011-.3506-.2012-.3517-.5277-.0023-.7289zM78.2411 72.5755c.3517.2013.3517.5277 0 .729-.3506.2012-.9189.2012-1.2695 0-.3506-.2013-.3506-.5277 0-.729.3506-.2012.9189-.2012 1.2695 0zM81.5622 70.6683c.3506.2013.3506.5277 0 .729-.3505.2012-.9188.2012-1.2694 0-.3517-.2013-.3517-.5277 0-.729.3506-.2012.9189-.2012 1.2694 0zM84.8834 68.7611c.3506.2013.3506.5277 0 .7301-.3506.2013-.92.2013-1.2706 0-.3506-.2024-.3506-.5288 0-.7301.3506-.2012.92-.2012 1.2706 0zM88.2046 66.8539c.3506.2024.3506.5289 0 .7301-.3506.2013-.92.2013-1.2706 0-.3506-.2012-.3506-.5277 0-.7301.3506-.2013.92-.2013 1.2706 0zM91.5257 64.9479c.3506.2012.3506.5277 0 .7289-.3505.2013-.92.2013-1.2705 0-.3506-.2012-.3506-.5277 0-.7289.3505-.2013.92-.2013 1.2705 0zM94.8457 63.0406c.3506.2013.3506.5277 0 .729-.3505.2024-.9188.2024-1.2694 0-.3506-.2013-.3506-.5277 0-.729.3506-.2012.9189-.2012 1.2694 0zM98.1669 61.1334c.3506.2025.3506.5289 0 .7302-.3506.2012-.9188.2012-1.2705 0-.3506-.2013-.3506-.5277 0-.7302.3517-.2012.9199-.2012 1.2705 0zM101.488 59.2274c.351.2013.351.5277 0 .7289-.35.2013-.92.2013-1.27 0-.3511-.2012-.3511-.5276 0-.7289.35-.2012.92-.2012 1.27 0zM104.809 57.3202c.351.2012.351.5277 0 .7289-.352.2013-.92.2013-1.27 0-.351-.2012-.351-.5277 0-.7289.35-.2013.918-.2013 1.27 0zM108.129 55.413c.352.2012.352.5277 0 .7301-.35.2013-.919.2013-1.269 0-.351-.2024-.351-.5289 0-.7301.35-.2013.919-.2013 1.269 0zM111.45 53.5058c.351.2024.351.5288 0 .7301-.35.2012-.918.2012-1.269 0-.352-.2013-.352-.5277 0-.7301.351-.2013.919-.2013 1.269 0zM114.772 51.5997c.35.2013.35.5277 0 .729-.351.2012-.92.2012-1.271 0-.351-.2013-.351-.5277 0-.729.351-.2012.92-.2012 1.271 0zM118.093 49.6925c.35.2013.35.5277 0 .729-.351.2024-.92.2024-1.271 0-.35-.2013-.35-.5277 0-.729.351-.2012.92-.2012 1.271 0zM121.413 47.7853c.352.2013.352.5277 0 .7301-.351.2013-.919.2013-1.27 0-.35-.2024-.35-.5288 0-.7301.351-.2013.919-.2013 1.27 0zM124.734 45.8793c.351.2012.351.5277 0 .7289-.351.2013-.919.2013-1.269 0-.351-.2012-.351-.5277 0-.7289.35-.2025.918-.2025 1.269 0zM128.055 43.9721c.351.2012.351.5277 0 .7289-.35.2013-.919.2013-1.27 0-.351-.2012-.351-.5277 0-.7289.351-.2013.92-.2013 1.27 0zM70.3258 72.5779c.3494-.2025.9188-.2025 1.2694-.0012.3517.2012.3529.5277.0023.7289-.3494.2025-.9188.2025-1.2694.0012-.3517-.2012-.3529-.5277-.0023-.7289zM74.9211 70.6683c.3505.2013.3505.5277 0 .729-.3506.2012-.9201.2012-1.2706 0-.3506-.2013-.3506-.5277 0-.729.3505-.2012.92-.2012 1.2706 0zM78.2411 68.7611c.3517.2013.3517.5277 0 .7301-.3506.2013-.9189.2013-1.2695 0-.3506-.2024-.3506-.5288 0-.7301.3506-.2012.9189-.2012 1.2695 0zM81.5622 66.8551c.3506.2012.3506.5277 0 .7289-.3505.2013-.9188.2013-1.2694 0-.3517-.2012-.3517-.5277 0-.7289.3506-.2025.9189-.2025 1.2694 0zM84.8834 64.9479c.3506.2012.3506.5277 0 .7289-.3506.2013-.92.2013-1.2706 0-.3506-.2012-.3506-.5277 0-.7289.3506-.2013.92-.2013 1.2706 0zM88.2046 63.0406c.3506.2013.3506.5277 0 .729-.3506.2024-.92.2024-1.2706 0-.3506-.2013-.3506-.5277 0-.729.3506-.2012.92-.2012 1.2706 0zM91.5257 61.1334c.3506.2025.3506.5289 0 .7302-.3505.2012-.92.2012-1.2705 0-.3506-.2013-.3506-.5277 0-.7302.3505-.2012.92-.2012 1.2705 0zM94.8457 59.2274c.3506.2013.3506.5277 0 .7289-.3505.2013-.9188.2013-1.2694 0-.3506-.2012-.3506-.5276 0-.7289.3506-.2012.9189-.2012 1.2694 0zM98.1669 57.3202c.3506.2012.3506.5277 0 .7289-.3506.2013-.9188.2013-1.2694 0-.3518-.2012-.3518-.5277 0-.7289.3506-.2013.9188-.2013 1.2694 0zM101.488 55.413c.351.2012.351.5277 0 .7301-.35.2013-.92.2013-1.27 0-.3511-.2024-.3511-.5289 0-.7301.35-.2013.92-.2013 1.27 0zM104.809 53.5069c.351.2013.351.5277 0 .729-.35.2012-.92.2012-1.27 0-.351-.2013-.351-.5277 0-.729.35-.2024.92-.2024 1.27 0zM108.129 51.5997c.352.2013.352.5277 0 .729-.35.2012-.919.2012-1.269 0-.351-.2013-.351-.5277 0-.729.35-.2012.919-.2012 1.269 0zM111.45 49.6925c.351.2013.351.5277 0 .729-.35.2024-.918.2024-1.269 0-.352-.2013-.352-.5277 0-.729.351-.2012.919-.2012 1.269 0zM114.772 47.7853c.35.2013.35.5277 0 .7301-.351.2013-.92.2013-1.271 0-.351-.2024-.351-.5288 0-.7301.351-.2013.92-.2013 1.271 0zM118.093 45.8793c.35.2012.35.5277 0 .7289-.351.2013-.92.2013-1.271 0-.35-.2012-.35-.5277 0-.7289.351-.2025.92-.2025 1.271 0zM121.413 43.9721c.352.2012.352.5277 0 .7289-.351.2013-.919.2013-1.27 0-.35-.2012-.35-.5277 0-.7289.351-.2013.919-.2013 1.27 0zM124.734 42.0648c.351.2013.351.5277 0 .729-.351.2024-.919.2024-1.269 0-.351-.2013-.351-.5277 0-.729.35-.2012.918-.2012 1.269 0zM66.9764 70.6508c.3494-.2013.9176-.2025 1.2694-.0012.3517.2012.3529.5277.0023.7289-.3506.2025-.9188.2025-1.2694.0012-.3518-.2001-.3529-.5277-.0023-.7289zM71.5716 68.7412c.3506.2013.3506.5277 0 .729-.3517.2024-.92.2024-1.2705 0-.3506-.2013-.3506-.5277 0-.729.3505-.2012.9188-.2012 1.2705 0zM74.8917 66.834c.3506.2024.3506.5289 0 .7301-.3506.2013-.9189.2013-1.2695 0-.3517-.2012-.3517-.5277 0-.7301.3506-.2012.9189-.2012 1.2695 0zM78.2128 64.928c.3506.2012.3506.5277 0 .7289-.3506.2013-.92.2013-1.2706 0-.3506-.2012-.3506-.5277 0-.7289.3506-.2013.92-.2013 1.2706 0zM81.534 63.0208c.3506.2012.3506.5277 0 .7289-.3506.2013-.92.2013-1.2706 0-.3506-.2012-.3506-.5277 0-.7289.3506-.2013.92-.2013 1.2706 0zM84.854 61.1136c.3518.2012.3518.5277 0 .7301-.3506.2012-.9188.2012-1.2694 0-.3506-.2024-.3506-.5289 0-.7301.3506-.2013.9188-.2013 1.2694 0zM88.1752 59.2063c.3505.2025.3505.5289 0 .7302-.3506.2012-.9189.2012-1.2695 0-.3505-.2013-.3505-.5277 0-.7302.3506-.2012.9189-.2012 1.2695 0zM91.4963 57.3003c.3506.2013.3506.5277 0 .729-.3506.2012-.9188.2012-1.2706 0-.3505-.2013-.3505-.5277 0-.729.3518-.2012.92-.2012 1.2706 0zM94.8175 55.3931c.3506.2012.3506.5277 0 .7289-.3506.2013-.92.2013-1.2706 0-.3506-.2012-.3506-.5277 0-.7289.3506-.2013.92-.2013 1.2706 0zM98.1387 53.4859c.3506.2012.3506.5289 0 .7301-.3506.2013-.92.2013-1.2706 0-.3506-.2012-.3506-.5289 0-.7301.3506-.2013.92-.2013 1.2706 0zM101.459 51.5798c.35.2013.35.5277 0 .729-.351.2012-.919.2012-1.27 0-.3503-.2013-.3503-.5277 0-.729.351-.2012.919-.2012 1.27 0zM104.78 49.6726c.35.2013.35.5277 0 .729-.351.2012-.919.2012-1.27 0-.351-.2013-.351-.5277 0-.729.351-.2012.919-.2012 1.27 0zM108.101 47.7654c.351.2013.351.5277 0 .7301-.351.2013-.919.2013-1.271 0-.35-.2024-.35-.5288 0-.7301.352-.2012.92-.2012 1.271 0zM111.422 45.8582c.351.2024.351.5289 0 .7301-.35.2013-.92.2013-1.27 0-.351-.2012-.351-.5277 0-.7301.35-.2012.92-.2012 1.27 0zM114.743 43.9522c.351.2012.351.5277 0 .7289-.351.2013-.92.2013-1.27 0-.351-.2012-.351-.5277 0-.7289.35-.2013.919-.2013 1.27 0zM118.063 42.045c.351.2012.351.5277 0 .7289-.35.2013-.918.2013-1.269 0-.351-.2012-.351-.5277 0-.7289.351-.2013.919-.2013 1.269 0zM121.385 40.1377c.35.2013.35.5277 0 .7302-.351.2012-.92.2012-1.271 0-.351-.2025-.351-.5289 0-.7302.352-.2012.92-.2012 1.271 0zM63.6552 68.7436c.3494-.2013.9188-.2025 1.2694-.0012.3518.2012.3529.5277.0023.7289-.3494.2025-.9188.2025-1.2694.0024-.3517-.2013-.3529-.5277-.0023-.7301zM68.2504 66.834c.3506.2024.3506.5289 0 .7301-.3505.2013-.9199.2013-1.2705 0-.3506-.2012-.3506-.5277 0-.7301.3506-.2012.92-.2012 1.2705 0zM71.5716 64.928c.3506.2012.3506.5277 0 .7289-.3517.2013-.92.2013-1.2705 0-.3506-.2012-.3506-.5277 0-.7289.3505-.2013.9188-.2013 1.2705 0zM73.6222 63.0208c.3506-.2013.9189-.2013 1.2695 0 .3506.2012.3506.5277 0 .7289-.3506.2013-.9189.2013-1.2695 0-.3517-.2012-.3517-.5277 0-.7289-.3517.2012.3506-.2013 0 0zM98.1387 49.6726c.3506.2013.3506.5277 0 .729-.3506.2012-.92.2012-1.2706 0-.3506-.2013.92-.9302 1.2706-.729zM101.459 47.7654c.35.2013.35.5277 0 .7301-.351.2013-.919.2013-1.27 0-.3503-.2024.919-.9313 1.27-.7301zM103.51 45.8582c.351-.2012.919-.2012 1.27 0 .35.2024.35.5289 0 .7301-.351.2013-.919.2013-1.27 0-.35-.2012-.35-.5277 0-.7301-.35.2024.351-.2012 0 0zM108.101 43.9522c.351.2012.351.5277 0 .7289-.351.2013-.919.2013-1.271 0-.35-.2012-.35-.5277 0-.7289.352-.2013.92-.2013 1.271 0zM111.422 42.0449c.351.2013.351.5277 0 .729-.35.2024-.92.2024-1.27 0-.351-.2013-.351-.5277 0-.729.35-.2012.92-.2012 1.27 0zM114.743 40.1377c.351.2013.351.5277 0 .7302-.351.2012-.92.2012-1.27 0-.351-.2025-.351-.5289 0-.7302.35-.2012.919-.2012 1.27 0zM118.063 38.2317c.351.2012.351.5277 0 .729-.35.2012-.918.2012-1.269 0-.351-.2013-.351-.5278 0-.729.351-.2024.919-.2024 1.269 0zM133.449 43.9908c.351-.2024.919-.2024 1.271-.0012.35.2001.352.5265.002.729-.35.2012-.919.2024-1.27.0011-.351-.2012-.352-.5277-.003-.7289zM130.128 42.0836c.351-.2025.919-.2025 1.271-.0012.351.2012.353.5277.002.7289-.351.2024-.919.2025-1.271.0012-.35-.2013-.351-.5277-.002-.7289zM134.723 40.174c.352.2013.352.5277 0 .729-.35.2024-.918.2024-1.269.0011-.351-.2024-.351-.5288 0-.7301.351-.2012.919-.2012 1.269 0zM126.808 40.1763c.35-.2012.919-.2024 1.27-.0011.351.2012.352.5277.002.7289-.35.2025-.919.2025-1.27.0024-.351-.2013-.352-.5277-.002-.7302zM131.403 38.2668c.351.2024.351.5289 0 .7301-.35.2013-.92.2013-1.27 0-.351-.2012-.351-.5277 0-.7301.35-.2013.92-.2013 1.27 0zM123.458 38.2492c.35-.2012.918-.2024 1.27-.0011.352.2012.353.5277.002.7301-.35.2012-.918.2024-1.27.0012-.351-.2013-.352-.5277-.002-.7302zM128.053 36.3409c.35.2012.35.5277 0 .7289-.351.2013-.919.2013-1.27 0-.35-.2012-.35-.5277 0-.7289.351-.2013.919-.2013 1.27 0zM131.374 34.4337c.351.2012.351.5277 0 .7289-.351.2013-.919.2013-1.269 0-.352-.2012-.352-.5277 0-.7289.35-.2013.918-.2013 1.269 0zM120.138 36.3432c.349-.2024.918-.2024 1.269-.0012.352.2001.353.5266.002.729-.349.2012-.919.2024-1.269.0012-.352-.2013-.353-.5277-.002-.729-.351.2013.349-.2024 0 0zM124.733 34.4337c.35.2012.35.5277 0 .7289-.351.2013-.92.2013-1.271 0-.35-.2012.92-.9302 1.271-.7289z"/>
  <path fill="#379BA7" d="M133.34 34.6195c0-.0304.002-.0608 0-.0924v-1.8627h-1.217c-.084-.0562-.167-.1135-.26-.1674L81.7692 3.73324c-2.1953-1.26016-6.0282-1.1022-8.5635.3522L3.7245 43.9836c-.45412.2598-.83294.5452-1.14.8436h-.9541v4.3281c.02118.7828.50586 1.5258 1.4788 2.0851l50.0941 28.7637c2.1941 1.2602 6.0283 1.1022 8.5624-.3522l69.4823-39.8981c1.34-.7687 2.041-1.7457 2.087-2.683l.005-1.1677v-1.2836"/>
  <path fill="#1A1613" d="M133.335 37.0534l.005-1.1678v-1.2835c0-.0304.002-.062 0-.0925v-1.8627h-1.217c-.084-.0562-.167-.1135-.26-.1673l-18.582-10.6699c-1.414.0316-2.442.1112-2.872.2527-2.643.8729-50.728 28.4011-51.588 32.1395-.86 3.7372-2.4541 22.4536-2.4541 22.4536v4.1596c1.8412.1006 3.8588-.2972 5.3988-1.1818l69.4823-39.897c1.34-.7687 2.041-1.7457 2.087-2.6829"/>
  <path fill="#1A1613" d="M2.07155 45.2671v3.8893c.01764.6482.45293 1.2403 1.25881 1.7036L53.4233 79.6238c2.0706 1.1899 5.7141 1.0308 8.1223-.3534l69.4814-39.897c1.147-.6575 1.827-1.5047 1.867-2.3237l.006-2.4724-.001-1.4742h-.909l-.11-.0726c-.12-.0807-.174-.117-.233-.1498L81.5492 4.11346c-2.0706-1.18879-5.7118-1.032-8.1224.35219L3.94448 44.3638c-.40824.234-.76235.4961-1.05176.7769l-.12824.1264h-.69293zM56.9209 81.2853c-1.4752 0-2.8847-.2961-3.9388-.901L2.88919 51.6205c-1.07059-.6142-1.67411-1.4859-1.7-2.4524v-4.7786h1.21999c.31412-.2855.68118-.5487 1.09412-.7863L72.9856 3.7051c2.6506-1.52342 6.6894-1.68022 9.0047-.35336L132.083 32.1167c.06.0351.117.0714.174.1088h1.524l-.005 4.8488c-.056 1.1583-.875 2.2383-2.308 3.0609L61.9868 80.0321c-1.4447.8284-3.3011 1.2532-5.0659 1.2532"/>
  <path fill="#379BA7" d="M53.2034 75.8224L3.10923 47.0586c-2.19529-1.2602-1.92-3.4622.6153-4.9166L73.2057 2.24384c2.5353-1.454399 6.3682-1.612359 8.5635-.3522L131.863 30.6554c2.194 1.2602 1.919 3.4623-.615 4.9166L61.7657 75.4702c-2.5341 1.4544-6.3682 1.6123-8.5623.3522z"/>
  <path fill="#1A1613" d="M78.0516 1.47384c-1.6036 0-3.3.38962-4.6247 1.15017L3.94451 42.5222c-1.19176.6833-1.87528 1.5585-1.87528 2.4009 0 .6646.44705 1.2883 1.25999 1.7551L53.4233 75.442c2.0706 1.19 5.7141 1.0308 8.1224-.3522l69.4813-39.8981c1.193-.6845 1.876-1.5597 1.876-2.401 0-.6646-.448-1.2883-1.261-1.7551L81.5492 2.27182c-.9318-.53706-2.1835-.79798-3.4976-.79798zM56.9222 77.1035c-1.4753 0-2.8859-.296-3.94-.9009L2.88805 47.4388c-1.09765-.6307-1.70118-1.5246-1.70118-2.5157 0-1.1642.8447-2.3167 2.31647-3.1615L72.9857 1.86346C75.6386.343546 79.6774.184414 81.9904 1.5101L132.083 30.275c1.098.6307 1.703 1.5246 1.703 2.5157 0 1.1642-.845 2.3156-2.318 3.1627l-69.4811 39.897c-1.4448.8284-3.3012 1.2531-5.0647 1.2531"/>
  <path fill="#056575" d="M57.9822 73.0259l-.2141-.1217L9.46333 45.1666 75.8281 7.05979l.2141.12168L124.347 34.9191 57.9822 73.0259z"/>
  <path fill="#DDECF0" d="M58.2422 70.2306L9.08096 42.0015 76.6492 3.20323 125.81 31.4311 58.2422 70.2306"/>
  <path fill="#1A1613" d="M9.9633 42.0016L58.2421 69.724l66.6869-38.2928L76.6504 3.70875 9.9633 42.0016zm48.2788 28.7345l-.22-.1252L8.19859 42.0016 76.6504 2.69663l.22.1252L126.694 31.4312 58.2421 70.7361z"/>
  <path fill="#379BA7" d="M66.4645 18.7862l1.0624-4.107c.1094-.4224.7941-.7137 1.5294-.6505.7341.062 1.2424.4551 1.133.8775l-.6248 2.4174c-.0588.2246.2659.4212.66.4002l10.5283-.5675c.74-.0398 1.3964.2714 1.4659.6973.0694.4248-.4742.8015-1.2142.8413l-13.4905.7278c-.6259.0327-1.1412-.2797-1.0495-.6365"/>
  <path fill="#1A1613" d="M66.9045 18.8459c.0706.0597.2671.1556.5859.1393l13.4894-.7278c.3965-.0222.6765-.1568.7753-.282.0094-.1662-.3929-.3978-.9788-.3814l-10.527.5686c-.4012.0293-.7742-.117-.9753-.3592-.14-.1708-.1895-.3838-.1377-.5874l.6259-2.4185c-.1012-.1591-.3624-.2995-.7447-.3323-.58-.0492-1.0271.1849-1.0624.3241l-1.0506 4.0566zm.5177 1.018c-.5118 0-.9694-.1802-1.2177-.4809-.1717-.2094-.2317-.4598-.167-.7067l1.0623-4.107c.1659-.64 1.0294-1.0624 1.993-.9793.6023.0515 1.1153.2972 1.3717.6564.1659.2328.22.5066.153.7699l-.5847 2.2547c.0435.0106.0976.0164.1694.0164l10.5258-.5687c.9953-.0702 1.8165.4037 1.9259 1.0636.0424.2598-.0329.5242-.2117.743-.28.3475-.8094.5745-1.4141.6073l-13.4894.7278c-.04.0023-.0789.0035-.1165.0035"/>
  <path fill="#379BA7" d="M103.985 37.0674l-21.1123-12.123c-.5258-.3019-.5258-.791 0-1.0929.5247-.3019 1.3777-.3019 1.9024 0l21.1119 12.1231c.526.3019.526.791 0 1.0928-.525.3007-1.378.3007-1.902 0z"/>
  <path fill="#1A1613" d="M83.8245 24.0643c-.2682 0-.5377.055-.7318.1673-.1423.0807-.1729.1533-.1729.1661 0 .0129.0306.0854.1729.1662L104.204 36.687c.39.2234 1.075.2234 1.463 0 .142-.0819.173-.1533.173-.1662 0-.014-.031-.0854-.174-.1685L84.5551 24.2316c-.1941-.1123-.4624-.1673-.7306-.1673zm21.1115 13.6652c-.422 0-.843-.0936-1.173-.282L82.6516 25.3256c-.3906-.2258-.6142-.5628-.6142-.9279 0-.365.2236-.702.6142-.9267.6576-.3767 1.6882-.3791 2.3446 0l21.1118 12.1219c.391.2259.614.564.614.9291-.001.3639-.223.7008-.614.9255-.329.1884-.751.282-1.172.282z"/>
  <path fill="#379BA7" d="M53.1881 26.4092l1.0623-4.107c.1094-.4212.7941-.7125 1.5294-.6505.7353.0632 1.2424.4563 1.133.8775l-.6247 2.4174c-.0588.2246.2659.4224.66.4001l10.5282-.5674c.74-.0398 1.3965.2726 1.4659.6973.0694.4248-.4741.8015-1.2141.8413l-13.4906.7278c-.6259.0339-1.1412-.2785-1.0494-.6365"/>
  <path fill="#1A1613" d="M53.628 26.4689c.0706.0608.2647.1556.5859.1392l13.4894-.7278c.3953-.021.6741-.1579.7753-.282.0083-.1685-.4106-.4036-.9788-.3814l-10.5271.5675c-.4164.028-.7741-.1159-.9753-.3581-.14-.1708-.1894-.3861-.1364-.5885l.6247-2.4185c-.1-.158-.3636-.2984-.7447-.33-.5883-.0573-1.0271.1837-1.0624.3218l-1.0506 4.0578zm.5177 1.0179c-.5106 0-.9695-.179-1.2165-.4797-.1718-.2083-.2318-.4587-.1682-.7056v-.0011l1.0623-4.107c.1659-.64 1.0271-1.06 1.9941-.9793.6012.0515 1.1153.2972 1.3706.6564.1659.234.22.5055.153.7687l-.5847 2.2547c.0447.0117.0988.0153.1682.0153l10.5271-.5675c.9976-.0632 1.8188.4036 1.9258 1.0647.0424.2598-.0329.5219-.2117.743-.2812.3475-.8094.5745-1.4142.6061l-13.4905.7278c-.0389.0023-.0777.0035-.1153.0035"/>
  <path fill="#379BA7" d="M90.708 44.6903l-21.1117-12.123c-.5259-.3007-.5259-.791 0-1.0917.5258-.3019 1.3776-.3019 1.9023 0l21.1118 12.1219c.5258.3019.5258.791 0 1.0928-.5247.3019-1.3777.3019-1.9024 0z"/>
  <path fill="#1A1613" d="M70.548 31.6873c-.2682 0-.5376.0561-.7318.1684-.1423.0808-.1729.1521-.1729.165 0 .0141.0306.0854.1729.1662l21.1118 12.123c.3882.2247 1.073.2247 1.4624 0 .1435-.0819.1741-.1532.1741-.1661-.0012-.0129-.0306-.0854-.1741-.1661l-21.1118-12.122c-.1941-.1123-.4624-.1684-.7306-.1684zm21.1106 13.6663c-.4212 0-.8424-.0936-1.1718-.2819L69.3751 32.9474c-.3906-.2246-.6141-.5616-.6141-.9267 0-.3639.2235-.7009.6141-.9267.6564-.3767 1.687-.3767 2.3447 0l21.1117 12.1231c.3906.2235.6142.5616.6153.9255 0 .3651-.2235.7021-.6153.9279-.3294.1895-.7505.2831-1.1729.2831z"/>
  <path fill="#379BA7" d="M39.9116 34.0335l1.0624-4.1069c.1094-.4224.7941-.7138 1.5294-.6506.7353.062 1.2423.4552 1.1329.8776l-.6247 2.4173c-.0588.2247.2659.4213.66.4002l10.5282-.5675c.74-.0398 1.3965.2715 1.4659.6962.0694.4247-.4741.8015-1.2141.8425l-13.4906.7266c-.6259.0339-1.1412-.2785-1.0494-.6354"/>
  <path fill="#1A1613" d="M40.3516 34.0929c.0705.0597.2776.1486.5847.1381l13.4917-.7266c.3953-.0222.6741-.158.7753-.282.0071-.1696-.4118-.4001-.9788-.3826l-10.5282.5687c-.3965.0269-.7742-.117-.9753-.3604-.14-.1697-.1894-.3838-.1365-.5886l.6247-2.4162c-.1-.1579-.3635-.2983-.7435-.3299-.5965-.0632-1.0283.1837-1.0636.3218l-1.0505 4.0577zm.5141 1.0168c-.5071 0-.9659-.1778-1.2141-.4785-.1706-.2095-.2306-.4599-.1671-.7067v-.0012l1.0623-4.1069c.1659-.6401 1.0212-1.0613 1.9942-.9782.6023.0526 1.1153.296 1.3694.6564.167.2317.2212.5054.1529.7675l-.5835 2.2559c.0424.0117.0918.0164.1682.0152l10.5283-.5686c.9894-.0702 1.8176.4037 1.9247 1.0659.0423.2574-.033.5219-.2106.7407-.28.3487-.8094.5768-1.4141.6084l-13.4918.7266c-.04.0024-.08.0035-.1188.0035"/>
  <path fill="#379BA7" d="M77.4315 52.3135L56.3198 40.1916c-.5259-.3019-.5259-.791 0-1.0928.5258-.3019 1.3776-.3019 1.9023 0l21.1118 12.1219c.5259.3018.5259.7909 0 1.0928-.5247.3019-1.3777.3019-1.9024 0z"/>
  <path fill="#1A1613" d="M57.2716 39.3115c-.2683 0-.5365.0562-.7306.1673-.1435.082-.1741.1522-.1741.1662 0 .014.0306.0842.1741.1661l21.1106 12.122c.3882.2234 1.0729.2234 1.4611 0 .1436-.0808.1753-.1521.1753-.1662 0-.0129-.0317-.0842-.1753-.165L58.0021 39.4788c-.1941-.1111-.4635-.1673-.7305-.1673zm21.1105 13.6641c-.4211 0-.8435-.0936-1.1717-.282L56.0998 40.5717c-.3906-.2247-.6153-.5628-.6153-.9267 0-.3651.2247-.702.6153-.9267.6565-.3768 1.6859-.3768 2.3435 0l21.1106 12.1219c.3906.2258.6165.5628.6165.9267 0 .3651-.2259.7021-.6165.9267-.3282.1884-.7494.282-1.1718.282z"/>
  <path fill="#379BA7" d="M26.6022 41.675l1.0635-4.1069c.1083-.4224.793-.7137 1.5283-.6505.7353.0631 1.2423.4551 1.1329.8775l-.6247 2.4174c-.0588.2246.2659.4212.6612.4001l10.5271-.5675c.74-.0397 1.3964.2727 1.4658.6974.0695.4247-.4741.8015-1.2141.8413l-13.4906.7278c-.6259.0339-1.1411-.2785-1.0494-.6366"/>
  <path fill="#1A1613" d="M27.0434 41.7347c.0694.0608.2905.1521.5847.138l13.4894-.7266c.3953-.021.6753-.1579.7764-.282.0083-.1673-.3882-.4013-.9788-.3814l-10.5282.5675c-.393.0328-.773-.1135-.9742-.3581-.14-.1696-.1905-.3849-.1376-.5885l.6247-2.4185c-.1012-.158-.3635-.2984-.7435-.33-.58-.0643-1.0271.1837-1.0635.3218l-1.0494 4.0578zm.5129 1.0168c-.5083 0-.9647-.1779-1.213-.4786-.1717-.2094-.2317-.4598-.1682-.7067l1.0635-4.1069c.1647-.6401 1.0165-1.0613 1.993-.9794.6023.0515 1.1141.2972 1.3706.6552.1659.2341.22.5067.1517.77l-.5823 2.2547c.0423.0117.1023.0164.167.0152l10.5283-.5675c.987-.0608 1.8164.4025 1.9247 1.0636.0423.2609-.033.523-.2106.7442-.2824.3463-.8106.5745-1.4153.606l-13.4894.7267c-.04.0023-.0812.0035-.12.0035"/>
  <path fill="#379BA7" d="M64.1221 59.9562L43.0104 47.8331c-.5259-.3018-.5259-.7909 0-1.0928.5259-.3007 1.3776-.3007 1.9035 0l21.1106 12.1231c.5259.3018.5259.7909.0012 1.0928h-.0012c-.5247.3019-1.3765.3019-1.9024 0z"/>
  <path fill="#1A1613" d="M43.9622 46.9532c-.2682 0-.5377.0562-.7318.1685-.1423.0808-.1729.151-.1729.165 0 .014.0306.0842.1729.1662l21.1141 12.123c.3883.2235 1.0706.2235 1.4589 0 .1447-.0819.1753-.1533.1753-.1661 0-.0141-.0306-.0854-.1741-.1662L44.694 47.1217c-.1953-.1123-.4636-.1685-.7318-.1685zm21.1117 13.6664c-.4223 0-.8435-.0948-1.1717-.2831L42.7893 48.2134c-.3906-.2247-.6142-.5616-.6142-.9267 0-.3639.2236-.7009.6142-.9267.6564-.3768 1.687-.3768 2.3458 0l21.1106 12.1231c.3906.2246.6153.5616.6153.9267 0 .3639-.2247.7008-.6153.9267-.3282.1883-.7506.2831-1.1718.2831zM117.983 14.9963l-.022.1931-5.006-2.8749c-.087.0632-.166.1287-.268.1872-1.412.8109-2.234 2.1062-3.646 1.2953-1.413-.8109-2.88-1.08-1.468-1.892.102-.0585.217-.103.327-.1533l.46-3.75122-1.948-.67045-.3 3.39437-5.533-5.51687c-.9721-.55812-2.6333-.28783-2.9509.47974l-.7047 1.70595-.6436-.06319v4.08827c0 .014-.0011.028 0 .0432v.0117h.0036c.0223.2458.1953.4809.5059.66L112.006 20.87c.424.2446 1.036.3464 1.622.2715l5.571-.7102c.896-.1147 1.409-.5757 1.37-1.0379v-4.0238l-2.586-.3733"/>
  <path fill="#1A1613" d="M96.7198 11.4183l.0012.014c.0106.103.1176.2235.2882.3218l15.2178 8.7357c.34.1966.858.2773 1.345.2165l5.57-.7103c.668-.0842 1.003-.3826.987-.5651l-.001-3.6822-1.758-.2539-.047.4095-5.341-3.0679c-.023.0152-.048.0304-.072.0456-.356.2036-.675.4423-.983.674-.894.6681-1.818 1.3619-3.107.6213-.311-.179-.626-.3312-.91-.4681-.744-.3592-1.333-.6435-1.353-1.1887-.015-.4681.417-.7781.795-.9946.035-.0199.589.3428.627.3241V8.44394l-1.174-.55461-.338 3.81207-6.155-6.13934c-.464-.24103-1.1816-.27731-1.7334-.09244-.2788.09478-.4811.2387-.5423.38496l-.8306 2.00901-.4847-.04915-.0012 3.60386zm16.5292 10.1866c-.54 0-1.064-.1252-1.464-.3557l-15.2169-8.7358c-.213-.1228-.3848-.2726-.5071-.4399l-.22.1088-.0024-5.33668.8024.0784.58-1.40291c.16-.38846.5412-.70204 1.0729-.88223.8177-.27497 1.8251-.20126 2.5061.18838l.092.07137 4.863 4.84877.264-2.97782 2.842 1.00274v4.64048l-.778-.2621c-.162.0714-.228.0995-.288.1346-.158.0889-.249.1579-.301.2036.161.1216.523.2972.801.4305.302.1463.635.3078.966.4973.752.433 1.222.1217 2.135-.5628.314-.2352.671-.5019 1.071-.7324.058-.0328.107-.0702.156-.1077l.233-.1778.319.0971 4.477 2.5718 3.089.4458c.154.0222.269.1544.269.3101v4.1326c.062.7126-.66 1.3339-1.756 1.4732l-5.569.7113c-.145.0176-.291.027-.436.027"/>
  <path fill="#DDECF0" d="M120.06 14.7097l-7.105-4.08c-.087.0632-.166.1299-.268.1884-1.412.8108-3.701.8108-5.114 0-1.412-.8109-1.412-2.12604 0-2.9369.102-.0585.217-.10297.327-.15329l-7.321-4.20406c-.9722-.55812-2.6333-.28782-2.951.47974l-1.3059 3.15919c-.1411.34049.0353.69852.4671.94541l15.2168 8.73811c.424.2433 1.036.3463 1.622.2714l5.571-.7114c1.353-.172 1.84-1.1338.861-1.6966"/>
  <path fill="#1A1613" d="M99.3386 3.66773c-.2624 0-.5259.03861-.76.117-.2788.09595-.4812.23986-.5423.38612l-1.3059 3.15918c-.0741.17902.1953.35103.2788.40017l15.2178 8.7346c.34.1954.858.2784 1.345.2176l5.57-.7114c.66-.0843.957-.3639.988-.5219.032-.1603-.215-.3159-.291-.3603l-6.857-3.9373c-.023.0164-.048.0316-.072.0456-1.56.8939-4 .8928-5.558.0012-.825-.4739-1.28-1.1303-1.28-1.8499 0-.61077.331-1.17826.938-1.62522l-6.651-3.81911c-.272-.15562-.6439-.23634-1.0204-.23634zM113.249 17.5798c-.54 0-1.065-.124-1.465-.3545L96.568 8.48958c-.6247-.36038-.8811-.94659-.6529-1.49418l1.3059-3.15919c.16-.38846.5411-.70088 1.0729-.88224.8177-.27496 1.8251-.20008 2.5061.18955l8.061 4.6288-.778.35337c-.162.07254-.228.09946-.288.13573-.543.31007-.841.69618-.841 1.08698 0 .39198.298.7793.839 1.0905 1.267.7255 3.409.7255 4.674-.0012.057-.0327.107-.0713.156-.1088l.233-.1767.319.0972 7.105 4.08c.547.3147.815.798.715 1.2929-.127.6318-.795 1.0987-1.741 1.2204l-5.57.7102c-.144.0187-.29.0269-.435.0269"/>
  <path fill="#DDECF0" d="M120.907 28.7622L81.5163 6.14361c-.9471-.54291-.8283-1.493.2647-2.12016l2.4365-1.3994c1.0929-.62715 2.7459-.69502 3.6929-.15211L127.301 25.0905c.946.5429.827 1.493-.266 2.1202l-2.435 1.3994c-1.093.6271-2.747.695-3.693.1521z"/>
  <path fill="#1A1613" d="M121.127 28.382c.81.4633 2.299.3954 3.252-.1522l2.436-1.3994c.428-.2445.684-.5511.684-.819 0-.2481-.227-.4329-.418-.5417L87.6892 2.85341c-.8082-.46685-2.2988-.39548-3.2506.15095L82.001 4.40375c-.4271.24572-.6835.5511-.6824.81905 0 .24805.2283.43058.4189.54057L121.127 28.382zm1.388 1.1876c-.679 0-1.33-.1416-1.829-.4271L81.2963 6.52391c-.5553-.31825-.86-.7816-.86-1.30111-.0012-.59322.4094-1.1689 1.1235-1.57959l2.4377-1.3994c1.2329-.70555 3.0494-.77459 4.1329-.15211l39.3916 22.6174c.554.3194.859.7816.859 1.3035-.001.592-.409 1.1689-1.125 1.5784l-2.436 1.3994c-.666.3838-1.505.5792-2.305.5792"/>
  <path fill="#379BA7" d="M108.568 23.5483L88.8728 12.2396c-.473-.2727-.4141-.7465.1329-1.0601l1.2176-.6997c.5459-.3136 1.373-.3487 1.8459-.0761l19.6958 11.3087c.474.2715.414.7465-.132 1.0601l-1.219.6997c-.546.3136-1.373.3475-1.846.0761z"/>
  <path fill="#1A1613" d="M91.2728 10.6567c-.2871 0-.5977.0702-.8295.2035l-1.2176.6997c-.1847.1053-.2294.2013-.2306.2188.0024.0047.0271.0398.0988.0808l19.6941 11.3087c.34.1977.995.1603 1.405-.0761l1.219-.6997c.184-.1053.23-.2012.231-.2199-.002-.0047-.028-.0398-.099-.0796L91.8492 10.7842c-.147-.0854-.3553-.1275-.5764-.1275zm18.1012 13.5154c-.378.0012-.742-.0796-1.027-.2434L88.6528 12.62c-.3436-.1977-.5412-.5043-.54-.8413 0-.3779.2447-.7348.6717-.9793l1.2177-.6997c.6906-.39548 1.6729-.42942 2.2882-.0761l19.6956 11.3088c.343.1965.54.5031.54.8412 0 .378-.245.7337-.673.9794l-1.219.6997c-.37.2118-.824.3194-1.26.3194"/>
</svg>
