<svg width="181" height="40" viewBox="0 0 181 40" fill="none" xmlns="http://www.w3.org/2000/svg">
<path fill-rule="evenodd" clip-rule="evenodd" d="M8.88457 12.5435H0V14.9596H3.0971V22.8312H5.78748V14.9596H8.88457V12.5435ZM16.8736 12.5435H12.8224V22.8312H15.5128V19.6358H16.8736C19.1417 19.6358 20.8624 18.2174 20.8624 16.0818C20.8624 13.8996 19.1417 12.5435 16.8736 12.5435ZM16.8894 14.8816C17.6402 14.8816 18.125 15.3648 18.125 16.0818C18.125 16.8144 17.6402 17.2977 16.8894 17.2977H15.5128V14.8816H16.8894ZM30.1655 22.8312H33.0592L28.3666 12.3564H27.5063L22.8137 22.8312H25.7076L26.0829 21.9739H29.79L30.1655 22.8312ZM28.8359 19.8228H27.0371L27.9443 17.438L28.8359 19.8228ZM46.0225 12.5435H43.3321V16.3001H39.5624V12.5435H36.872V22.8312H39.5624V18.7161H43.3321V22.8312H46.0225V12.5435ZM55.8886 12.3564C52.7603 12.3564 50.3045 14.6634 50.3045 17.6874C50.3045 20.7269 52.7603 23.0182 55.873 23.0182C57.9534 23.0182 59.6739 22.0051 60.6125 20.2592L58.5634 18.872C57.9378 19.9319 57.0931 20.5555 55.873 20.5555C54.2307 20.5555 53.0575 19.4331 53.0575 17.703C53.0575 15.9727 54.2307 14.8192 55.873 14.8192C57.0931 14.8192 57.9378 15.4428 58.5634 16.5026L60.6125 15.1155C59.6739 13.3696 57.9534 12.3564 55.8886 12.3564ZM111.042 12.3564C107.913 12.3564 105.458 14.6634 105.458 17.6874C105.458 20.7269 107.913 23.0182 111.026 23.0182C113.107 23.0182 114.827 22.0051 115.766 20.2592L113.717 18.872C113.091 19.9319 112.246 20.5555 111.026 20.5555C109.384 20.5555 108.211 19.4331 108.211 17.703C108.211 15.9727 109.384 14.8192 111.026 14.8192C112.246 14.8192 113.091 15.4428 113.717 16.5026L115.766 15.1155C114.827 13.3696 113.107 12.3564 111.042 12.3564ZM127.212 12.5435H120.048V22.8312H127.399V20.4151H122.738V18.6226H125.929V16.378H122.738V14.9596H127.212V12.5435ZM135.873 12.5435H131.822V22.8312H134.513V19.6358H135.873C138.141 19.6358 139.862 18.2174 139.862 16.0818C139.862 13.8996 138.141 12.5435 135.873 12.5435ZM135.889 14.8816C136.64 14.8816 137.125 15.3648 137.125 16.0818C137.125 16.8144 136.64 17.2977 135.889 17.2977H134.513V14.8816H135.889ZM150.651 17.3132C151.042 16.8768 151.277 16.2845 151.277 15.5831C151.277 13.7594 149.76 12.5435 147.789 12.5435H144.066V22.8312H148.884C150.87 22.8312 152.372 21.5842 152.372 19.7761C152.372 18.5602 151.699 17.7341 150.651 17.3132ZM147.617 14.8037C148.258 14.8037 148.649 15.1621 148.649 15.7077C148.649 16.2534 148.258 16.6119 147.617 16.6119H146.647V14.8037H147.617ZM148.712 20.571H146.647V18.7628H148.712C149.337 18.7628 149.744 19.0591 149.744 19.6669C149.744 20.2748 149.337 20.571 148.712 20.571ZM165.022 12.3564L159.266 17.8432V12.5435H156.576V23.0182H157.436L163.192 17.4536V22.8312H165.883V12.3564H165.022ZM175.749 12.3564C172.62 12.3564 170.165 14.6634 170.165 17.6874C170.165 20.7269 172.62 23.0182 175.733 23.0182C177.813 23.0182 179.534 22.0051 180.473 20.2592L178.423 18.872C177.798 19.9319 176.953 20.5555 175.733 20.5555C174.091 20.5555 172.918 19.4331 172.918 17.703C172.918 15.9727 174.091 14.8192 175.733 14.8192C176.953 14.8192 177.798 15.4428 178.423 16.5026L180.473 15.1155C179.534 13.3696 177.813 12.3564 175.749 12.3564Z" fill="#151515"/>
<path fill-rule="evenodd" clip-rule="evenodd" d="M106.915 28.0434V28.4938C106.915 29.422 106.759 29.7359 106.389 29.7814V30.3228C107.038 30.2864 107.526 29.9225 107.526 28.7668V28.5622H108.092V30.2955H108.704V28.0434H106.915ZM110.421 27.9934C109.745 27.9934 109.211 28.5029 109.211 29.1672C109.211 29.836 109.745 30.3456 110.416 30.3456C111.088 30.3456 111.635 29.836 111.635 29.1672C111.635 28.5029 111.088 27.9934 110.421 27.9934ZM110.421 28.553C110.754 28.553 111.005 28.8169 111.005 29.1717C111.005 29.522 110.754 29.7814 110.421 29.7814C110.079 29.7814 109.837 29.5267 109.837 29.1717C109.837 28.8169 110.079 28.553 110.421 28.553ZM113.818 28.0434H112.138V30.2955H112.754V28.5622H113.818V28.0434ZM116.137 27.9934L114.831 29.2446V28.0434H114.215V30.3501H114.421L115.726 29.0944V30.2955H116.338V27.9934H116.137ZM118.055 27.9934C117.379 27.9934 116.845 28.5029 116.845 29.1672C116.845 29.836 117.379 30.3501 118.055 30.3501C118.502 30.3501 118.849 30.1272 119.036 29.7905L118.607 29.463C118.475 29.6495 118.31 29.7859 118.064 29.7859C117.712 29.7859 117.47 29.522 117.47 29.1672C117.47 28.8169 117.712 28.553 118.064 28.553C118.315 28.553 118.479 28.6894 118.607 28.8806L119.036 28.5484C118.849 28.2117 118.507 27.9934 118.055 27.9934ZM121.278 28.0389H119.237V28.5575H119.949V30.2955H120.561V28.5575H121.278V28.0389ZM123.579 27.9934L122.273 29.2446V28.0434H121.657V30.3501H121.863L123.168 29.0944V30.2955H123.78V27.9934H123.579ZM125.748 28.0434V28.9624C125.634 28.9988 125.51 29.0217 125.401 29.0217C125.095 29.0217 124.899 28.8488 124.899 28.4847V28.0434H124.287V28.5257C124.287 29.2036 124.753 29.5858 125.351 29.5858C125.501 29.5858 125.634 29.5585 125.748 29.5267V30.2955H126.364V28.0434H125.748ZM129.117 29.0398C129.117 28.4574 128.688 27.9934 128.053 27.9934C127.387 27.9934 126.871 28.5076 126.871 29.1717C126.871 29.836 127.391 30.3501 128.108 30.3501C128.455 30.3501 128.757 30.2273 129.012 30.0134L128.757 29.5949C128.574 29.7359 128.373 29.8224 128.127 29.8224C127.802 29.8224 127.565 29.6631 127.487 29.3765H129.076C129.094 29.2991 129.117 29.1672 129.117 29.0398ZM128.031 28.4893C128.291 28.4893 128.515 28.6576 128.519 28.9442H127.487C127.56 28.6622 127.77 28.4893 128.031 28.4893ZM130.679 27.9934C130.003 27.9934 129.469 28.5029 129.469 29.1672C129.469 29.836 130.003 30.3501 130.679 30.3501C131.126 30.3501 131.473 30.1272 131.66 29.7905L131.231 29.463C131.099 29.6495 130.934 29.7859 130.688 29.7859C130.336 29.7859 130.094 29.522 130.094 29.1672C130.094 28.8169 130.336 28.553 130.688 28.553C130.939 28.553 131.103 28.6894 131.231 28.8806L131.66 28.5484C131.473 28.2117 131.131 27.9934 130.679 27.9934ZM134.382 30.2955L133.45 29.0625L134.313 28.0434H133.605L132.756 29.0672V28.0434H132.14V30.2955H132.756V29.0762L133.678 30.2955H134.382ZM136.669 27.9934L135.363 29.2446V28.0434H134.747V30.3501H134.952L136.258 29.0944V30.2955H136.87V27.9934H136.669ZM139.623 29.0398C139.623 28.4574 139.194 27.9934 138.559 27.9934C137.893 27.9934 137.377 28.5076 137.377 29.1717C137.377 29.836 137.897 30.3501 138.614 30.3501C138.961 30.3501 139.262 30.2273 139.518 30.0134L139.262 29.5949C139.08 29.7359 138.879 29.8224 138.632 29.8224C138.308 29.8224 138.071 29.6631 137.993 29.3765H139.582C139.6 29.2991 139.623 29.1672 139.623 29.0398ZM138.536 28.4893C138.797 28.4893 139.02 28.6576 139.025 28.9442H137.993C138.066 28.6622 138.276 28.4893 138.536 28.4893ZM107.956 32.2288C107.645 32.2288 107.385 32.3471 107.23 32.5563V32.2788H106.663V35.35H107.28V34.3126C107.44 34.4855 107.677 34.5856 107.956 34.5856C108.59 34.5856 109.051 34.0806 109.051 33.4027C109.051 32.7247 108.595 32.2288 107.956 32.2288ZM107.841 34.026C107.554 34.026 107.266 33.8304 107.266 33.4027C107.266 32.9704 107.558 32.7839 107.841 32.7839C108.161 32.7839 108.421 33.025 108.421 33.4072C108.421 33.7893 108.156 34.026 107.841 34.026ZM111.654 33.2753C111.654 32.6929 111.225 32.2288 110.59 32.2288C109.923 32.2288 109.407 32.743 109.407 33.4072C109.407 34.0715 109.928 34.5856 110.645 34.5856C110.992 34.5856 111.293 34.4628 111.549 34.2489L111.293 33.8304C111.11 33.9714 110.91 34.0578 110.663 34.0578C110.339 34.0578 110.101 33.8986 110.024 33.612H111.613C111.631 33.5346 111.654 33.4027 111.654 33.2753ZM110.567 32.7247C110.827 32.7247 111.051 32.893 111.056 33.1797H110.024C110.097 32.8977 110.307 32.7247 110.567 32.7247ZM115.516 32.2788H114.904V34.0124H114.142V32.2788H113.53V34.0124H112.768V32.2788H112.156V34.531H115.516V32.2788ZM118.274 33.2753C118.274 32.6929 117.845 32.2288 117.21 32.2288C116.543 32.2288 116.028 32.743 116.028 33.4072C116.028 34.0715 116.548 34.5856 117.265 34.5856C117.612 34.5856 117.913 34.4628 118.169 34.2489L117.913 33.8304C117.731 33.9714 117.53 34.0578 117.283 34.0578C116.959 34.0578 116.722 33.8986 116.644 33.612H118.233C118.251 33.5346 118.274 33.4027 118.274 33.2753ZM117.187 32.7247C117.448 32.7247 117.671 32.893 117.676 33.1797H116.644C116.717 32.8977 116.927 32.7247 117.187 32.7247ZM120.858 32.2788H120.246V33.1023H119.393V32.2788H118.776V34.531H119.393V33.6256H120.246V34.531H120.858V32.2788ZM123.438 32.2288L122.132 33.48V32.2788H121.516V34.5856H121.721L123.027 33.3298V34.531H123.639V32.2288H123.438ZM125.214 32.2788C124.67 32.2788 124.264 32.5882 124.264 33.1206C124.264 33.4299 124.406 33.6665 124.634 33.8076L124.045 34.531H124.73L125.223 33.9578H125.657V34.531H126.273V32.2788H125.214ZM125.657 33.439H125.259C125.045 33.439 124.89 33.3162 124.89 33.1114C124.89 32.9067 125.045 32.7976 125.259 32.7976H125.657V33.439ZM97.8757 11.1727H87.9332C86.9601 11.1727 86.1715 10.387 86.1715 9.41731V5.00759C86.1715 4.03908 85.3846 3.25354 84.4128 3.25135H84.3901C83.6727 3.25135 82.9685 3.3075 82.2813 3.41561C81.4123 3.55241 80.7618 4.2803 80.7618 5.15704V28.0839C80.7618 28.9604 81.4123 29.6883 82.2813 29.8253C82.9685 29.9332 83.6727 29.9896 84.3901 29.9896L84.4488 29.9894C85.4008 29.9874 86.1715 29.2177 86.1715 28.2692V24.3982C86.1715 23.4287 86.9601 22.6427 87.9332 22.6427L96.9224 22.6584L98.4632 22.6427C99.16 22.6288 99.6364 23.3581 99.3254 23.9796C96.3599 29.9049 89.8265 34.9711 85.2201 39.5837C84.5148 40.314 84.0335 39.9444 83.6348 39.529C77.222 32.8464 67.7117 26.7944 67.7117 16.6205C67.7117 12.0311 69.5788 7.87578 72.5969 4.86813C75.6149 1.86048 79.7848 0 84.3901 0C88.9959 0 93.1656 1.86048 96.1838 4.86813C97.468 6.14798 98.5438 7.63589 99.356 9.27686C99.7876 10.1491 99.1499 11.1727 98.1738 11.1727H97.8757Z" fill="#056574"/>
</svg>
