<svg width="88" height="88" viewBox="0 0 88 88" fill="none" xmlns="http://www.w3.org/2000/svg">
<path d="M44 88C68.2347 88 88 68.2339 88 44C88 19.7653 68.2347 0 44 0C19.7653 0 0 19.7661 0 44C0 68.2339 19.7661 88 44 88Z" fill="url(#paint0_linear)"/>
<g clip-path="url(#clip0)">
<path d="M59.1964 41.5984H44.7977L34.9667 43.1982H31.9989V41.5984L35.1986 35.199L34.8467 34.3991L46.2296 34.295L49.3973 34.2631L50.3972 35.199L59.1964 41.5984Z" fill="#D4E1F4"/>
<path d="M67.0037 42.9183L57.5805 54.2532C56.9239 54.3512 56.2607 54.3992 55.5967 54.3972C55.0592 54.4006 54.5221 54.3685 53.9888 54.3012C54.1248 54.2932 54.2528 54.2692 54.3808 54.2532L63.8039 42.9183C64.0069 42.681 64.0532 42.3473 63.9226 42.0636C63.792 41.78 63.5083 41.5983 63.196 41.5984H66.3957C66.7079 41.5984 66.9917 41.7801 67.1223 42.0636C67.2529 42.3472 67.2066 42.6809 67.0037 42.9183Z" fill="#CEE5EB"/>
<path d="M55.9967 41.5986H44.7977L34.9667 43.1983H31.9989V41.5986L35.1986 35.1991L34.8467 34.3992L46.2296 34.2952L47.1975 35.1991L55.9967 41.5986Z" fill="#DDECF0"/>
<path d="M63.804 42.9184L54.3809 54.2533C54.2529 54.2693 54.1249 54.2933 53.989 54.3013C53.461 54.3683 52.9292 54.4004 52.3971 54.3973C47.1817 54.3973 46.6537 51.8135 42.3901 51.2936C38.1345 51.8136 37.6065 54.3973 32.399 54.3973C31.8642 54.4006 31.3297 54.3686 30.7991 54.3013C26.9194 53.8293 26.1356 51.6375 22.08 51.2536L26.2236 44.7982H28.3354L38.1665 43.1983H34.9669L44.798 41.5984H63.1961C63.5083 41.5984 63.7921 41.7801 63.9226 42.0636C64.0532 42.3472 64.007 42.681 63.804 42.9184Z" fill="#DDECF0"/>
<path d="M47.9975 41.5985V43.1984C47.9949 44.0809 47.2801 44.7956 46.3976 44.7983H27.9993L30.1591 41.9185C30.3113 41.7185 30.5476 41.6003 30.799 41.5986H47.9975V41.5985Z" fill="#99D2E0"/>
<path d="M50.3973 35.199H32.7989C31.918 35.1925 31.2055 34.48 31.199 33.5992C31.2016 32.7167 31.9164 32.0019 32.7989 31.9993H46.3256C47.8393 31.9994 49.2232 32.8538 49.9013 34.2071L50.3973 35.199Z" fill="#99D2E0"/>
<path d="M45.5977 41.5985V43.1984C45.5951 44.0809 44.8803 44.7956 43.9978 44.7983H27.9993L30.1591 41.9185C30.3113 41.7185 30.5476 41.6003 30.799 41.5986H45.5977V41.5985Z" fill="#DDECF0"/>
<path d="M47.9975 35.199H32.7989C31.918 35.1925 31.2055 34.48 31.199 33.5992C31.2016 32.7167 31.9164 32.0019 32.7989 31.9993H43.9259C45.4395 31.9994 46.8234 32.8538 47.5015 34.2071L47.9975 35.199Z" fill="#DDECF0"/>
<path d="M54.7968 38.3986H43.1979C42.3154 38.396 41.6006 37.6812 41.598 36.7988V35.199H50.3972L54.7968 38.3986Z" fill="#99D2E0"/>
<path d="M51.1971 38.3986H43.1979C42.3154 38.396 41.6006 37.6812 41.598 36.7988V35.199H46.7976L51.1971 38.3986Z" fill="#E3E7F2"/>
<path d="M33.1988 54.3012C29.3191 53.8292 28.5353 51.6375 24.4796 51.2535L28.6233 44.7981H30.3991L32.5589 41.9184C32.7112 41.7183 32.9475 41.6001 33.1989 41.5984H34.3988L37.5985 35.199H35.1987L31.9989 41.5984H30.799C30.5476 41.6001 30.3113 41.7183 30.1591 41.9184L27.9993 44.7981H26.2234L22.0798 51.2535C26.1354 51.6375 26.9194 53.8292 30.7989 54.3012C31.3295 54.3685 31.8639 54.4006 32.3988 54.3972C32.8356 54.3972 33.2292 54.3732 33.6043 54.3397C33.4692 54.3268 33.3276 54.3172 33.1988 54.3012Z" fill="white"/>
<path d="M33.5988 33.5992C33.6014 32.7167 34.3162 32.0019 35.1987 31.9993H32.7989C31.9164 32.0019 31.2017 32.7167 31.199 33.5992C31.2056 34.48 31.918 35.1925 32.7989 35.199H35.1987C34.3178 35.1925 33.6053 34.48 33.5988 33.5992Z" fill="white"/>
<path d="M56.9655 53.7422L63.6136 45.7453L66.3886 42.4072L67.6189 43.4295L64.8439 46.7684L58.1957 54.7645L56.9655 53.7422Z" fill="white"/>
<path d="M61.5962 48.5323C61.1567 48.5774 60.834 48.9655 60.8698 49.4057L60.9011 49.5561C60.9159 49.6081 60.9376 49.6579 60.9658 49.7041C60.9859 49.7508 61.0129 49.7942 61.0458 49.8329C61.0806 49.8738 61.1183 49.912 61.1586 49.9473C61.3231 50.0806 61.532 50.1466 61.7433 50.132C62.0121 50.1124 62.2522 49.9568 62.3801 49.7196C62.508 49.4823 62.5058 49.1962 62.3745 48.9609C62.326 48.8695 62.2606 48.788 62.1817 48.721C62.0171 48.587 61.8081 48.5196 61.5962 48.5323Z" fill="#28B8CE"/>
<path d="M67.1957 50.3977C65.0114 50.3464 62.8601 50.9372 61.0083 52.0968C60.6571 52.2903 60.3108 52.4816 59.946 52.6567L60.2412 52.3015C60.4241 52.0818 60.4758 51.781 60.377 51.5128C60.2781 51.2445 60.0437 51.0493 59.7619 51.0008C59.4801 50.9523 59.1938 51.0578 59.0109 51.2776L57.1711 53.491C56.6492 53.5612 56.1233 53.5967 55.5968 53.5974C53.6833 53.6436 51.7989 53.1214 50.1821 52.0967C48.3294 50.9365 46.1768 50.3458 43.9915 50.3976C41.8085 50.3464 39.6584 50.9372 37.8081 52.0967C36.1932 53.1209 34.3107 53.6432 32.399 53.5974C30.4859 53.6435 28.6021 53.1213 26.9859 52.0967C25.8805 51.4289 24.6752 50.9428 23.4158 50.6568L26.6603 45.598H46.3976C47.7229 45.598 48.7974 44.5236 48.7974 43.1983V42.3984H51.1971V44.7981C51.1971 45.24 51.5552 45.598 51.997 45.598C52.4388 45.598 52.7969 45.2399 52.7969 44.7981V42.3984H54.3968V44.7981C54.3968 45.24 54.755 45.598 55.1967 45.598C55.6385 45.598 55.9966 45.2399 55.9966 44.7981V42.3984H57.5965V44.7981C57.5965 45.24 57.9547 45.598 58.3964 45.598C58.8382 45.598 59.1963 45.2399 59.1963 44.7981V42.3984H66.3956V42.4041L63.1088 46.3573C62.8262 46.6971 62.8726 47.2015 63.2123 47.484C63.5521 47.7666 64.0565 47.7202 64.339 47.3804L67.6259 43.4264C68.0258 42.9495 68.1128 42.2838 67.8489 41.7201C67.585 41.1565 67.0181 40.797 66.3956 40.7987H59.4562L51.0258 34.6672L50.6178 33.8522C49.8094 32.2223 48.1447 31.1936 46.3254 31.1996H38.0926L37.2927 29.5997H41.598C42.0398 29.5997 42.3979 29.2415 42.3979 28.7998C42.3979 28.3581 42.0397 27.9999 41.598 27.9999H32.7988C32.357 27.9999 31.9989 28.3581 31.9989 28.7998C31.9989 29.2415 32.3571 29.5997 32.7988 29.5997H35.5042L36.3041 31.1996H32.7988C31.4735 31.1996 30.399 32.274 30.399 33.5993C30.399 34.9246 31.4735 35.9991 32.7988 35.9991H33.9043L31.5045 40.7987H30.799C30.2957 40.7997 29.8219 41.0366 29.5192 41.4386L27.5993 43.9984H26.2234C25.9509 43.9983 25.697 44.137 25.5499 44.3664L21.659 50.4283C21.3831 50.4122 21.1046 50.3979 20.7999 50.3979C20.3581 50.3979 20 50.7561 20 51.1978C20 51.6396 20.3582 51.9977 20.7999 51.9977C22.7127 51.9517 24.5962 52.4739 26.2122 53.4984C28.0636 54.6582 30.2148 55.249 32.3989 55.1974C34.1106 55.247 35.8094 54.8858 37.3528 54.144L37.364 54.1384C37.7903 53.9328 38.1887 53.7144 38.5823 53.4984C40.1972 52.4744 42.0797 51.9521 43.9913 51.9977C45.9049 51.9515 47.7893 52.4737 49.406 53.4984C51.2587 54.6585 53.4113 55.2493 55.5966 55.1974C57.7809 55.2487 59.9322 54.658 61.784 53.4984C63.3999 52.4744 65.283 51.9522 67.1955 51.9977C67.6373 51.9977 67.9954 51.6395 67.9954 51.1978C67.9956 50.7559 67.6375 50.3977 67.1957 50.3977ZM42.3979 35.999H50.1372L52.337 37.5989H43.1979C42.7561 37.5989 42.398 37.2407 42.398 36.799V35.999H42.3979ZM31.9989 33.5992C31.9989 33.1574 32.3571 32.7993 32.7988 32.7993H46.3256C47.467 32.7974 48.5215 33.4082 49.0878 34.3992H32.7988C32.3571 34.3992 31.9989 34.041 31.9989 33.5992ZM35.693 35.999H40.7981V36.7989C40.7981 38.1242 41.8726 39.1987 43.1979 39.1987H54.5369L56.7367 40.7986H33.2932L35.693 35.999ZM30.799 42.3985H47.1975V43.1984C47.1975 43.6402 46.8393 43.9983 46.3976 43.9983H29.5991L30.799 42.3985Z" fill="#28B8CE"/>
<path d="M67.1957 55.1972C65.0114 55.146 62.8601 55.7367 61.0083 56.8963C59.3924 57.9203 57.5093 58.4425 55.5968 58.397C53.6832 58.4432 51.7989 57.921 50.1821 56.8963C48.3294 55.7362 46.1768 55.1454 43.9915 55.1972C41.8085 55.1461 39.6584 55.7368 37.808 56.8963C36.1932 57.9205 34.3107 58.4428 32.399 58.397C30.4859 58.4431 28.6021 57.9209 26.9859 56.8963C25.1348 55.7366 22.9839 55.1458 20.8001 55.1972C20.3583 55.1972 20.0002 55.5553 20.0002 55.9971C20.0002 56.4389 20.3584 56.797 20.8001 56.797C22.7129 56.751 24.5964 57.2732 26.2124 58.2977C28.0638 59.4576 30.215 60.0484 32.3991 59.9968C34.5822 60.0482 36.7324 59.4571 38.5825 58.297C40.1976 57.2732 42.0799 56.7513 43.9916 56.7971C45.9051 56.7509 47.7895 57.2731 49.4063 58.2978C51.259 59.458 53.4116 60.0487 55.5969 59.9969C57.7811 60.0482 59.9325 59.4574 61.7843 58.2978C63.4002 57.2738 65.2833 56.7517 67.1958 56.7971C67.6376 56.7971 67.9957 56.4389 67.9957 55.9972C67.9957 55.5555 67.6375 55.1972 67.1957 55.1972Z" fill="#28B8CE"/>
</g>
<defs>
<linearGradient id="paint0_linear" x1="44" y1="0" x2="44" y2="88" gradientUnits="userSpaceOnUse">
<stop stop-color="#D2EEF5"/>
<stop offset="1" stop-color="#B6E9F0"/>
</linearGradient>
<clipPath id="clip0">
<rect width="48" height="48" fill="white" transform="translate(20 20)"/>
</clipPath>
</defs>
</svg>
