<svg width="88" height="88" viewBox="0 0 88 88" fill="none" xmlns="http://www.w3.org/2000/svg">
<path d="M44 88C68.2347 88 88 68.2339 88 44C88 19.7653 68.2347 0 44 0C19.7653 0 0 19.7661 0 44C0 68.2339 19.7661 88 44 88Z" fill="url(#paint0_linear)"/>
<path fill-rule="evenodd" clip-rule="evenodd" d="M34.6559 64.1997H64.5196C64.8754 64.2024 65.1901 63.9698 65.292 63.6289C65.3939 63.288 65.2584 62.9208 64.9596 62.7278L43.9998 48.9999L43.1999 31.4L42.5001 27L20.8 34.5V54.1839C20.8005 54.4437 20.9254 54.6876 21.136 54.8398L34.192 64.0557C34.3279 64.1507 34.4901 64.201 34.6559 64.1997Z" fill="#99D2E0"/>
<path d="M60.7996 64.1997H35.7343C35.5684 64.2009 35.4063 64.1506 35.2703 64.0557L22.2144 54.8397C22.0038 54.6875 21.8788 54.4437 21.8784 54.1838V34.984C21.8795 34.7406 22.1824 34.36 22.1824 34.36L40.2782 48.9998L61.238 62.7277C61.5366 62.9205 61.6721 63.2874 61.5706 63.6281C61.4691 63.9688 61.1551 64.2016 60.7996 64.1997Z" fill="#DDECF0"/>
<path d="M43.1998 64.1997H34.6559C34.4901 64.2009 34.3279 64.1506 34.1919 64.0557L21.136 54.8397C20.9254 54.6875 20.8005 54.4437 20.8 54.1838V50.5999L43.1998 64.1997Z" fill="#99D2E0"/>
<path d="M39.1998 64.1676H34.6559C34.4901 64.1689 34.3279 64.1186 34.192 64.0236L21.136 54.8077C20.9254 54.6555 20.8005 54.4116 20.8 54.1518V52.1998L39.1998 64.1676Z" fill="#DDECF0"/>
<path d="M66.3995 33V54.5998C66.3995 57.1918 64.3835 59.3998 59.1996 59.3998H46.3997C41.2158 59.3998 39.1998 57.1918 39.1998 54.5998V33C39.1998 27.1681 42.3997 27.4001 42.3997 27.4001C42.3997 27.4001 43.1598 25.0001 46.3997 25.0001H59.1996C62.4395 25.0001 63.1996 27.4001 63.1996 27.4001C63.1996 27.4001 66.3995 27.1681 66.3995 33Z" fill="#99D2E0"/>
<path d="M63.9995 33V54.5998C63.9995 57.1918 61.9835 59.3998 56.7996 59.3998H46.3997C41.2158 59.3998 39.1998 57.1918 39.1998 54.5998V33C39.1998 27.1681 42.3997 27.4001 42.3997 27.4001C42.3997 27.4001 43.1598 25.0001 46.3997 25.0001H56.7996C60.0396 25.0001 60.7996 27.4001 60.7996 27.4001C60.7996 27.4001 63.9995 27.1681 63.9995 33Z" fill="#DDECF0"/>
<path d="M58.8156 47.1263L58.4636 48.1798C58.3283 48.582 58.4105 49.0255 58.6807 49.3526C58.951 49.6797 59.3711 49.844 59.7915 49.7871C61.3915 49.5543 63.4059 48.9663 63.4059 47.4823C63.4059 46.6287 61.3315 46.3679 60.0643 46.2886C59.5061 46.2514 58.9931 46.5956 58.8156 47.1263Z" fill="#F4F4F4"/>
<path d="M46.7837 47.1263L47.1358 48.1798C47.271 48.582 47.1888 49.0255 46.9186 49.3526C46.6484 49.6797 46.2283 49.844 45.8078 49.7871C44.2078 49.5543 42.1934 48.9663 42.1934 47.4823C42.1934 46.6287 44.2678 46.3679 45.535 46.2886C46.0933 46.2514 46.6064 46.5956 46.7837 47.1263Z" fill="#F4F4F4"/>
<path d="M62.9516 31.4C62.5444 34.6286 61.7825 37.8024 60.6796 40.8639C60.3077 41.9051 59.3213 42.6 58.2156 42.5999H47.3837C46.278 42.6 45.2917 41.9051 44.9197 40.8639C43.8168 37.8023 43.0549 34.6286 42.6477 31.4H62.9516Z" fill="#99D2E0"/>
<path d="M60.7996 31.4C60.3924 34.6286 59.6305 37.8024 58.5276 40.8639C58.1557 41.9051 57.1693 42.6 56.0636 42.5999H47.3836C46.278 42.6 45.2916 41.9051 44.9196 40.8639C43.8167 37.8023 43.0548 34.6286 42.6476 31.4H60.7996Z" fill="#DDECF0"/>
<path d="M63.1996 27.4001C63.1996 27.8161 63.1916 28.2241 63.1756 28.6321C63.1595 28.9201 63.1516 29.208 63.1276 29.4881C63.0875 30.1361 63.0236 30.7761 62.9516 31.4001H42.6478C42.5758 30.7761 42.5118 30.1361 42.4718 29.4881C42.4478 29.208 42.4399 28.9201 42.4238 28.6321C42.4078 28.2241 42.3998 27.8161 42.3998 27.4001C42.3998 27.4001 43.1599 25.0001 46.3998 25.0001H59.1997C62.4395 25.0001 63.1996 27.4001 63.1996 27.4001Z" fill="#99D2E0"/>
<path d="M60.7996 27.4001C60.7996 27.8161 60.7916 28.2241 60.7756 28.6321C60.7596 28.9201 60.7516 29.208 60.7276 29.4881C60.6876 30.1361 60.6236 30.7761 60.5516 31.4001H42.6478C42.5758 30.7761 42.5118 30.1361 42.4718 29.4881C42.4478 29.208 42.4399 28.9201 42.4238 28.6321C42.4078 28.2241 42.3998 27.8161 42.3998 27.4001C42.3998 27.4001 43.1599 25.0001 46.3998 25.0001H56.7997C60.0396 25.0001 60.7996 27.4001 60.7996 27.4001Z" fill="#A9E3EB"/>
<path d="M50.3997 42.5999C50.3997 41.2745 51.4743 40.2 52.7997 40.2C54.1251 40.2 55.1997 41.2745 55.1997 42.5999H50.3997Z" fill="#A4C2F7"/>
<path d="M30.3998 48.9999C30.3773 50.1122 30.5394 51.2206 30.8798 52.2799L25.1599 49.0558C24.9154 48.2603 24.794 47.4321 24.7999 46.5999V35.4C24.7832 34.3026 25.0014 33.2142 25.44 32.208L31.4479 30.144C30.6853 31.5009 30.322 33.0456 30.3998 34.6V48.9999Z" fill="#DDECF0"/>
<path d="M43.3518 26.0481C42.9313 26.4165 42.6049 26.88 42.3998 27.4001C42.3998 27.4001 39.1998 27.168 39.1998 33V54.5998C39.1797 55.8093 39.695 56.9659 40.6078 57.7598L36.9359 55.6958L30.88 52.2798C30.5396 51.2206 30.3774 50.1123 30.4 48.9998V34.6C30.3222 33.0455 30.6854 31.5008 31.448 30.144L37.4959 28.064L40.0959 27.168L41.4159 26.712L43.3518 26.0481Z" fill="#99D2E0"/>
<path d="M40.0958 27.1681C40.0318 27.3121 39.9998 27.4001 39.9998 27.4001C39.9998 27.4001 36.7999 27.1681 36.7999 33V54.5998C36.7963 54.9696 36.842 55.3382 36.9359 55.6958L30.88 52.2799C30.5396 51.2206 30.3774 50.1123 30.4 48.9999V34.6C30.3222 33.0456 30.6854 31.5009 31.448 30.1441L37.4959 28.0641L40.0958 27.1681Z" fill="#DDECF0"/>
<path d="M24.8 46.5999C24.794 47.4321 24.9155 48.2604 25.1599 49.0558L22.0239 47.2878C21.2673 46.8655 20.7989 46.0664 20.8 45.1998V35.512C20.7999 34.4878 21.4484 33.576 22.4159 33.24L25.4399 32.208C25.0014 33.2142 24.7832 34.3025 24.7999 35.4V46.5999H24.8Z" fill="#DDECF0"/>
<path d="M35.1998 36.4V45.5439C35.2016 45.7952 35.0852 46.0328 34.8854 46.1854C34.6856 46.3379 34.4258 46.3878 34.1838 46.3199L32.7118 45.912L30.3999 45.2719V36.464L32.6719 35.96L34.2239 35.6161C34.4616 35.5624 34.7109 35.6201 34.9009 35.7727C35.0909 35.9253 35.2009 36.1562 35.1998 36.4Z" fill="#99D2E0"/>
<path d="M32.7999 36.4V45.5439C32.8011 45.672 32.7709 45.7984 32.7118 45.9119L30.3999 45.2719V36.464L32.6719 35.96C32.757 36.0908 32.8015 36.2439 32.7999 36.4Z" fill="#DDECF0"/>
<path d="M24.8 37.712V43.712L20.8 42.5999V38.6L24.8 37.712Z" fill="#DDECF0"/>
<path d="M30.3999 36.464V45.2719L24.8 43.7119V37.712L30.3999 36.464Z" fill="#DDECF0"/>
<path d="M59.1996 55.3998V59.3998H47.1997V55.3998C47.2023 54.5173 47.9172 53.8024 48.7997 53.7998H57.5997C58.4822 53.8024 59.197 54.5173 59.1996 55.3998Z" fill="#99D2E0"/>
<path d="M56.7996 55.3998V59.3998H47.1997V55.3998C47.2023 54.5173 47.9172 53.8024 48.7997 53.7998H55.1997C56.0822 53.8024 56.797 54.5173 56.7996 55.3998Z" fill="#E3E7F2"/>
<path fill-rule="evenodd" clip-rule="evenodd" d="M34.1919 64.0557L21.136 54.8398C20.9254 54.6875 20.8005 54.4437 20.8 54.1838V34.5L23.2 33V54.1838C23.2004 54.4437 23.3254 54.6875 23.536 54.8398L36.5918 64.0557C36.7246 64.1484 36.8823 64.1985 37.044 64.1997H34.6558C34.49 64.2009 34.3279 64.1507 34.1919 64.0557Z" fill="white"/>
<path d="M60.1149 45.4903C59.1938 45.4277 58.347 45.9964 58.0565 46.8727L57.7045 47.9271C57.4793 48.5988 57.6216 49.3394 58.0797 49.8799C58.4598 50.3364 59.0233 50.6002 59.6172 50.5999C59.7155 50.5997 59.8136 50.5928 59.9109 50.5791C63.4628 50.0607 64.2093 48.6087 64.2093 47.4823C64.206 45.9271 61.8708 45.6007 60.1149 45.4903ZM59.6796 48.9951C59.538 49.0183 59.3951 48.9628 59.306 48.8503C59.2074 48.7353 59.1769 48.5768 59.226 48.4335L59.5781 47.3791C59.6413 47.1927 59.8226 47.0726 60.0189 47.087C60.9056 47.0736 61.7852 47.247 62.6004 47.5958C62.4356 48.5199 60.3372 48.8991 59.6796 48.9951Z" fill="#28B8CE"/>
<path d="M47.5429 46.8728C47.2531 45.996 46.4058 45.4269 45.4845 45.4904C43.7246 45.6009 41.3934 45.9272 41.3934 47.4824C41.3934 48.6088 42.1399 50.0608 45.6926 50.5792C45.7896 50.5929 45.8874 50.5998 45.9854 50.6C46.5793 50.6003 47.1428 50.3365 47.5229 49.88C47.9792 49.3396 48.12 48.6 47.8941 47.9297L47.5429 46.8728ZM46.2958 48.8504C46.2062 48.9618 46.0642 49.017 45.9229 48.9952C45.2621 48.8992 43.1638 48.5209 43.0029 47.596C43.8183 47.2472 44.6978 47.0738 45.5845 47.0872C45.7809 47.0725 45.9623 47.1927 46.0253 47.3793L46.3765 48.4328C46.4259 48.5764 46.3951 48.7355 46.2958 48.8504Z" fill="#28B8CE"/>
<path d="M47.1997 29.0002H58.3996C58.8415 29.0002 59.1996 28.642 59.1996 28.2002C59.1996 27.7584 58.8414 27.4003 58.3996 27.4003H47.1997C46.7579 27.4003 46.3997 27.7585 46.3997 28.2002C46.3997 28.642 46.758 29.0002 47.1997 29.0002Z" fill="#6AD1DE"/>
<path d="M20.3384 55.2535L33.9383 64.8534C34.0733 64.9487 34.2347 64.9998 34.4 64.9998H67.1997C67.5522 64.9999 67.8632 64.7692 67.9655 64.4318C68.0677 64.0944 67.937 63.7298 67.6437 63.5342L62.1949 59.9023C66.7724 58.9199 67.1997 55.7071 67.1997 54.5999V33.0001C67.1997 30.4458 66.6149 28.6057 65.4597 27.5306C64.9817 27.0758 64.3825 26.7685 63.7341 26.6458L63.7285 26.637C63.6797 26.5466 63.6189 26.4466 63.5517 26.3426L63.4957 26.2586C63.319 26.0017 63.1166 25.7635 62.8917 25.5475L62.7973 25.4603C62.5055 25.1967 62.1806 24.9721 61.8309 24.7923C61.7829 24.7675 61.7349 24.7443 61.6853 24.7212C61.477 24.6194 61.2616 24.5334 61.0405 24.4635C60.7948 24.3899 60.5444 24.3333 60.2909 24.2939C60.2237 24.2828 60.1565 24.2731 60.0869 24.2643C59.7929 24.2233 59.4966 24.2019 59.1998 24.2003H57.4542L54.1901 24.2002H46.3997C46.1032 24.2015 45.8071 24.2226 45.5133 24.2634C45.4438 24.2722 45.3766 24.2818 45.3093 24.293C44.8263 24.3694 44.3563 24.5135 43.9133 24.721C43.8645 24.7441 43.8165 24.7674 43.7685 24.7921C43.4676 24.9472 43.1849 25.135 42.9253 25.3521L25.1831 31.4473L22.16 32.4865C21.9652 32.5555 21.7777 32.6433 21.6 32.7489C20.6153 33.2727 20 34.297 20 35.4123V54.5997C19.9999 54.8597 20.1261 55.1035 20.3384 55.2535ZM34.6535 63.3998L21.6 54.1855V52.0255L40.3406 63.3998H34.6535ZM64.5596 63.3998H43.4238L21.6 50.1495V47.9663C21.6104 47.972 21.6184 47.9792 21.6288 47.9847L30.4799 52.9735L40.1647 58.4294C41.3303 59.4214 43.2414 60.1998 46.3998 60.1998H59.1997C59.3861 60.1998 59.5501 60.1853 59.7285 60.1805L64.5596 63.3998ZM30.0127 31.4801C29.7283 32.4954 29.5894 33.5458 29.5999 34.6001V35.8248L25.5999 36.7136V35.4C25.5912 34.5261 25.7445 33.6582 26.0519 32.84L30.0127 31.4801ZM55.886 41.8C55.5268 40.3886 54.256 39.4008 52.7996 39.4008C51.3432 39.4008 50.0725 40.3887 49.7132 41.8H47.3805C46.615 41.797 45.9331 41.3156 45.674 40.5952C44.697 37.8727 43.9898 35.0608 43.5629 32.2001H62.0355C61.609 35.0609 60.9022 37.8728 59.9251 40.5952C59.6662 41.3156 58.9842 41.7971 58.2187 41.8H55.886ZM54.1845 41.8H51.4149C51.701 41.3057 52.2287 41.0014 52.7997 41.0014C53.3707 41.0014 53.8984 41.3057 54.1845 41.8ZM39.451 28.3777C39.415 28.4346 39.379 28.4898 39.3454 28.5482C39.2718 28.6762 39.203 28.8113 39.1374 28.9482C39.1158 28.9946 39.0918 29.0378 39.071 29.085C38.9864 29.2798 38.9116 29.4787 38.847 29.681C38.8303 29.733 38.8167 29.7905 38.8006 29.841C38.7526 30.001 38.7078 30.1666 38.6686 30.3386C38.6503 30.4186 38.6342 30.5058 38.6174 30.5898C38.5862 30.7449 38.5583 30.9033 38.5375 31.0698C38.5239 31.161 38.511 31.2529 38.4999 31.3473C38.4783 31.5226 38.4623 31.7042 38.4479 31.8882C38.4415 31.9746 38.4334 32.0578 38.4279 32.1458C38.4127 32.421 38.403 32.7058 38.403 32.9962V54.6C38.403 54.7105 38.4103 54.848 38.4223 54.996C38.4349 55.217 38.4616 55.4369 38.5022 55.6544L31.5423 51.7345C31.2994 50.8438 31.1842 49.9232 31.1999 49.0001V46.3194L33.9719 47.0889C34.4534 47.2255 34.9712 47.1262 35.3679 46.8209C35.7676 46.5201 36.0018 46.0483 35.9999 45.5481V36.3976C36.0001 35.9122 35.7798 35.4529 35.4012 35.1491C35.0225 34.8454 34.5265 34.7299 34.0527 34.8352L31.1999 35.4696V34.6C31.1406 33.2887 31.4095 31.9834 31.9824 30.8024L39.5638 28.2C39.5238 28.2529 39.4887 28.3177 39.451 28.3777ZM25.86 48.5327C25.6884 47.9027 25.601 47.2528 25.6 46.5998V44.7598L29.6 45.871V48.9998C29.5997 49.5685 29.6363 50.1366 29.7096 50.7006L25.86 48.5327ZM25.5999 38.3528L29.5999 37.464V44.2143L25.5999 43.1031V38.3528ZM24 42.6584L21.6 41.992V39.24L24 38.7072V42.6584ZM31.1999 37.108L34.3999 36.3976V45.5479L31.1999 44.6583V37.108ZM22.68 34.0001L24.192 33.48C24.0627 34.1118 23.9984 34.7551 24 35.4V37.0696L21.6 37.6032V35.5128C21.6001 34.8297 22.034 34.2221 22.68 34.0001ZM21.6 43.6519L24 44.3191V46.5999C24 46.9079 24.0144 47.2111 24.0416 47.5079L22.4144 46.5911C21.9114 46.3076 21.6001 45.775 21.6 45.1976V43.6519ZM58.3996 58.5998H47.9998V55.3999C47.9998 54.9581 48.3579 54.5999 48.7997 54.5999H57.5997C58.0415 54.5999 58.3996 54.9581 58.3996 55.3999V58.5998ZM65.5996 33V54.5998C65.5996 56.9702 63.57 58.3966 59.9996 58.579V55.3999C59.9996 54.0745 58.9251 52.9999 57.5997 52.9999H48.7997C47.4743 52.9999 46.3997 54.0745 46.3997 55.3999V58.5998C43.947 58.5998 42.1302 58.0662 41.0702 57.0878C40.9198 56.9516 40.7817 56.8026 40.6574 56.6423C40.6375 56.6167 40.6223 56.5879 40.6038 56.5623C40.4988 56.4149 40.407 56.2585 40.3294 56.0951C40.3102 56.0544 40.2878 56.0152 40.2702 55.9727C40.1923 55.7877 40.1315 55.596 40.0886 55.3999C40.0791 55.3543 40.0719 55.3079 40.0631 55.2623C40.0225 55.0437 40.0014 54.8221 39.9999 54.5998V33C39.9999 30.4337 40.6503 29.2633 41.1999 28.7337C41.2649 28.6702 41.3341 28.6112 41.407 28.5569C41.4439 28.5289 41.4806 28.5073 41.5175 28.4841C41.5543 28.4609 41.5775 28.4417 41.6063 28.4249L41.6214 28.4177C41.631 28.7321 41.647 29.0449 41.6663 29.3561C41.6663 29.3826 41.6663 29.4089 41.6663 29.4361C41.7095 30.1305 41.7734 30.8145 41.8542 31.4833V31.4969C42.2697 34.7853 43.0456 38.018 44.1678 41.1368C44.6561 42.4919 45.9402 43.3964 47.3805 43.4H58.2189C59.6587 43.3958 60.9419 42.4913 61.4301 41.1368C62.5523 38.0181 63.3282 34.7853 63.7436 31.4969V31.4801C63.8236 30.8113 63.8884 30.1273 63.9316 29.4329C63.9316 29.4065 63.9316 29.3801 63.9316 29.3529C63.9508 29.0409 63.9667 28.7289 63.9764 28.4137C64.1305 28.5013 64.2723 28.6088 64.398 28.7337C64.9491 29.2633 65.5996 30.4337 65.5996 33ZM59.1996 25.8001C59.4776 25.7999 59.7552 25.824 60.0292 25.8721C60.1091 25.8857 60.1716 25.9081 60.2452 25.9249L60.2692 25.9313C60.4193 25.9638 60.5673 26.0055 60.7123 26.0561C60.7923 26.0864 60.8667 26.1217 60.9412 26.1561C61.0507 26.2036 61.1574 26.2571 61.2611 26.3161C61.3291 26.3569 61.3915 26.3961 61.4515 26.4409C61.5364 26.5017 61.6171 26.5625 61.6915 26.6249C61.7427 26.6689 61.7932 26.7137 61.8387 26.7585C61.9019 26.8217 61.9587 26.8833 62.0107 26.9449C62.0459 26.9873 62.0843 27.0305 62.1147 27.0705C62.1595 27.1321 62.1947 27.1881 62.2323 27.2433C62.2538 27.2769 62.2803 27.3144 62.2979 27.3457C62.3275 27.3977 62.3483 27.4385 62.3675 27.4793C62.3779 27.5008 62.3939 27.5288 62.4019 27.5472C62.4019 27.9976 62.3842 28.4584 62.3602 28.924C62.3562 29.004 62.3514 29.092 62.3466 29.1769C62.3195 29.6449 62.2842 30.1176 62.2362 30.5969H43.3662C43.3174 30.1169 43.2862 29.6369 43.255 29.1705C43.2502 29.0905 43.2462 29.0065 43.2414 28.9241C43.2183 28.4602 43.203 28.001 43.1998 27.5521C43.3544 27.23 43.5677 26.9394 43.8286 26.6953C43.8861 26.641 43.9382 26.5865 44.0054 26.5353L44.0246 26.5209C44.1421 26.4305 44.2658 26.3487 44.395 26.2761C44.4142 26.2657 44.4319 26.2545 44.451 26.2433C44.6005 26.1643 44.7556 26.0964 44.9149 26.0401L45.0118 26.0066C45.198 25.9461 45.3884 25.8992 45.5814 25.8666L45.6806 25.853C45.9187 25.818 46.1591 25.8004 46.3997 25.8002L59.1996 25.8001Z" fill="#28B8CE"/>
<defs>
<linearGradient id="paint0_linear" x1="44" y1="0" x2="44" y2="88" gradientUnits="userSpaceOnUse">
<stop stop-color="#D2EEF5"/>
<stop offset="1" stop-color="#B6E9F0"/>
</linearGradient>
</defs>
</svg>
