<svg width="88" height="88" viewBox="0 0 88 88" fill="none" xmlns="http://www.w3.org/2000/svg">
<path d="M44 88C68.2347 88 88 68.2339 88 44C88 19.7653 68.2347 0 44 0C19.7653 0 0 19.7661 0 44C0 68.2339 19.7661 88 44 88Z" fill="url(#paint0_linear)"/>
<path d="M67.1998 43.224V51.6C67.1973 52.4825 66.4824 53.1974 65.5999 53.2H49.6001V31.6001H58.944C60.0924 31.6016 61.1515 32.2183 61.7198 33.2158L66.9918 42.4319C67.1288 42.6736 67.2006 42.9464 67.1998 43.224Z" fill="#99D2E0"/>
<path d="M64.8001 43.224V51.6C64.7975 52.4825 64.0827 53.1974 63.2001 53.2H49.6001V31.6001H56.5438C57.6923 31.6016 58.7517 32.2183 59.3201 33.2158L64.5921 42.4319C64.729 42.6736 64.8004 42.9464 64.8001 43.224Z" fill="#DDECF0"/>
<path d="M29.3439 53.2H26.3999C25.0746 53.2 24.0001 52.1255 24.0001 50.8002V29.2C24.0001 27.8746 25.0746 26.8002 26.3999 26.8002H47.2C48.5256 26.8002 49.6001 27.8746 49.6001 29.2V53.2H29.3439Z" fill="#DDECF0"/>
<path d="M65.5999 55.6001C65.5999 56.9254 64.5254 57.9999 63.2001 57.9999H27.9999C26.6746 57.9999 25.6001 56.9254 25.6001 55.6001C25.6001 54.2744 26.6746 53.2 27.9999 53.2H63.2001C64.5254 53.2 65.5999 54.2744 65.5999 55.6001Z" fill="#99D2E0"/>
<path d="M63.2001 55.6001C63.2001 56.9254 62.1256 57.9999 60.7999 57.9999H27.9999C26.6746 57.9999 25.6001 56.9254 25.6001 55.6001C25.6001 54.2744 26.6746 53.2 27.9999 53.2H60.7999C62.1256 53.2 63.2001 54.2744 63.2001 55.6001Z" fill="#DDECF0"/>
<path d="M61.7001 55.6001C61.7001 58.6927 59.1926 61.1998 56.1 61.1998C53.0073 61.1998 50.4999 58.6927 50.4999 55.6001C50.4999 52.5071 53.0073 50 56.1 50C59.1926 50 61.7001 52.5071 61.7001 55.6001Z" fill="#99D2E0"/>
<path d="M58.5001 55.6001C58.5001 56.9254 57.4257 57.9999 56.1 57.9999C54.7747 57.9999 53.6998 56.9254 53.6998 55.6001C53.6998 54.2744 54.7747 53.2 56.1 53.2C57.4257 53.2 58.5001 54.2744 58.5001 55.6001Z" fill="#D2DFF2"/>
<path d="M39.9999 55.6001C39.9999 58.6927 37.4928 61.1998 34.4001 61.1998C31.3071 61.1998 28.8 58.6927 28.8 55.6001C28.8 52.5071 31.3071 50 34.4001 50C37.4928 50 39.9999 52.5071 39.9999 55.6001Z" fill="#99D2E0"/>
<path d="M36.7999 55.6001C36.7999 56.9254 35.7255 57.9999 34.4001 57.9999C33.0745 57.9999 32 56.9254 32 55.6001C32 54.2744 33.0745 53.2 34.4001 53.2C35.7255 53.2 36.7999 54.2744 36.7999 55.6001Z" fill="#D2DFF2"/>
<path d="M66.288 41.2H53.5999C53.1582 41.2 52.8 40.8418 52.8 40.4001V35.5999C52.8 35.1582 53.1582 34.8 53.5999 34.8H62.624L62.9598 35.3761L66.288 41.2Z" fill="#99D2E0"/>
<path d="M63.9999 41.2H53.5999C53.1582 41.2 52.8 40.8418 52.8 40.4001V35.5999C52.8 35.1582 53.1582 34.8 53.5999 34.8H60.3359L60.6721 35.3761L63.9999 41.2Z" fill="#D2DFF2"/>
<path d="M63.9999 46.8H67.1998V50H63.9999C63.5582 50 63.2001 49.6418 63.2001 49.1998V47.5999C63.2001 47.1582 63.5582 46.8 63.9999 46.8Z" fill="#99D2E0"/>
<path d="M26.3999 53.2H27.9999C26.6746 53.2 25.6001 54.2744 25.6001 55.6001C25.6001 56.9254 26.6746 57.9999 27.9999 57.9999H29.3464C30.4583 60.3579 33.0547 61.6316 35.5999 61.068C33.9105 60.6956 32.4882 59.5629 31.7466 57.9999H30.4C29.0743 57.9999 27.9999 56.9254 27.9999 55.6001C27.9999 54.2744 29.0743 53.2 30.4 53.2H28.8C27.4744 53.2 26.3999 52.1255 26.3999 50.8002V29.2C26.3999 27.8746 27.4744 26.8002 28.8 26.8002H26.3999C25.0746 26.8002 24.0001 27.8746 24.0001 29.2V50.8002C24.0001 52.1255 25.0746 53.2 26.3999 53.2Z" fill="white"/>
<path d="M56.1 61.1998C56.5035 61.1995 56.906 61.1552 57.3 61.068C55.6104 60.6956 54.188 59.5629 53.4464 57.9999H51.0463C51.9713 59.9532 53.9386 61.1991 56.1 61.1998Z" fill="white"/>
<path d="M56.1 52.4001C54.3326 52.4001 52.9 53.8328 52.9 55.6001C52.9 57.3674 54.3326 58.8 56.1 58.8C57.8673 58.8 59.2999 57.3674 59.2999 55.6001C59.2999 53.8328 57.8673 52.4001 56.1 52.4001ZM56.1 57.2001C55.2163 57.2001 54.5 56.4838 54.5 55.6001C54.5 54.7164 55.2163 54.0001 56.1 54.0001C56.9836 54.0001 57.7 54.7164 57.7 55.6001C57.7 56.4838 56.9836 57.2001 56.1 57.2001Z" fill="#28B8CE"/>
<path d="M34.4001 52.4001C32.6328 52.4001 31.1998 53.8328 31.1998 55.6001C31.1998 57.3674 32.6328 58.8 34.4001 58.8C36.1675 58.8 37.6001 57.3674 37.6001 55.6001C37.6001 53.8328 36.1675 52.4001 34.4001 52.4001ZM34.4001 57.2001C33.5165 57.2001 32.8002 56.4838 32.8002 55.6001C32.8002 54.7164 33.5165 54.0001 34.4001 54.0001C35.2838 54.0001 36.0001 54.7164 36.0001 55.6001C36.0001 56.4838 35.2838 57.2001 34.4001 57.2001Z" fill="#28B8CE"/>
<path d="M62.416 32.8207C61.7052 31.5726 60.3802 30.8014 58.944 30.7999H50.3999V29.2C50.3999 27.4326 48.9673 26 47.2 26H26.3999C24.6326 26 23.2 27.4326 23.2 29.2V30.0001H20.8002C20.3582 30.0001 20 30.3583 20 30.7999C20 31.2419 20.3582 31.6001 20.8002 31.6001H23.2V38H21.6C21.1583 38 20.8002 38.3582 20.8002 38.8002C20.8002 39.2418 21.1583 39.6 21.6 39.6H23.2V45.9999H20.8002C20.3582 45.9999 20 46.358 20 46.8C20 47.2417 20.3582 47.5999 20.8002 47.5999H23.2V50.8002C23.2043 52.1584 24.0675 53.3651 25.3511 53.809C24.9911 54.3367 24.7988 54.9611 24.7999 55.6001C24.7999 57.3674 26.2325 58.8 27.9999 58.8H28.8656C29.215 59.4006 29.6592 59.9408 30.1807 60.4H25.6001C25.1581 60.4 24.7999 60.7582 24.7999 61.1998C24.7999 61.6418 25.1581 62 25.6001 62H67.1998C67.6418 62 68 61.6418 68 61.1998C68 60.7582 67.6418 60.4 67.1998 60.4H60.3198C60.8417 59.9408 61.2859 59.4006 61.6353 58.8H63.2001C64.3529 58.807 65.4193 58.1899 65.9873 57.1865C66.5549 56.1831 66.5355 54.9512 65.936 53.9664C67.1163 53.7994 67.9949 52.792 68 51.6V43.224C68 42.8069 67.892 42.3971 67.6865 42.0345L62.416 32.8207ZM53.5999 40.4001V39.931L57.931 35.5999H60.4689L55.6689 40.4001H53.5999ZM53.5999 37.6689V35.5999H55.6689L53.5999 37.6689ZM62.3688 35.9624L64.9081 40.4001H57.931L62.3688 35.9624ZM24.7999 50.8002V47.5999H29.5999C30.0419 47.5999 30.4 47.2417 30.4 46.8C30.4 46.358 30.0419 45.9999 29.5999 45.9999H24.7999V39.6H25.6001C26.0417 39.6 26.3999 39.2418 26.3999 38.8002C26.3999 38.3582 26.0417 38 25.6001 38H24.7999V31.6001H27.2001C27.6417 31.6001 27.9999 31.2419 27.9999 30.7999C27.9999 30.3583 27.6417 30.0001 27.2001 30.0001H24.7999V29.2C24.7999 28.3163 25.5162 27.6 26.3999 27.6H47.2C48.0836 27.6 48.7999 28.3163 48.7999 29.2V44.3999H46.4001C45.9581 44.3999 45.6 44.7581 45.6 45.2001C45.6 45.6417 45.9581 45.9999 46.4001 45.9999H48.7999V52.4001H39.9343C38.7947 50.42 36.6846 49.1998 34.4001 49.1998C32.1157 49.1998 30.0052 50.42 28.8656 52.4001H26.3999C25.5162 52.4001 24.7999 51.6838 24.7999 50.8002ZM49.9103 54.0001C49.6298 55.0482 49.6298 56.1516 49.9103 57.2001H40.5895C40.87 56.1516 40.87 55.0482 40.5895 54.0001H49.9103ZM27.9999 57.2001C27.1162 57.2001 26.3999 56.4838 26.3999 55.6001C26.3999 54.7164 27.1162 54.0001 27.9999 54.0001H28.2104C27.9299 55.0482 27.9299 56.1516 28.2104 57.2001H27.9999ZM29.5999 55.6001C29.5999 52.9491 31.7491 50.8002 34.4001 50.8002C37.0511 50.8002 39.2001 52.9491 39.2001 55.6001C39.2001 58.2511 37.0511 60.4 34.4001 60.4C31.7502 60.3975 29.6028 58.25 29.5999 55.6001ZM38.6193 60.4C39.1407 59.9408 39.585 59.4006 39.9343 58.8H50.5654C50.9152 59.4006 51.359 59.9408 51.8809 60.4H38.6193ZM51.3 55.6001C51.2986 53.3629 52.8436 51.422 55.0244 50.9221C57.2048 50.4222 59.4413 51.496 60.4143 53.5105C61.0596 54.827 61.0596 56.368 60.4143 57.6849C59.4417 59.6984 57.2063 60.7721 55.0266 60.2737C52.8469 59.7749 51.3008 57.8362 51.3 55.6001ZM64.3306 56.7302C64.0317 57.032 63.6245 57.2012 63.2001 57.2001H62.2897C62.5702 56.1516 62.5702 55.0482 62.2897 54.0001H63.2001C63.8464 54.0009 64.4291 54.3905 64.6763 54.9878C64.9238 55.5854 64.7872 56.2728 64.3306 56.7302ZM65.5999 52.4001H61.6345C60.4949 50.42 58.3844 49.1998 56.1 49.1998C53.8156 49.1998 51.7051 50.42 50.5654 52.4001H50.3999V45.9999H59.2C59.642 45.9999 60.0001 45.6417 60.0001 45.2001C60.0001 44.7581 59.642 44.3999 59.2 44.3999H50.3999V32.3999H58.944C59.8049 32.4021 60.5985 32.8654 61.024 33.6135L61.2449 33.9999H53.5999C52.7162 33.9999 51.9999 34.7162 51.9999 35.5999V40.4001C51.9999 41.2838 52.7162 42.0001 53.5999 42.0001H65.8232L66.296 42.8263C66.3649 42.9482 66.4008 43.0863 66.4 43.2266V45.9999H63.9999C63.1162 45.9999 62.3999 46.7162 62.3999 47.5999V49.1998C62.3999 50.0835 63.1162 50.8002 63.9999 50.8002H66.4V51.6C66.4 52.042 66.0419 52.4001 65.5999 52.4001ZM66.4 49.1998H63.9999V47.5999H66.4V49.1998Z" fill="#28B8CE"/>
<path d="M42.4 48.4C41.958 48.4 41.5999 48.7582 41.5999 49.1998C41.5999 49.6418 41.958 50 42.4 50H45.6C46.042 50 46.4001 49.6418 46.4001 49.1998C46.4001 48.7582 46.042 48.4 45.6 48.4H42.4Z" fill="#A9E3EB"/>
<path d="M22.4001 62C22.8418 62 23.2 61.6418 23.2 61.1998C23.2 60.7582 22.8418 60.4 22.4001 60.4H20.8002C20.3582 60.4 20 60.7582 20 61.1998C20 61.6418 20.3582 62 20.8002 62H22.4001Z" fill="#A9E3EB"/>
<path d="M36.7999 30.7999H42.4C42.8417 30.7999 43.1998 30.4418 43.1998 30.0001C43.1998 29.5581 42.8417 29.2 42.4 29.2H36.7999C36.3583 29.2 36.0001 29.5581 36.0001 30.0001C36.0001 30.4418 36.3583 30.7999 36.7999 30.7999Z" fill="#A9E3EB"/>
<path d="M45.6 30.7999H46.4001C46.8418 30.7999 47.2 30.4418 47.2 30.0001C47.2 29.5581 46.8418 29.2 46.4001 29.2H45.6C45.1583 29.2 44.8002 29.5581 44.8002 30.0001C44.8002 30.4418 45.1583 30.7999 45.6 30.7999Z" fill="#A9E3EB"/>
<defs>
<linearGradient id="paint0_linear" x1="44" y1="0" x2="44" y2="88" gradientUnits="userSpaceOnUse">
<stop stop-color="#D2EEF5"/>
<stop offset="1" stop-color="#B6E9F0"/>
</linearGradient>
</defs>
</svg>
